<svg width="48" height="65" viewBox="0 0 48 65" fill="none" xmlns="http://www.w3.org/2000/svg">
<path d="M43.0697 0H4.30318C3.16293 0.00334862 2.07033 0.460435 1.26405 1.27142C0.457768 2.0824 0.00332922 3.18136 0 4.32826V60.6717C0.00332922 61.8186 0.457768 62.9176 1.26405 63.7286C2.07033 64.5396 3.16293 64.9967 4.30318 65H43.0697C44.2099 64.9967 45.3025 64.5396 46.1088 63.7286C46.9151 62.9176 47.3696 61.8186 47.3729 60.6717V4.31556C47.3662 3.17087 46.9103 2.07516 46.1044 1.26691C45.2985 0.458669 44.2078 0.00332756 43.0697 0ZM45.215 60.6591C45.215 61.2313 44.989 61.7802 44.5866 62.1848C44.1843 62.5895 43.6387 62.8168 43.0697 62.8168H4.30318C3.73422 62.8168 3.18856 62.5895 2.78624 62.1848C2.38392 61.7802 2.1579 61.2313 2.1579 60.6591V4.31556C2.1579 3.74328 2.38392 3.19444 2.78624 2.78978C3.18856 2.38512 3.73422 2.15778 4.30318 2.15778H43.0697C43.6387 2.15778 44.1843 2.38512 44.5866 2.78978C44.989 3.19444 45.215 3.74328 45.215 4.31556V60.6717V60.6591ZM18.298 23.8244C18.298 25.2619 18.8657 26.6404 19.8762 27.6569C20.8868 28.6733 22.2573 29.2443 23.6864 29.2443C25.1155 29.2443 26.4861 28.6733 27.4966 27.6569C28.5072 26.6404 29.0749 25.2619 29.0749 23.8244C29.0749 22.387 28.5072 21.0085 27.4966 19.992C26.4861 18.9756 25.1155 18.4046 23.6864 18.4046C22.2573 18.4046 20.8868 18.9756 19.8762 19.992C18.8657 21.0085 18.298 22.387 18.298 23.8244ZM24.9231 20.8289C25.3151 20.9923 25.6712 21.2317 25.9711 21.5335C26.271 21.8352 26.509 22.1935 26.6712 22.5877C26.8335 22.982 26.917 23.4045 26.917 23.8312C26.9169 24.258 26.8333 24.6805 26.6709 25.0747C26.5085 25.4689 26.2705 25.8271 25.9705 26.1288C25.6704 26.4305 25.3143 26.6698 24.9223 26.833C24.5303 26.9962 24.1102 27.0802 23.686 27.0802C23.2617 27.0801 22.8417 26.996 22.4497 26.8327C21.6582 26.5027 21.0294 25.8701 20.7016 25.0739C20.3739 24.2776 20.374 23.383 20.702 22.5869C21.03 21.7908 21.659 21.1583 22.4506 20.8286C23.2422 20.4989 24.1316 20.499 24.9231 20.8289ZM12.0136 25.8172C11.9904 25.6764 11.9398 25.5415 11.8648 25.4203C11.7898 25.2991 11.6918 25.194 11.5763 25.1109C11.4609 25.0278 11.3303 24.9684 11.1921 24.936C11.0538 24.9037 10.9106 24.899 10.7706 24.9224C10.6305 24.9457 10.4965 24.9966 10.376 25.072C10.2555 25.1475 10.1509 25.2461 10.0683 25.3622C9.90147 25.5966 9.83406 25.8882 9.88092 26.1726C10.0197 26.9723 10.2216 27.7592 10.4993 28.5208C10.603 28.7788 10.8018 28.9865 11.0542 29.1005C11.3066 29.2146 11.593 29.2261 11.8537 29.1327C12.1143 29.0393 12.329 28.8482 12.4528 28.5994C12.5767 28.3505 12.6002 28.0632 12.5184 27.7973C12.2941 27.153 12.1252 26.4906 12.0136 25.8172ZM24.7591 10.827C24.7591 10.2304 24.2795 9.7481 23.6864 9.7481C16.8468 9.7354 11.004 14.6983 9.88092 21.489C9.83406 21.7717 9.90081 22.0617 10.0665 22.2949C10.2321 22.5282 10.4831 22.6857 10.7643 22.7329C11.0454 22.78 11.3336 22.7129 11.5656 22.5462C11.7975 22.3796 11.9541 22.1271 12.001 21.8444C12.4619 19.0647 13.8902 16.5404 16.0308 14.7222C18.1713 12.904 20.8847 11.9103 23.6864 11.9186C24.2795 11.9186 24.7591 11.4236 24.7591 10.827ZM41.9592 22.8471C41.7877 19.6211 40.775 16.4974 39.0229 13.7898C37.2707 11.0822 34.8409 8.88626 31.9776 7.42257C29.1143 5.95887 25.9184 5.27904 22.7111 5.45139C19.5038 5.62374 16.3981 6.64221 13.7061 8.40443C11.0142 10.1666 8.83082 12.6105 7.37548 15.4904C5.92014 18.3704 5.24411 21.5849 5.41532 24.8109C5.58654 28.0369 6.59896 31.1607 8.35086 33.8684C10.1027 36.5761 12.5324 38.7723 15.3956 40.2363C14.8024 40.5409 14.2598 40.8582 13.7424 41.1629H7.53373C7.10949 41.1629 6.6894 41.2469 6.29745 41.4102C5.9055 41.5735 5.54937 41.8128 5.24939 42.1146C4.9494 42.4163 4.71144 42.7745 4.54909 43.1687C4.38674 43.563 4.30318 43.9855 4.30318 44.4122V57.4097C4.30318 58.2715 4.64354 59.098 5.24939 59.7073C5.85523 60.3167 6.67693 60.6591 7.53373 60.6591H20.4559C21.3127 60.6591 22.1344 60.3167 22.7402 59.7073C23.3461 59.098 23.6864 58.2715 23.6864 57.4097V51.0633C25.2498 48.0472 26.6238 44.9356 27.8003 41.7467C31.9952 40.7733 35.7146 38.3434 38.3043 34.8843C40.894 31.4252 42.1881 27.1584 41.9592 22.8344V22.8471ZM7.53373 23.8244C7.53165 20.8302 8.35226 17.8936 9.90496 15.339C11.4577 12.7843 13.6821 10.7109 16.3325 9.3477C18.983 7.98451 21.9565 7.38455 24.9246 7.61407C27.8927 7.84359 30.7401 8.89365 33.1522 10.6483C35.5644 12.403 37.4475 14.794 38.5938 17.5574C39.74 20.3208 40.1047 23.349 39.6476 26.3077C39.1905 29.2665 37.9294 32.0406 36.0035 34.3238C34.0777 36.607 31.562 38.3105 28.7342 39.2462C29.3904 37.4819 29.832 36.1619 29.9835 35.743C30.0501 35.5486 30.0602 35.3391 30.0124 35.1392C29.9647 34.9392 29.8611 34.7572 29.7139 34.6145C29.5667 34.4717 29.382 34.3743 29.1816 34.3336C28.9812 34.293 28.7734 34.3107 28.5827 34.3849C27.6741 34.7276 22.4497 36.7711 17.8816 38.9797C14.8398 37.7958 12.2244 35.7156 10.378 33.0113C8.53157 30.3071 7.5402 27.105 7.53373 23.8244ZM21.5412 57.4097C21.5412 58.0063 21.049 58.4886 20.4559 58.4886H7.53373C7.24924 58.4886 6.97641 58.3749 6.77525 58.1726C6.5741 57.9702 6.46109 57.6958 6.46109 57.4097V44.4122C6.46109 43.8157 6.94062 43.3206 7.53373 43.3206H10.9031C9.56849 44.7882 8.76778 46.6674 8.63161 48.6516C8.54111 49.6785 8.67538 50.7128 9.02498 51.6819C9.37457 52.651 9.931 53.5312 10.6551 54.2608C11.3793 54.9904 12.2535 55.5515 13.2164 55.9047C14.1792 56.258 15.2074 56.3947 16.2284 56.3054C18.197 56.1785 20.0773 55.3661 21.5285 54.0207V57.4097H21.5412ZM20.3802 52.1422C19.2444 53.3099 17.7301 54.0334 16.0896 54.1476C15.3743 54.2144 14.6531 54.1215 13.9775 53.8758C13.302 53.63 12.6886 53.2373 12.1812 52.7258C11.6738 52.2142 11.2849 51.5964 11.0422 50.9163C10.7994 50.2362 10.7088 49.5106 10.7769 48.7913C10.9031 47.1666 11.5971 45.618 12.7707 44.4757C14.1084 43.1303 18.563 40.9725 22.7021 39.1574L25.5162 41.6452C23.8253 46.0115 21.7431 50.7713 20.3802 52.1422ZM26.3491 39.4874L24.8979 38.2181C25.653 37.9 26.4102 37.5869 27.1694 37.2789L26.3365 39.4747L26.3491 39.4874ZM4.97201 6.40988C5.16809 6.49323 5.38439 6.51601 5.59338 6.47532C5.80237 6.43464 5.9946 6.33233 6.1456 6.18141C6.29564 6.02953 6.39736 5.83618 6.43781 5.62597C6.47826 5.41576 6.45561 5.1982 6.37275 5.00098C6.30965 4.87405 6.24656 4.74712 6.1456 4.64558C5.94084 4.44628 5.66707 4.33486 5.38213 4.33486C5.0972 4.33486 4.82343 4.44628 4.61867 4.64558C4.51771 4.74712 4.442 4.87405 4.39152 5.00098C4.32842 5.12791 4.30318 5.28022 4.30318 5.41984C4.31035 5.70436 4.42286 5.97595 4.61867 6.18141C4.71962 6.28295 4.84581 6.35911 4.97201 6.40988ZM42.7542 4.64558C42.546 4.45825 42.2764 4.35468 41.9971 4.35468C41.7177 4.35468 41.4481 4.45825 41.2399 4.64558C41.0386 4.84737 40.9251 5.12128 40.9244 5.40715C40.924 5.58476 40.9672 5.75974 41.0501 5.91654C41.133 6.07334 41.2532 6.20712 41.3999 6.30601C41.5466 6.40489 41.7153 6.46582 41.891 6.48339C42.0667 6.50095 42.244 6.47461 42.4072 6.4067C42.5704 6.33879 42.7143 6.23141 42.8263 6.09409C42.9383 5.95677 43.0149 5.79377 43.0492 5.61954C43.0836 5.44532 43.0746 5.26526 43.0231 5.09535C42.9717 4.92545 42.8793 4.77095 42.7542 4.64558ZM41.5806 58.5774C41.4544 58.6282 41.3282 58.7044 41.2273 58.8059C41.0329 59.0112 40.9244 59.2839 40.9244 59.5675C40.9244 59.851 41.0329 60.1237 41.2273 60.329C41.3306 60.429 41.4501 60.5106 41.5806 60.5702C41.7068 60.621 41.8582 60.6591 41.9971 60.6591C42.2087 60.6551 42.4147 60.5889 42.5894 60.4688C42.7642 60.3486 42.9002 60.1796 42.9807 59.9826C43.0612 59.7856 43.0826 59.5693 43.0424 59.3602C43.0021 59.1511 42.902 58.9584 42.7542 58.8059C42.6032 58.655 42.411 58.5527 42.202 58.512C41.993 58.4713 41.7767 58.4941 41.5806 58.5774ZM22.9293 24.5987C23.0577 24.7198 23.2123 24.8092 23.3809 24.8598C23.5496 24.9105 23.7276 24.921 23.901 24.8906L24.0903 24.8272L24.2922 24.7256L24.4562 24.5987C24.5467 24.4929 24.6191 24.3728 24.6707 24.2433C24.7338 24.1164 24.7717 23.9768 24.7591 23.8244C24.7553 23.5416 24.6474 23.2703 24.4562 23.0629L24.2922 22.936C24.2291 22.8852 24.166 22.8598 24.0903 22.8344C24.0398 22.7963 23.9641 22.7836 23.901 22.7709C23.6896 22.7195 23.4671 22.7419 23.27 22.8344L23.0807 22.9233L22.9167 23.0502C22.7225 23.2608 22.6144 23.5372 22.6138 23.8244C22.6138 23.9641 22.639 24.1037 22.6895 24.2433C22.7526 24.3702 22.8157 24.4972 22.9167 24.5987H22.9293ZM40.9118 47.6616H29.0749C28.7921 47.6599 28.5118 47.7145 28.25 47.8222C27.9883 47.9299 27.7503 48.0886 27.5498 48.2891C27.3492 48.4896 27.1901 48.7281 27.0815 48.9907C26.9729 49.2533 26.917 49.5349 26.917 49.8194V54.1603C26.917 54.7326 27.143 55.2814 27.5453 55.6861C27.9476 56.0908 28.4933 56.3181 29.0623 56.3181H40.9244C41.4934 56.3181 42.039 56.0908 42.4414 55.6861C42.8437 55.2814 43.0697 54.7326 43.0697 54.1603V49.8194C43.0697 49.2471 42.8437 48.6983 42.4414 48.2936C42.039 47.8889 41.4934 47.6616 40.9244 47.6616H40.9118ZM29.0749 54.1603V49.8194H40.9118V54.1603H29.0749Z" fill="black"/>
</svg>
