<svg width="60" height="36" viewBox="0 0 60 36" fill="none" xmlns="http://www.w3.org/2000/svg">
<path d="M43.0078 6.99382C40.885 6.99382 38.8492 7.83681 37.3482 9.33735C35.8472 10.8379 35.0039 12.873 35.0039 14.9951C35.0039 17.1172 35.8472 19.1524 37.3482 20.6529C38.8492 22.1534 40.885 22.9964 43.0078 22.9964C45.1306 22.9964 47.1664 22.1534 48.6674 20.6529C50.1684 19.1524 51.0117 17.1172 51.0117 14.9951C51.0117 12.873 50.1684 10.8379 48.6674 9.33735C47.1664 7.83681 45.1306 6.99382 43.0078 6.99382ZM43.0078 20.9932C42.2199 20.9932 41.4397 20.838 40.7117 20.5366C39.9838 20.2352 39.3223 19.7934 38.7652 19.2364C38.208 18.6794 37.7661 18.0182 37.4645 17.2905C37.163 16.5628 37.0078 15.7828 37.0078 14.9951C37.0078 14.2074 37.163 13.4275 37.4645 12.6998C37.7661 11.972 38.208 11.3108 38.7652 10.7539C39.3223 10.1969 39.9838 9.75508 40.7117 9.45365C41.4397 9.15222 42.2199 8.99707 43.0078 8.99707C44.5991 8.99707 46.1252 9.62901 47.2505 10.7539C48.3757 11.8787 49.0078 13.4043 49.0078 14.9951C49.0078 16.5859 48.3757 18.1115 47.2505 19.2364C46.1252 20.3612 44.5991 20.9932 43.0078 20.9932ZM43.0078 11.0003C42.483 11.0003 41.9634 11.1037 41.4786 11.3044C40.9937 11.5052 40.5532 11.7994 40.1821 12.1704C39.8111 12.5413 39.5167 12.9817 39.3159 13.4664C39.1151 13.951 39.0117 14.4705 39.0117 14.9951C39.0117 15.5197 39.1151 16.0392 39.3159 16.5239C39.5167 17.0085 39.8111 17.4489 40.1821 17.8199C40.5532 18.1908 40.9937 18.4851 41.4786 18.6858C41.9634 18.8866 42.483 18.9899 43.0078 18.9899C44.0676 18.9899 45.0841 18.569 45.8335 17.8199C46.5829 17.0707 47.0039 16.0546 47.0039 14.9951C47.0039 13.9356 46.5829 12.9195 45.8335 12.1704C45.0841 11.4212 44.0676 11.0003 43.0078 11.0003ZM43.0078 16.9984C42.4763 16.9984 41.9666 16.7873 41.5908 16.4116C41.215 16.036 41.0039 15.5264 41.0039 14.9951C41.0039 14.4638 41.215 13.9543 41.5908 13.5786C41.9666 13.2029 42.4763 12.9919 43.0078 12.9919C43.5393 12.9919 44.049 13.2029 44.4248 13.5786C44.8006 13.9543 45.0117 14.4638 45.0117 14.9951C45.0117 15.5264 44.8006 16.036 44.4248 16.4116C44.049 16.7873 43.5393 16.9984 43.0078 16.9984ZM50.5547 6.16206L50.3789 6.08005C50.1968 6.00313 49.996 5.9821 49.8019 6.01965C49.6078 6.05721 49.4293 6.15163 49.2891 6.29092C49.1072 6.48056 49.0028 6.73122 48.9961 6.99382C48.9961 7.26326 49.1016 7.52099 49.2891 7.69671C49.3828 7.79043 49.5 7.87244 49.6172 7.9193C49.7683 7.98294 49.9328 8.00831 50.0961 7.99313C50.2594 7.97796 50.4164 7.92273 50.5532 7.83233C50.69 7.74193 50.8024 7.61917 50.8803 7.47494C50.9582 7.3307 50.9994 7.16947 51 7.00553C50.9963 6.73886 50.8916 6.48351 50.707 6.29092L50.5547 6.17377V6.16206ZM50.3906 22.0709C50.2687 22.0174 50.1371 21.9897 50.0039 21.9897C49.8708 21.9897 49.7391 22.0174 49.6172 22.0709L49.4414 22.1647L49.2891 22.2818C49.1072 22.4714 49.0028 22.7221 48.9961 22.9847C48.9961 23.1253 49.0195 23.2542 49.0781 23.3713C49.1367 23.4884 49.1953 23.6056 49.2891 23.6993C49.4293 23.8386 49.6078 23.933 49.8019 23.9706C49.996 24.0081 50.1968 23.9871 50.3789 23.9102C50.4961 23.8633 50.6133 23.793 50.707 23.6993C50.8908 23.511 50.9957 23.2595 51 22.9964C50.9933 22.7338 50.8889 22.4832 50.707 22.2935C50.6112 22.2011 50.5002 22.1258 50.3789 22.0709H50.3906ZM35.625 7.9193C35.8594 8.02473 36.1406 8.02473 36.375 7.9193C36.4922 7.87244 36.6094 7.80215 36.7148 7.70843C36.8975 7.52028 36.9986 7.26771 36.9961 7.00553C36.9955 6.74046 36.8951 6.48531 36.7148 6.29092L36.5508 6.17377C36.5039 6.12691 36.4336 6.10348 36.375 6.08005C36.2238 6.01389 36.0582 5.98776 35.894 6.00417C35.7298 6.02059 35.5726 6.079 35.4375 6.17377L35.2852 6.29092C35.2031 6.38464 35.1328 6.49008 35.0742 6.61894C34.9957 6.80068 34.9738 7.00187 35.0114 7.19624C35.049 7.39061 35.1444 7.56911 35.2852 7.70843C35.3906 7.79043 35.4961 7.87244 35.625 7.9193ZM36.3867 22.0592C36.2338 21.9948 36.0671 21.9695 35.9019 21.9859C35.7367 22.0022 35.5782 22.0595 35.4408 22.1526C35.3034 22.2457 35.1915 22.3717 35.1152 22.5191C35.0389 22.6664 35.0006 22.8305 35.0039 22.9964C35.0039 23.2605 35.1089 23.5138 35.2957 23.7005C35.4825 23.8873 35.7358 23.9922 36 23.9922C36.2642 23.9922 36.5175 23.8873 36.7043 23.7005C36.8912 23.5138 36.9961 23.2605 36.9961 22.9964C36.9961 22.5864 36.7617 22.2232 36.3867 22.0592ZM13.3828 4.0768C13.1484 3.95965 12.8555 3.95965 12.6211 4.0768C12.4342 4.14736 12.2739 4.27442 12.1626 4.4403C12.0513 4.60617 11.9944 4.80261 12 5.00228C12 5.11943 12.0234 5.26001 12.082 5.37716C12.1289 5.49431 12.1992 5.61146 12.293 5.70518C12.3867 5.7989 12.5039 5.86918 12.6211 5.91604C12.8555 6.03319 13.1367 6.03319 13.3828 5.91604C13.5 5.86918 13.6172 5.7989 13.7109 5.70518C13.8942 5.51706 13.9967 5.26486 13.9967 5.00228C13.9967 4.7397 13.8942 4.4875 13.7109 4.29938C13.6152 4.20691 13.5042 4.13162 13.3828 4.0768ZM27.5625 4.17052L27.375 4.0768L27.1875 4.01822C26.9987 3.97526 26.8009 3.99586 26.625 4.0768L26.4375 4.17052L26.2852 4.28767L26.168 4.43996L26.0742 4.61569L26.0156 4.80312L26.0039 5.00228C26.0039 5.26001 26.0977 5.51774 26.2852 5.70518C26.3906 5.7989 26.4961 5.86918 26.625 5.91604C26.8594 6.03319 27.1406 6.03319 27.375 5.91604C27.4987 5.87099 27.6111 5.7994 27.7043 5.70631C27.7974 5.61321 27.869 5.50086 27.9141 5.37716C27.9727 5.26001 27.9961 5.13114 27.9961 5.00228C27.9961 4.73284 27.8906 4.47511 27.7148 4.29938L27.5625 4.17052ZM13.3828 24.0625C13.2299 23.998 13.0632 23.9728 12.898 23.9891C12.7328 24.0054 12.5743 24.0627 12.4369 24.1559C12.2995 24.249 12.1876 24.3749 12.1113 24.5223C12.035 24.6697 11.9967 24.8338 12 24.9997C12 25.1168 12.0234 25.2457 12.0703 25.3746C12.1289 25.4917 12.1992 25.5971 12.293 25.6909C12.3867 25.7846 12.4922 25.8666 12.6211 25.9252C12.7383 25.972 12.8672 25.9954 12.9961 25.9954C13.2656 25.9954 13.5234 25.8783 13.6992 25.6909C13.8185 25.5749 13.9069 25.431 13.9562 25.2721C14.0056 25.1133 14.0143 24.9446 13.9817 24.7815C13.9491 24.6184 13.8761 24.4661 13.7694 24.3385C13.6628 24.2108 13.5258 24.1119 13.3711 24.0508L13.3828 24.0625ZM26.6133 24.0625C26.4586 24.1236 26.3216 24.2225 26.2149 24.3502C26.1083 24.4778 26.0353 24.6302 26.0027 24.7932C25.9701 24.9563 25.9788 25.125 26.0282 25.2838C26.0775 25.4427 26.1659 25.5866 26.2852 25.7026C26.3906 25.7846 26.4961 25.8666 26.625 25.9252C26.8393 26.0088 27.0759 26.0167 27.2953 25.9473C27.5147 25.878 27.7037 25.7358 27.8311 25.5442C27.9584 25.3526 28.0163 25.1232 27.9951 24.8941C27.974 24.6651 27.8751 24.4501 27.7148 24.2851C27.575 24.1414 27.395 24.0434 27.1985 24.0036C27.0019 23.9639 26.798 23.9844 26.6133 24.0625ZM59.0039 19.9857H57.3867L58.9453 15.3114C59.0156 15.1006 59.0156 14.8897 58.9453 14.6788L57.3867 9.99284H59.0039C59.1453 9.99237 59.285 9.9618 59.4137 9.90317C59.5424 9.84454 59.6571 9.75919 59.7502 9.6528C59.8433 9.54641 59.9127 9.42141 59.9538 9.28613C59.9948 9.15085 60.0066 9.00839 59.9883 8.86821L59.0977 1.75724C59.0402 1.27265 58.8068 0.826001 58.4417 0.502072C58.0767 0.178144 57.6053 -0.000517164 57.1172 1.12449e-06H0.996094C0.731913 1.12449e-06 0.478553 0.104912 0.291749 0.291655C0.104945 0.478398 0 0.731676 0 0.995771C0 1.25987 0.104945 1.51314 0.291749 1.69989C0.478553 1.88663 0.731913 1.99154 0.996094 1.99154H3.99609V34.9925C3.99609 35.1241 4.02201 35.2543 4.07236 35.3758C4.12272 35.4973 4.19652 35.6078 4.28956 35.7008C4.3826 35.7938 4.49305 35.8676 4.61462 35.9179C4.73618 35.9682 4.86647 35.9941 4.99805 35.9941C5.12963 35.9941 5.25992 35.9682 5.38148 35.9179C5.50304 35.8676 5.61349 35.7938 5.70653 35.7008C5.79957 35.6078 5.87338 35.4973 5.92373 35.3758C5.97408 35.2543 6 35.1241 6 34.9925V29.9902H7.99219V31.9818C7.99063 32.2453 8.0414 32.5065 8.14156 32.7502C8.24171 32.994 8.38926 33.2154 8.57565 33.4018C8.76204 33.5881 8.98357 33.7356 9.2274 33.8357C9.47122 33.9358 9.7325 33.9866 9.99609 33.985H12C12.5284 33.985 13.0351 33.7752 13.4087 33.4017C13.7823 33.0282 13.9922 32.5217 13.9922 31.9935V29.9902H15.9961V31.9818C15.9945 32.2453 16.0453 32.5065 16.1455 32.7502C16.2456 32.994 16.3932 33.2154 16.5796 33.4018C16.7659 33.5881 16.9875 33.7356 17.2313 33.8357C17.4751 33.9358 17.7364 33.9866 18 33.985H21.9961C22.2587 33.9866 22.519 33.9362 22.7621 33.8368C23.0051 33.7374 23.2261 33.591 23.4124 33.4059C23.5986 33.2208 23.7464 33.0007 23.8472 32.7583C23.9481 32.5159 24 32.256 24 31.9935V29.9902H25.9922V31.9818C25.9906 32.2453 26.0414 32.5065 26.1416 32.7502C26.2417 32.994 26.3893 33.2154 26.5757 33.4018C26.762 33.5881 26.9836 33.7356 27.2274 33.8357C27.4712 33.9358 27.7325 33.9866 27.9961 33.985H41.0039C41.5323 33.985 42.039 33.7752 42.4126 33.4017C42.7862 33.0282 42.9961 32.5217 42.9961 31.9935V29.9902H45V32.9893C45 33.2534 45.1049 33.5066 45.2917 33.6934C45.4786 33.8801 45.7319 33.985 45.9961 33.985H48.9961C49.1269 33.985 49.2564 33.9593 49.3773 33.9092C49.4981 33.8592 49.6079 33.7858 49.7004 33.6934C49.7929 33.6009 49.8663 33.4911 49.9164 33.3703C49.9664 33.2495 49.9922 33.12 49.9922 32.9893C49.9922 32.8585 49.9664 32.729 49.9164 32.6082C49.8663 32.4874 49.7929 32.3776 49.7004 32.2851C49.6079 32.1927 49.4981 32.1193 49.3773 32.0693C49.2564 32.0192 49.1269 31.9935 48.9961 31.9935H47.0039V29.9902H57.1172C57.6073 29.9936 58.0815 29.8163 58.4491 29.4921C58.8166 29.1679 59.0517 28.7196 59.1094 28.233L59.9883 21.122C60.0066 20.9819 59.9948 20.8394 59.9538 20.7041C59.9127 20.5688 59.8433 20.4438 59.7502 20.3374C59.6571 20.2311 59.5424 20.1457 59.4137 20.0871C59.285 20.0284 59.1453 19.9979 59.0039 19.9974V19.9857ZM8.00391 27.9987H6V2.00326H7.99219V27.987L8.00391 27.9987ZM57.1172 2.01497L57.8672 8.01302H56.4961L51.9961 2.01497H57.1172ZM10.0078 2.01497H33.9844L29.4844 8.01302H9.99609V2.01497H10.0078ZM10.0078 10.0046H28.6172L27.9492 12.0078H9.99609V10.0163L10.0078 10.0046ZM10.0078 14.0111H27.2812L27.0469 14.6905C26.9772 14.8957 26.9772 15.118 27.0469 15.3231L27.2812 16.0026H9.99609V14.0111H10.0078ZM10.0078 18.0059H27.9375L28.6172 19.9974H9.99609V18.0059H10.0078ZM10.0078 32.0052V30.002H12V31.9935H10.0078V32.0052ZM18 32.0052V30.002H21.9961V31.9935H18V32.0052ZM23.0039 27.9987H9.99609V22.0007H29.4961L33.9961 27.9987H23.0039ZM27.9961 32.0052V30.002H41.0039V31.9935H27.9961V32.0052ZM36.5039 27.9987L30.9023 20.5363L29.5898 16.6235L29.0508 15.0068L29.5898 13.4019V13.3902L30.9023 9.47738L36.5039 2.01497H49.5L55.1016 9.47738L56.9414 15.0068L55.1016 20.5363L49.5 27.9987H36.4922H36.5039ZM57.1172 27.9987H51.9961L56.4961 22.0007H57.8672L57.1172 27.9987Z" fill="black"/>
</svg>
