<svg width="65" height="65" viewBox="0 0 65 65" fill="none" xmlns="http://www.w3.org/2000/svg">
<g clip-path="url(#clip0_516_615)">
<path d="M59.5791 0H5.4209C3.98319 0 2.60436 0.571129 1.58774 1.58774C0.571129 2.60436 0 3.98319 0 5.4209L0 59.5791C0 61.0168 0.571129 62.3956 1.58774 63.4123C2.60436 64.4289 3.98319 65 5.4209 65H59.5791C61.0168 65 62.3956 64.4289 63.4123 63.4123C64.4289 62.3956 65 61.0168 65 59.5791V5.4209C65 3.98319 64.4289 2.60436 63.4123 1.58774C62.3956 0.571129 61.0168 0 59.5791 0ZM62.8418 59.5791C62.8418 60.4411 62.4994 61.2677 61.8899 61.8772C61.2804 62.4867 60.4538 62.8291 59.5918 62.8291H5.4209C4.99304 62.8308 4.56905 62.7479 4.17328 62.5854C3.7775 62.4228 3.41773 62.1837 3.11459 61.8817C2.81145 61.5797 2.57092 61.2209 2.4068 60.8258C2.24268 60.4306 2.1582 60.007 2.1582 59.5791V5.4209C2.15652 4.99196 2.23977 4.56694 2.40314 4.17034C2.56651 3.77373 2.80678 3.41339 3.11008 3.11008C3.41339 2.80678 3.77373 2.56651 4.17034 2.40314C4.56694 2.23977 4.99196 2.15652 5.4209 2.1582H59.5791C60.008 2.15652 60.4331 2.23977 60.8297 2.40314C61.2263 2.56651 61.5866 2.80678 61.8899 3.11008C62.1932 3.41339 62.4335 3.77373 62.5969 4.17034C62.7602 4.56694 62.8435 4.99196 62.8418 5.4209V59.5791ZM32.5 4.3291C25.0286 4.3291 17.8632 7.2971 12.5802 12.5802C7.2971 17.8632 4.3291 25.0286 4.3291 32.5C4.3291 39.9714 7.2971 47.1368 12.5802 52.4198C17.8632 57.7029 25.0286 60.6709 32.5 60.6709C39.9731 60.6709 47.1401 57.7022 52.4243 52.418C57.7086 47.1337 60.6772 39.9667 60.6772 32.4937C60.6772 25.0206 57.7086 17.8536 52.4243 12.5693C47.1401 7.28507 39.9731 4.31641 32.5 4.31641V4.3291ZM32.5 58.5C25.6044 58.5 18.9912 55.7607 14.1152 50.8848C9.23928 46.0088 6.5 39.3956 6.5 32.5C6.5 25.6044 9.23928 18.9912 14.1152 14.1152C18.9912 9.23928 25.6044 6.5 32.5 6.5C39.3956 6.5 46.0088 9.23928 50.8848 14.1152C55.7607 18.9912 58.5 25.6044 58.5 32.5C58.5 39.3956 55.7607 46.0088 50.8848 50.8848C46.0088 55.7607 39.3956 58.5 32.5 58.5ZM32.5 8.6709C26.1801 8.6709 20.1191 11.1815 15.6503 15.6503C11.1815 20.1191 8.6709 26.1801 8.6709 32.5C8.6709 38.8199 11.1815 44.8809 15.6503 49.3497C20.1191 53.8185 26.1801 56.3291 32.5 56.3291C38.8199 56.3291 44.8809 53.8185 49.3497 49.3497C53.8185 44.8809 56.3291 38.8199 56.3291 32.5C56.3291 26.1801 53.8185 20.1191 49.3497 15.6503C44.8809 11.1815 38.8199 8.6709 32.5 8.6709ZM32.5 54.1709C29.6541 54.1709 26.8361 53.6104 24.2069 52.5213C21.5777 51.4322 19.1887 49.836 17.1764 47.8236C15.164 45.8113 13.5678 43.4223 12.4787 40.7931C11.3896 38.1639 10.8291 35.3459 10.8291 32.5C10.8291 29.6541 11.3896 26.8361 12.4787 24.2069C13.5678 21.5777 15.164 19.1887 17.1764 17.1764C19.1887 15.164 21.5777 13.5678 24.2069 12.4787C26.8361 11.3896 29.6541 10.8291 32.5 10.8291C38.2475 10.8291 43.7596 13.1123 47.8236 17.1764C51.8877 21.2404 54.1709 26.7525 54.1709 32.5C54.1709 38.2475 51.8877 43.7596 47.8236 47.8236C43.7596 51.8877 38.2475 54.1709 32.5 54.1709ZM7.5791 10.8291C8.44106 10.8291 9.2677 10.4867 9.8772 9.8772C10.4867 9.2677 10.8291 8.44106 10.8291 7.5791C10.8291 6.71715 10.4867 5.8905 9.8772 5.281C9.2677 4.67151 8.44106 4.3291 7.5791 4.3291C6.71715 4.3291 5.8905 4.67151 5.281 5.281C4.67151 5.8905 4.3291 6.71715 4.3291 7.5791C4.3291 8.44106 4.67151 9.2677 5.281 9.8772C5.8905 10.4867 6.71715 10.8291 7.5791 10.8291ZM7.5791 6.5C7.72081 6.5 7.86113 6.52791 7.99206 6.58214C8.12298 6.63637 8.24194 6.71586 8.34214 6.81606C8.44235 6.91627 8.52183 7.03522 8.57606 7.16615C8.63029 7.29707 8.6582 7.43739 8.6582 7.5791C8.6582 7.72081 8.63029 7.86113 8.57606 7.99206C8.52183 8.12298 8.44235 8.24194 8.34214 8.34214C8.24194 8.44235 8.12298 8.52183 7.99206 8.57606C7.86113 8.63029 7.72081 8.6582 7.5791 8.6582C7.29291 8.6582 7.01843 8.54451 6.81606 8.34214C6.61369 8.13977 6.5 7.8653 6.5 7.5791C6.5 7.29291 6.61369 7.01843 6.81606 6.81606C7.01843 6.61369 7.29291 6.5 7.5791 6.5ZM7.5791 54.1709C6.71715 54.1709 5.8905 54.5133 5.281 55.1228C4.67151 55.7323 4.3291 56.5589 4.3291 57.4209C4.3291 58.2829 4.67151 59.1095 5.281 59.719C5.8905 60.3285 6.71715 60.6709 7.5791 60.6709C8.44106 60.6709 9.2677 60.3285 9.8772 59.719C10.4867 59.1095 10.8291 58.2829 10.8291 57.4209C10.8291 56.5589 10.4867 55.7323 9.8772 55.1228C9.2677 54.5133 8.44106 54.1709 7.5791 54.1709ZM7.5791 58.5C7.29291 58.5 7.01843 58.3863 6.81606 58.1839C6.61369 57.9816 6.5 57.7071 6.5 57.4209C6.5 57.1347 6.61369 56.8602 6.81606 56.6579C7.01843 56.4555 7.29291 56.3418 7.5791 56.3418C7.8653 56.3418 8.13977 56.4555 8.34214 56.6579C8.54451 56.8602 8.6582 57.1347 8.6582 57.4209C8.6582 57.7071 8.54451 57.9816 8.34214 58.1839C8.13977 58.3863 7.8653 58.5 7.5791 58.5ZM57.4209 4.3291C56.9941 4.3291 56.5715 4.41317 56.1772 4.57649C55.7829 4.73982 55.4246 4.97921 55.1228 5.281C54.821 5.58279 54.5816 5.94107 54.4183 6.33538C54.255 6.72969 54.1709 7.15231 54.1709 7.5791C54.1709 8.0059 54.255 8.42851 54.4183 8.82282C54.5816 9.21713 54.821 9.57541 55.1228 9.8772C55.4246 10.179 55.7829 10.4184 56.1772 10.5817C56.5715 10.745 56.9941 10.8291 57.4209 10.8291C58.2829 10.8291 59.1095 10.4867 59.719 9.8772C60.3285 9.2677 60.6709 8.44106 60.6709 7.5791C60.6709 6.71715 60.3285 5.8905 59.719 5.281C59.1095 4.67151 58.2829 4.3291 57.4209 4.3291ZM57.4209 8.6709C57.133 8.6709 56.8569 8.55654 56.6534 8.35298C56.4498 8.14942 56.3354 7.87333 56.3354 7.58545C56.3354 7.29757 56.4498 7.02148 56.6534 6.81792C56.8569 6.61436 57.133 6.5 57.4209 6.5C57.7071 6.5 57.9816 6.61369 58.1839 6.81606C58.3863 7.01843 58.5 7.29291 58.5 7.5791C58.5 7.8653 58.3863 8.13977 58.1839 8.34214C57.9816 8.54451 57.7071 8.6582 57.4209 8.6582V8.6709ZM57.4209 54.1709C56.5589 54.1709 55.7323 54.5133 55.1228 55.1228C54.5133 55.7323 54.1709 56.5589 54.1709 57.4209C54.1709 58.2829 54.5133 59.1095 55.1228 59.719C55.7323 60.3285 56.5589 60.6709 57.4209 60.6709C58.2829 60.6709 59.1095 60.3285 59.719 59.719C60.3285 59.1095 60.6709 58.2829 60.6709 57.4209C60.6709 56.5589 60.3285 55.7323 59.719 55.1228C59.1095 54.5133 58.2829 54.1709 57.4209 54.1709ZM57.4209 58.5C57.1347 58.5 56.8602 58.3863 56.6579 58.1839C56.4555 57.9816 56.3418 57.7071 56.3418 57.4209C56.3418 57.1347 56.4555 56.8602 56.6579 56.6579C56.8602 56.4555 57.1347 56.3418 57.4209 56.3418C57.7071 56.3418 57.9816 56.4555 58.1839 56.6579C58.3863 56.8602 58.5 57.1347 58.5 57.4209C58.5 57.7071 58.3863 57.9816 58.1839 58.1839C57.9816 58.3863 57.7071 58.5 57.4209 58.5ZM35.7246 13.6094C35.6333 13.4325 35.4948 13.2844 35.3246 13.1813C35.1543 13.0782 34.9588 13.0243 34.7598 13.0254L28.1582 13C27.9715 13.0024 27.7885 13.0528 27.6267 13.1461C27.465 13.2395 27.3299 13.3728 27.2343 13.5333C27.1388 13.6937 27.0861 13.8761 27.0811 14.0627C27.0762 14.2494 27.1192 14.4343 27.2061 14.5996C27.5615 15.2725 30.3037 20.8203 28.6152 26.2412C23.4609 22.6104 16.8975 23.3848 15.5391 23.6006C15.341 23.6311 15.1553 23.7161 15.0028 23.8461C14.8504 23.9762 14.7371 24.1461 14.6758 24.3369L12.6191 30.5957C12.565 30.7731 12.5569 30.9613 12.5957 31.1427C12.6345 31.3241 12.7188 31.4926 12.8408 31.6323C12.9627 31.7721 13.1183 31.8784 13.2927 31.9414C13.4672 32.0043 13.6548 32.0218 13.8379 31.9922C14.5869 31.8652 20.7061 30.9766 25.3398 34.252C20.2998 38.0352 19.0176 44.5225 18.8018 45.8936C18.7383 46.2871 18.9033 46.6934 19.2207 46.9346L24.5527 50.8193C24.6687 50.9034 24.8003 50.9636 24.9398 50.9963C25.0793 51.029 25.2239 51.0336 25.3652 51.0098C25.5897 50.9679 25.7956 50.8576 25.9548 50.6939C26.1139 50.5302 26.2184 50.3212 26.2539 50.0957C26.3809 49.334 27.4092 43.2402 31.9668 39.8506C33.998 45.8174 39.7617 49.042 40.9932 49.6768C41.1712 49.7682 41.3712 49.8083 41.5707 49.7926C41.7702 49.7769 41.9615 49.706 42.123 49.5879L47.4551 45.7285C47.6054 45.6181 47.7249 45.4711 47.8022 45.3014C47.8795 45.1317 47.9121 44.945 47.8968 44.7592C47.8815 44.5733 47.8189 44.3945 47.7149 44.2397C47.6109 44.0849 47.469 43.9594 47.3027 43.875C46.6299 43.5322 41.1455 40.6631 39.3174 35.293C45.627 35.2041 50.4893 30.6973 51.4541 29.7197C51.7461 29.4404 51.835 29.0088 51.7207 28.6279L49.7021 22.3438C49.642 22.1688 49.5384 22.0119 49.401 21.888C49.2636 21.764 49.097 21.677 48.9168 21.6352C48.7365 21.5933 48.5486 21.5979 48.3707 21.6485C48.1927 21.6992 48.0306 21.7943 47.8994 21.9248C47.3535 22.4707 42.9102 26.7871 37.2607 26.876C39.1143 20.8457 36.3467 14.8408 35.7246 13.6094ZM34.0742 15.1836C34.9121 17.0371 36.6895 21.874 35.0898 26.5459C33.7656 25.9683 32.2858 25.8521 30.8877 26.2158C31.7002 22.5088 31.332 18.6494 29.8467 15.1709L34.0742 15.1836ZM15.1963 29.6562L16.5166 25.6572C18.5479 25.4287 23.6895 25.2256 27.6377 28.1963C26.6778 29.2775 26.1098 30.6504 26.0254 32.0938C22.757 30.1758 18.9705 29.328 15.1963 29.6689V29.6562ZM24.4639 48.0645L21.0488 45.5889C21.4678 43.583 22.8516 38.6318 26.9014 35.8008C27.6291 37.0485 28.7562 38.0146 30.1006 38.543C27.2767 41.0529 25.3062 44.3814 24.4639 48.0645ZM28.2598 33.3379C28.1202 32.6073 28.1718 31.8529 28.4096 31.1481C28.6474 30.4433 29.0633 29.8119 29.617 29.3152C30.1707 28.8184 30.8433 28.4732 31.5697 28.3129C32.2961 28.1527 33.0516 28.1829 33.7629 28.4006C34.4741 28.6183 35.1171 29.0162 35.6293 29.5555C36.1416 30.0949 36.5057 30.7575 36.6865 31.479C36.8673 32.2006 36.8585 32.9566 36.6611 33.6738C36.4636 34.391 36.0842 35.0449 35.5596 35.5723C35.0065 36.129 34.3122 36.5243 33.5512 36.7159C32.7902 36.9075 31.9914 36.888 31.2407 36.6595C30.49 36.431 29.8158 36.0022 29.2905 35.4192C28.7653 34.8362 28.4089 34.121 28.2598 33.3506V33.3379ZM48.166 24.6289L49.4482 28.6406C47.9502 30.0117 43.9004 33.1982 38.9619 33.1221C39.0911 31.6852 38.7479 30.2455 37.9844 29.0215C41.7549 28.6406 45.3096 27.1172 48.166 24.6289ZM37.502 36.6514C39.0254 40.1172 41.5771 43.0244 44.8271 44.9668L41.3994 47.4297C39.6348 46.4141 35.3564 43.5703 33.9092 38.8477C35.3188 38.5382 36.5838 37.7648 37.502 36.6514Z" fill="black"/>
</g>
<defs>
<clipPath id="clip0_516_615">
<rect width="65" height="65" fill="white"/>
</clipPath>
</defs>
</svg>
