<svg width="65" height="65" viewBox="0 0 65 65" fill="none" xmlns="http://www.w3.org/2000/svg">
<path d="M64.0479 32.1826L59.8965 28.0312C59.5971 27.7298 59.2411 27.4905 58.8489 27.3271C58.4568 27.1637 58.0362 27.0795 57.6113 27.0791H43.1387C42.8594 27.0791 42.5801 26.9648 42.377 26.7617L40.3965 24.7812C40.0971 24.4798 39.7411 24.2405 39.3489 24.0771C38.9568 23.9137 38.5362 23.8294 38.1113 23.8291H36.8418V21.6709C36.84 21.2913 36.7381 20.9189 36.5465 20.5912C36.3548 20.2636 36.08 19.9923 35.75 19.8047V1.0791C35.75 0.482422 35.2676 0 34.6709 0H30.3291C30.0429 0 29.7684 0.113691 29.5661 0.316062C29.3637 0.518432 29.25 0.792906 29.25 1.0791V19.8047C28.9223 19.9939 28.6502 20.2659 28.4608 20.5934C28.2714 20.921 28.1714 21.2925 28.1709 21.6709V23.8291H26.9014C26.0381 23.8291 25.2129 24.1719 24.6035 24.7812L22.6231 26.7617C22.4212 26.9643 22.1473 27.0784 21.8613 27.0791H7.38868C6.53809 27.0791 5.71289 27.4219 5.10352 28.0312L0.952152 32.1826C0.649783 32.4839 0.409994 32.8421 0.246585 33.2365C0.083176 33.6308 -0.00062559 34.0536 3.51592e-06 34.4805V57.5986C3.51592e-06 58.4619 0.342777 59.2871 0.952152 59.8965L5.10352 64.0479C5.70901 64.6554 6.53089 64.9979 7.38868 65H12.0859C12.9619 65 13.7871 64.6572 14.4092 64.0479L14.5361 63.9209H50.4639L50.5908 64.0479C50.8937 64.3517 51.2539 64.5924 51.6505 64.7559C52.0472 64.9193 52.4724 65.0023 52.9014 65H57.5986C58.4619 65 59.2871 64.6572 59.8965 64.0479L64.0479 59.8965C64.6554 59.291 64.9979 58.4691 65 57.6113V34.4805C65 33.6045 64.6572 32.7793 64.0479 32.1699V32.1826ZM31.4209 2.1582H33.5791V19.4873H31.4209V2.1709V2.1582ZM30.3291 21.6582H34.6709V23.8164H30.3291V21.6582ZM16.6943 61.75L18.5479 59.8965C18.7497 59.694 19.0236 59.5798 19.3096 59.5791H45.6777C45.9697 59.5791 46.249 59.7061 46.4522 59.9092L48.3057 61.75H16.6943ZM62.8418 57.5986C62.8418 57.8906 62.7275 58.1699 62.5244 58.3604L58.3857 62.5117C58.1839 62.7142 57.91 62.8284 57.624 62.8291H52.9141C52.6221 62.8291 52.3428 62.7148 52.1523 62.5117L51.6699 62.0801L47.9883 58.373C47.685 58.0697 47.3247 57.8294 46.9282 57.666C46.5316 57.5026 46.1066 57.4193 45.6777 57.4209H19.3096C18.4463 57.4209 17.6211 57.751 17.0244 58.373L13.3174 62.0674L12.8731 62.5117C12.6665 62.715 12.3884 62.829 12.0986 62.8291H7.40137C7.10938 62.8291 6.83008 62.7148 6.63965 62.5117L2.48828 58.373C2.28575 58.1712 2.1716 57.8973 2.1709 57.6113V34.4678C2.1709 34.1758 2.28516 33.9092 2.48828 33.7061L6.62696 29.5547C6.82879 29.3522 7.10275 29.238 7.38868 29.2373H21.8613C22.7119 29.2373 23.5371 28.8945 24.1465 28.2852L26.127 26.3047C26.3288 26.1022 26.6027 25.988 26.8887 25.9873H38.0986C38.3906 25.9873 38.6699 26.1016 38.8604 26.3047L40.8535 28.2852C41.1529 28.5866 41.5089 28.8259 41.9011 28.9893C42.2932 29.1527 42.7138 29.237 43.1387 29.2373H57.6113C57.8906 29.2373 58.1699 29.3516 58.3731 29.5547L62.5117 33.6934C62.6139 33.7971 62.6946 33.9201 62.749 34.0552C62.8035 34.1903 62.8307 34.3348 62.8291 34.4805V57.5859L62.8418 57.5986ZM8.6709 37.9209H10.8291C11.1147 37.9226 11.3977 37.8676 11.6619 37.7591C11.926 37.6506 12.166 37.4907 12.3679 37.2888C12.5698 37.0869 12.7297 36.8469 12.8382 36.5828C12.9467 36.3186 13.0017 36.0356 13 35.75V33.5918C13.0017 33.3073 12.9471 33.0253 12.8394 32.762C12.7317 32.4987 12.573 32.2593 12.3724 32.0575C12.1718 31.8557 11.9333 31.6956 11.6707 31.5864C11.408 31.4771 11.1263 31.4209 10.8418 31.4209H8.65821C8.37372 31.4192 8.09171 31.4738 7.8284 31.5815C7.56509 31.6892 7.32567 31.8479 7.12391 32.0485C6.92216 32.2491 6.76205 32.4876 6.6528 32.7502C6.54354 33.0129 6.4873 33.2946 6.48731 33.5791V35.75C6.48731 36.3224 6.71469 36.8713 7.11943 37.2761C7.52417 37.6808 8.07312 37.9082 8.64551 37.9082L8.6709 37.9209ZM8.6709 33.5791H10.8291V35.75H8.6709V33.5918V33.5791ZM21.6709 31.4209H19.5C18.9276 31.4209 18.3787 31.6483 17.9739 32.053C17.5692 32.4578 17.3418 33.0067 17.3418 33.5791V35.75C17.3418 36.3224 17.5692 36.8713 17.9739 37.2761C18.3787 37.6808 18.9276 37.9082 19.5 37.9082H21.6582C21.9427 37.9099 22.2247 37.8553 22.488 37.7476C22.7513 37.6399 22.9907 37.4812 23.1925 37.2806C23.3943 37.08 23.5544 36.8415 23.6636 36.5788C23.7729 36.3162 23.8291 36.0345 23.8291 35.75V33.5918C23.8308 33.3073 23.7762 33.0253 23.6685 32.762C23.5608 32.4987 23.4021 32.2593 23.2015 32.0575C23.0009 31.8557 22.7624 31.6956 22.4998 31.5864C22.2371 31.4771 21.9554 31.4209 21.6709 31.4209ZM19.5 35.75V33.5918H21.6582V35.75H19.5ZM28.1709 37.9209H30.3291C30.6147 37.9226 30.8977 37.8676 31.1619 37.7591C31.426 37.6506 31.666 37.4907 31.8679 37.2888C32.0698 37.0869 32.2297 36.8469 32.3382 36.5828C32.4467 36.3186 32.5017 36.0356 32.5 35.75V33.5918C32.5017 33.3073 32.4471 33.0253 32.3394 32.762C32.2317 32.4987 32.073 32.2593 31.8724 32.0575C31.6718 31.8557 31.4333 31.6956 31.1707 31.5864C30.908 31.4771 30.6263 31.4209 30.3418 31.4209H28.1709C27.8864 31.4192 27.6044 31.4738 27.3411 31.5815C27.0778 31.6892 26.8384 31.8479 26.6366 32.0485C26.4349 32.2491 26.2747 32.4876 26.1655 32.7502C26.0562 33.0129 26 33.2946 26 33.5791V35.75C26 36.3224 26.2274 36.8713 26.6321 37.2761C27.0369 37.6808 27.5858 37.9082 28.1582 37.9082L28.1709 37.9209ZM28.1709 33.5791H30.3291V35.75H28.1709V33.5918V33.5791ZM39 31.4209H36.8418C36.5573 31.4192 36.2753 31.4738 36.012 31.5815C35.7487 31.6892 35.5093 31.8479 35.3075 32.0485C35.1058 32.2491 34.9456 32.4876 34.8364 32.7502C34.7271 33.0129 34.6709 33.2946 34.6709 33.5791V35.75C34.6709 36.3224 34.8983 36.8713 35.303 37.2761C35.7078 37.6808 36.2567 37.9082 36.8291 37.9082H39C39.5724 37.9082 40.1213 37.6808 40.5261 37.2761C40.9308 36.8713 41.1582 36.3224 41.1582 35.75V33.5918C41.1599 33.3073 41.1053 33.0253 40.9976 32.762C40.8899 32.4987 40.7312 32.2593 40.5306 32.0575C40.33 31.8557 40.0915 31.6956 39.8289 31.5864C39.5662 31.4771 39.2845 31.4209 39 31.4209ZM36.8418 35.75V33.5918H39V35.75H36.8418ZM47.6709 31.4209H45.5C44.9276 31.4209 44.3787 31.6483 43.9739 32.053C43.5692 32.4578 43.3418 33.0067 43.3418 33.5791V35.75C43.3418 36.3224 43.5692 36.8713 43.9739 37.2761C44.3787 37.6808 44.9276 37.9082 45.5 37.9082H47.6582C47.9427 37.9099 48.2247 37.8553 48.488 37.7476C48.7513 37.6399 48.9907 37.4812 49.1925 37.2806C49.3943 37.08 49.5544 36.8415 49.6636 36.5788C49.7729 36.3162 49.8291 36.0345 49.8291 35.75V33.5918C49.8308 33.3073 49.7762 33.0253 49.6685 32.762C49.5608 32.4987 49.4021 32.2593 49.2015 32.0575C49.0009 31.8557 48.7624 31.6956 48.4998 31.5864C48.2371 31.4771 47.9554 31.4209 47.6709 31.4209ZM45.5 35.75V33.5918H47.6582V35.75H45.5ZM56.3291 31.4209H54.1709C53.8864 31.4192 53.6044 31.4738 53.3411 31.5815C53.0778 31.6892 52.8384 31.8479 52.6366 32.0485C52.4349 32.2491 52.2747 32.4876 52.1655 32.7502C52.0562 33.0129 52 33.2946 52 33.5791V35.75C52 36.3224 52.2274 36.8713 52.6321 37.2761C53.0369 37.6808 53.5858 37.9082 54.1582 37.9082H56.3291C56.6136 37.9099 56.8956 37.8553 57.1589 37.7476C57.4222 37.6399 57.6616 37.4812 57.8634 37.2806C58.0652 37.08 58.2253 36.8415 58.3345 36.5788C58.4438 36.3162 58.5 36.0345 58.5 35.75V33.5918C58.5017 33.3073 58.4471 33.0253 58.3394 32.762C58.2317 32.4987 58.073 32.2593 57.8724 32.0575C57.6718 31.8557 57.4333 31.6956 57.1707 31.5864C56.908 31.4771 56.6263 31.4209 56.3418 31.4209H56.3291ZM54.1709 35.75V33.5918H56.3291V35.75H54.1709ZM21.6709 40.0791H19.5C19.2155 40.0791 18.9338 40.1353 18.6712 40.2446C18.4085 40.3538 18.17 40.514 17.9694 40.7157C17.7688 40.9175 17.6101 41.1569 17.5024 41.4202C17.3947 41.6835 17.3401 41.9655 17.3418 42.25V44.4082C17.3401 44.6927 17.3947 44.9747 17.5024 45.238C17.6101 45.5013 17.7688 45.7407 17.9694 45.9425C18.17 46.1442 18.4085 46.3044 18.6712 46.4136C18.9338 46.5229 19.2155 46.5791 19.5 46.5791H21.6582C21.9427 46.5808 22.2247 46.5262 22.488 46.4185C22.7513 46.3108 22.9907 46.1521 23.1925 45.9515C23.3943 45.7509 23.5544 45.5124 23.6636 45.2498C23.7729 44.9871 23.8291 44.7054 23.8291 44.4209V42.25C23.8291 41.6776 23.6017 41.1287 23.197 40.7239C22.7922 40.3192 22.2433 40.0918 21.6709 40.0918V40.0791ZM19.5 44.4336V42.2627H21.6582V44.4209H19.5V44.4336ZM13 40.0791H8.6709C8.38535 40.0774 8.10229 40.1324 7.83815 40.2409C7.574 40.3494 7.33401 40.5093 7.13209 40.7112C6.93017 40.9131 6.77032 41.1531 6.66182 41.4172C6.55332 41.6814 6.49832 41.9644 6.5 42.25V44.4082C6.49833 44.6927 6.55292 44.9747 6.66063 45.238C6.76834 45.5013 6.92705 45.7407 7.12762 45.9425C7.3282 46.1442 7.56668 46.3044 7.82935 46.4136C8.09203 46.5229 8.37372 46.5791 8.65821 46.5791H13C13.5724 46.5791 14.1213 46.3517 14.5261 45.947C14.9308 45.5422 15.1582 44.9933 15.1582 44.4209V42.25C15.1582 41.6776 14.9308 41.1287 14.5261 40.7239C14.1213 40.3192 13.5724 40.0918 13 40.0918V40.0791ZM8.6709 44.4336V42.2627H13V44.4209H8.6709V44.4336ZM28.1709 46.5918H30.3291C30.6147 46.5935 30.8977 46.5385 31.1619 46.43C31.426 46.3215 31.666 46.1616 31.8679 45.9597C32.0698 45.7578 32.2297 45.5178 32.3382 45.2537C32.4467 44.9895 32.5017 44.7065 32.5 44.4209V42.25C32.5 41.6776 32.2726 41.1287 31.8679 40.7239C31.4631 40.3192 30.9142 40.0918 30.3418 40.0918H28.1709C27.8864 40.0901 27.6044 40.1447 27.3411 40.2524C27.0778 40.3601 26.8384 40.5188 26.6366 40.7194C26.4349 40.92 26.2747 41.1585 26.1655 41.4212C26.0562 41.6838 26 41.9655 26 42.25V44.4082C25.9983 44.6927 26.0529 44.9747 26.1606 45.238C26.2683 45.5013 26.427 45.7407 26.6276 45.9425C26.8282 46.1442 27.0667 46.3044 27.3294 46.4136C27.592 46.5229 27.8737 46.5791 28.1582 46.5791L28.1709 46.5918ZM28.1709 42.25H30.3291V44.4082H28.1709V42.25ZM39 40.0791H36.8418C36.5562 40.0774 36.2732 40.1324 36.009 40.2409C35.7449 40.3494 35.5049 40.5093 35.303 40.7112C35.1011 40.9131 34.9412 41.1531 34.8327 41.4172C34.7242 41.6814 34.6692 41.9644 34.6709 42.25V44.4082C34.6692 44.6927 34.7238 44.9747 34.8315 45.238C34.9392 45.5013 35.0979 45.7407 35.2985 45.9425C35.4991 46.1442 35.7376 46.3044 36.0003 46.4136C36.2629 46.5229 36.5446 46.5791 36.8291 46.5791H39C39.5724 46.5791 40.1213 46.3517 40.5261 45.947C40.9308 45.5422 41.1582 44.9933 41.1582 44.4209V42.25C41.1582 41.6776 40.9308 41.1287 40.5261 40.7239C40.1213 40.3192 39.5724 40.0918 39 40.0918V40.0791ZM36.8418 44.4209V42.25H39V44.4082H36.8418V44.4209ZM47.6709 40.0791H45.5C45.2155 40.0791 44.9338 40.1353 44.6712 40.2446C44.4085 40.3538 44.17 40.514 43.9694 40.7157C43.7688 40.9175 43.6101 41.1569 43.5024 41.4202C43.3947 41.6835 43.3401 41.9655 43.3418 42.25V44.4082C43.3401 44.6927 43.3947 44.9747 43.5024 45.238C43.6101 45.5013 43.7688 45.7407 43.9694 45.9425C44.17 46.1442 44.4085 46.3044 44.6712 46.4136C44.9338 46.5229 45.2155 46.5791 45.5 46.5791H47.6582C47.9427 46.5808 48.2247 46.5262 48.488 46.4185C48.7513 46.3108 48.9907 46.1521 49.1925 45.9515C49.3943 45.7509 49.5544 45.5124 49.6636 45.2498C49.7729 44.9871 49.8291 44.7054 49.8291 44.4209V42.25C49.8291 41.6776 49.6017 41.1287 49.197 40.7239C48.7922 40.3192 48.2433 40.0918 47.6709 40.0918V40.0791ZM45.5 44.4336V42.2627H47.6582V44.4209H45.5V44.4336ZM56.3291 40.0791H54.1709C53.8853 40.0774 53.6023 40.1324 53.3381 40.2409C53.074 40.3494 52.834 40.5093 52.6321 40.7112C52.4302 40.9131 52.2703 41.1531 52.1618 41.4172C52.0533 41.6814 51.9983 41.9644 52 42.25V44.4082C51.9983 44.6927 52.0529 44.9747 52.1606 45.238C52.2683 45.5013 52.427 45.7407 52.6276 45.9425C52.8282 46.1442 53.0667 46.3044 53.3294 46.4136C53.592 46.5229 53.8737 46.5791 54.1582 46.5791H56.3291C56.6136 46.5808 56.8956 46.5262 57.1589 46.4185C57.4222 46.3108 57.6616 46.1521 57.8634 45.9515C58.0652 45.7509 58.2253 45.5124 58.3345 45.2498C58.4438 44.9871 58.5 44.7054 58.5 44.4209V42.25C58.5 41.6776 58.2726 41.1287 57.8679 40.7239C57.4631 40.3192 56.9142 40.0918 56.3418 40.0918L56.3291 40.0791ZM54.1709 44.4209V42.25H56.3291V44.4082H54.1709V44.4209ZM21.6709 48.75H19.5C18.9276 48.75 18.3787 48.9774 17.9739 49.3821C17.5692 49.7869 17.3418 50.3358 17.3418 50.9082V53.0791C17.3401 53.3636 17.3947 53.6456 17.5024 53.9089C17.6101 54.1722 17.7688 54.4116 17.9694 54.6134C18.17 54.8152 18.4085 54.9753 18.6712 55.0845C18.9338 55.1938 19.2155 55.25 19.5 55.25H21.6582C21.9427 55.2517 22.2247 55.1971 22.488 55.0894C22.7513 54.9817 22.9907 54.823 23.1925 54.6224C23.3943 54.4218 23.5544 54.1833 23.6636 53.9206C23.7729 53.658 23.8291 53.3763 23.8291 53.0918V50.9082C23.8308 50.6237 23.7762 50.3417 23.6685 50.0784C23.5608 49.8151 23.4021 49.5757 23.2015 49.3739C23.0009 49.1722 22.7624 49.012 22.4998 48.9028C22.2371 48.7935 21.9554 48.7373 21.6709 48.7373V48.75ZM19.5 53.0791V50.9209H21.6582V53.0791H19.5ZM13 48.75H8.6709C8.38642 48.7483 8.10441 48.8029 7.84109 48.9106C7.57778 49.0183 7.33836 49.177 7.13661 49.3776C6.93485 49.5782 6.77475 49.8167 6.66549 50.0793C6.55624 50.342 6.5 50.6237 6.5 50.9082V53.0791C6.49833 53.3636 6.55292 53.6456 6.66063 53.9089C6.76834 54.1722 6.92705 54.4116 7.12762 54.6134C7.3282 54.8152 7.56668 54.9753 7.82935 55.0845C8.09203 55.1938 8.37372 55.25 8.65821 55.25H13C13.5724 55.25 14.1213 55.0226 14.5261 54.6179C14.9308 54.2131 15.1582 53.6642 15.1582 53.0918V50.9082C15.1599 50.6237 15.1053 50.3417 14.9976 50.0784C14.8899 49.8151 14.7312 49.5757 14.5306 49.3739C14.33 49.1722 14.0915 49.012 13.8289 48.9028C13.5662 48.7935 13.2845 48.7373 13 48.7373V48.75ZM8.6709 53.0791V50.9209H13V53.0791H8.6709ZM39 48.75H28.1709C27.8864 48.7483 27.6044 48.8029 27.3411 48.9106C27.0778 49.0183 26.8384 49.177 26.6366 49.3776C26.4349 49.5782 26.2747 49.8167 26.1655 50.0793C26.0562 50.342 26 50.6237 26 50.9082V53.0791C25.9983 53.3636 26.0529 53.6456 26.1606 53.9089C26.2683 54.1722 26.427 54.4116 26.6276 54.6134C26.8282 54.8152 27.0667 54.9753 27.3294 55.0845C27.592 55.1938 27.8737 55.25 28.1582 55.25H39C39.5724 55.25 40.1213 55.0226 40.5261 54.6179C40.9308 54.2131 41.1582 53.6642 41.1582 53.0918V50.9082C41.1599 50.6237 41.1053 50.3417 40.9976 50.0784C40.8899 49.8151 40.7312 49.5757 40.5306 49.3739C40.33 49.1722 40.0915 49.012 39.8289 48.9028C39.5662 48.7935 39.2845 48.7373 39 48.7373V48.75ZM39 53.0791H28.1709V50.9209H39V53.0791ZM47.6709 48.75H45.5C44.9276 48.75 44.3787 48.9774 43.9739 49.3821C43.5692 49.7869 43.3418 50.3358 43.3418 50.9082V53.0791C43.3401 53.3636 43.3947 53.6456 43.5024 53.9089C43.6101 54.1722 43.7688 54.4116 43.9694 54.6134C44.17 54.8152 44.4085 54.9753 44.6712 55.0845C44.9338 55.1938 45.2155 55.25 45.5 55.25H47.6582C47.9427 55.2517 48.2247 55.1971 48.488 55.0894C48.7513 54.9817 48.9907 54.823 49.1925 54.6224C49.3943 54.4218 49.5544 54.1833 49.6636 53.9206C49.7729 53.658 49.8291 53.3763 49.8291 53.0918V50.9082C49.8308 50.6237 49.7762 50.3417 49.6685 50.0784C49.5608 49.8151 49.4021 49.5757 49.2015 49.3739C49.0009 49.1722 48.7624 49.012 48.4998 48.9028C48.2371 48.7935 47.9554 48.7373 47.6709 48.7373V48.75ZM45.5 53.0791V50.9209H47.6582V53.0791H45.5ZM56.3291 48.75H54.1709C53.8864 48.7483 53.6044 48.8029 53.3411 48.9106C53.0778 49.0183 52.8384 49.177 52.6366 49.3776C52.4349 49.5782 52.2747 49.8167 52.1655 50.0793C52.0562 50.342 52 50.6237 52 50.9082V53.0791C51.9983 53.3636 52.0529 53.6456 52.1606 53.9089C52.2683 54.1722 52.427 54.4116 52.6276 54.6134C52.8282 54.8152 53.0667 54.9753 53.3294 55.0845C53.592 55.1938 53.8737 55.25 54.1582 55.25H56.3291C56.6136 55.2517 56.8956 55.1971 57.1589 55.0894C57.4222 54.9817 57.6616 54.823 57.8634 54.6224C58.0652 54.4218 58.2253 54.1833 58.3345 53.9206C58.4438 53.658 58.5 53.3763 58.5 53.0918V50.9082C58.5017 50.6237 58.4471 50.3417 58.3394 50.0784C58.2317 49.8151 58.073 49.5757 57.8724 49.3739C57.6718 49.1722 57.4333 49.012 57.1707 48.9028C56.908 48.7935 56.6263 48.7373 56.3418 48.7373L56.3291 48.75ZM54.1709 53.0791V50.9209H56.3291V53.0791H54.1709Z" fill="black"/>
</svg>
