<svg width="65" height="65" viewBox="0 0 65 65" fill="none" xmlns="http://www.w3.org/2000/svg">
<path d="M61.75 0H3.25C2.38805 0 1.5614 0.34241 0.951903 0.951903C0.34241 1.5614 0 2.38805 0 3.25L0 46.5791C0 47.4411 0.34241 48.2677 0.951903 48.8772C1.5614 49.4867 2.38805 49.8291 3.25 49.8291H23.8291V58.5H16.25C15.1029 58.5033 14.0037 58.9605 13.1926 59.7717C12.3814 60.5828 11.9242 61.682 11.9209 62.8291V63.9209C11.9209 64.2071 12.0346 64.4816 12.237 64.6839C12.4393 64.8863 12.7138 65 13 65H52C52.2862 65 52.5607 64.8863 52.763 64.6839C52.9654 64.4816 53.0791 64.2071 53.0791 63.9209V62.8291C53.0758 61.682 52.6186 60.5828 51.8074 59.7717C50.9963 58.9605 49.8971 58.5033 48.75 58.5H41.1709V49.8291H61.75C62.6098 49.8291 63.4345 49.4884 64.0436 48.8817C64.6527 48.2749 64.9966 47.4515 65 46.5918V3.25C65 2.38805 64.6576 1.5614 64.0481 0.951903C63.4386 0.34241 62.612 0 61.75 0ZM48.75 60.6709C49.3224 60.6709 49.8713 60.8983 50.2761 61.303C50.6808 61.7078 50.9082 62.2567 50.9082 62.8291H14.0918C14.0918 62.2567 14.3192 61.7078 14.7239 61.303C15.1287 60.8983 15.6776 60.6709 16.25 60.6709H48.75ZM26 58.5V49.8291H39V58.5H26ZM62.8291 46.5791C62.8291 47.1758 62.3467 47.6709 61.75 47.6709H3.25C3.10722 47.6709 2.96585 47.6426 2.83409 47.5876C2.70234 47.5325 2.58281 47.4519 2.48244 47.3504C2.38206 47.2488 2.30285 47.1283 2.24937 46.996C2.19589 46.8636 2.16922 46.7219 2.1709 46.5791V41.1709H62.8291V46.5791ZM62.8291 39H2.1709V6.5H62.8291V39ZM62.8291 4.3418H2.1709V3.25C2.1709 2.65332 2.65332 2.1709 3.25 2.1709H61.75C62.3467 2.1709 62.8291 2.65332 62.8291 3.25V4.3291V4.3418ZM5.72559 45.1953C5.93216 45.3984 6.21028 45.5123 6.5 45.5123C6.78972 45.5123 7.06784 45.3984 7.27441 45.1953C7.36328 45.0811 7.43945 44.9541 7.50293 44.8271C7.61719 44.5732 7.61719 44.2686 7.50293 44.002C7.43945 43.875 7.37598 43.748 7.27441 43.6465C7.06342 43.452 6.78696 43.344 6.5 43.344C6.21304 43.344 5.93658 43.452 5.72559 43.6465C5.63672 43.748 5.56055 43.875 5.49707 44.002C5.43932 44.1318 5.40948 44.2724 5.40948 44.4146C5.40948 44.5567 5.43932 44.6973 5.49707 44.8271C5.56055 44.9541 5.62402 45.0811 5.72559 45.1826V45.1953ZM10.8291 45.5C10.9815 45.5165 11.1357 45.5007 11.2816 45.4537C11.4275 45.4067 11.5618 45.3295 11.6759 45.2271C11.79 45.1247 11.8813 44.9994 11.9437 44.8594C12.0062 44.7194 12.0385 44.5678 12.0385 44.4146C12.0385 44.2613 12.0062 44.1097 11.9437 43.9697C11.8813 43.8297 11.79 43.7044 11.6759 43.602C11.5618 43.4996 11.4275 43.4224 11.2816 43.3754C11.1357 43.3284 10.9815 43.3126 10.8291 43.3291C10.5615 43.3581 10.314 43.4849 10.1341 43.6853C9.95432 43.8856 9.85487 44.1453 9.85487 44.4146C9.85487 44.6838 9.95432 44.9435 10.1341 45.1438C10.314 45.3442 10.5615 45.471 10.8291 45.5ZM15.1709 45.5C15.2344 45.5 15.3105 45.5 15.3867 45.4746C15.4502 45.4746 15.5137 45.4492 15.5771 45.4111C15.6406 45.3857 15.7041 45.3604 15.7676 45.3096L15.9199 45.1826C16.1248 44.9813 16.2432 44.7081 16.25 44.4209C16.2461 44.2433 16.2004 44.0691 16.1166 43.9125C16.0327 43.7559 15.9132 43.6213 15.7676 43.5195C15.7041 43.4688 15.6406 43.4434 15.5771 43.418L15.3867 43.3545C15.0312 43.2783 14.6631 43.3926 14.3965 43.6465C14.3076 43.748 14.2188 43.875 14.168 44.002C14.0846 44.1992 14.0618 44.4168 14.1025 44.6271C14.1432 44.8373 14.2455 45.0307 14.3965 45.1826C14.5983 45.3851 14.8723 45.4993 15.1582 45.5H15.1709ZM33.5791 53.0791H31.4209C31.133 53.0791 30.8569 53.1935 30.6534 53.397C30.4498 53.6006 30.3354 53.8767 30.3354 54.1646C30.3354 54.4524 30.4498 54.7285 30.6534 54.9321C30.8569 55.1356 31.133 55.25 31.4209 55.25H33.5791C33.8653 55.25 34.1398 55.1363 34.3421 54.9339C34.5445 54.7316 34.6582 54.4571 34.6582 54.1709C34.6582 53.8847 34.5445 53.6102 34.3421 53.4079C34.1398 53.2055 33.8653 53.0918 33.5791 53.0918V53.0791ZM5.12891 17.3037C5.50977 17.4053 5.91602 17.3037 6.18262 17.0117L9.43262 13.7617C9.61543 13.556 9.71275 13.2882 9.70465 13.0131C9.69655 12.738 9.58365 12.4764 9.38905 12.2818C9.19445 12.0872 8.93285 11.9743 8.65777 11.9663C8.38268 11.9582 8.11489 12.0555 7.90918 12.2383L4.63379 15.4883C4.49726 15.6219 4.39864 15.7893 4.34802 15.9735C4.29739 16.1577 4.29656 16.3521 4.34562 16.5367C4.39468 16.7213 4.49186 16.8896 4.62725 17.0243C4.76264 17.1591 4.93137 17.2555 5.11621 17.3037H5.12891ZM10.918 10.1562L11.0195 10.3594L11.1465 10.5244C11.277 10.6474 11.4347 10.7379 11.6067 10.7886C11.7788 10.8394 11.9603 10.8489 12.1367 10.8164L12.3271 10.7402C12.4033 10.7275 12.4541 10.6895 12.5176 10.6514L12.6826 10.5244L12.8096 10.3594C12.8604 10.2959 12.8857 10.2324 12.9111 10.1562C12.9492 10.1055 12.9619 10.0293 12.9746 9.96582L13 9.75C12.9928 9.46542 12.8796 9.19378 12.6826 8.98828L12.5176 8.86133C12.4668 8.81055 12.3906 8.77246 12.3271 8.74707L12.1367 8.68359C11.7812 8.62012 11.4131 8.72168 11.1465 8.97559C11.0235 9.10614 10.933 9.26381 10.8823 9.43584C10.8315 9.60787 10.822 9.78943 10.8545 9.96582L10.918 10.1562ZM5.45898 21.9502C5.50843 22.1325 5.60488 22.2987 5.7387 22.4321C5.87252 22.5655 6.03901 22.6614 6.22152 22.7102C6.40403 22.759 6.59616 22.7591 6.77871 22.7104C6.96125 22.6617 7.12781 22.5659 7.26172 22.4326L19.1826 10.5117C19.2925 10.414 19.3813 10.2949 19.4435 10.1617C19.5058 10.0284 19.5401 9.88386 19.5444 9.73687C19.5487 9.58988 19.523 9.44355 19.4687 9.30688C19.4144 9.1702 19.3328 9.04606 19.2288 8.94207C19.1248 8.83809 19.0007 8.75646 18.864 8.70219C18.7274 8.64792 18.581 8.62215 18.434 8.62648C18.287 8.63081 18.1425 8.66513 18.0092 8.72735C17.876 8.78957 17.7569 8.87836 17.6592 8.98828L5.72559 20.8965C5.58967 21.034 5.49322 21.2056 5.44632 21.3932C5.39942 21.5808 5.4038 21.7776 5.45898 21.9629V21.9502Z" fill="black"/>
</svg>
