<svg width="65" height="65" viewBox="0 0 65 65" fill="none" xmlns="http://www.w3.org/2000/svg">
<path d="M62.8418 2.15828H60.6709V1.09187C60.6709 0.495192 60.1758 0.01277 59.5791 0.01277H55.25C54.9638 0.01277 54.6893 0.126461 54.487 0.328832C54.2846 0.531202 54.1709 0.805676 54.1709 1.09187V2.18367H52V1.07918C52 0.482497 51.5176 7.46868e-05 50.9209 7.46868e-05H33.5791C33.2929 7.46868e-05 33.0184 0.113765 32.8161 0.316136C32.6137 0.518507 32.5 0.792981 32.5 1.07918V2.17097H30.3418V1.07918C30.3418 0.482497 29.8467 7.46868e-05 29.25 7.46868e-05H24.9209C24.7781 -0.00160513 24.6364 0.0250664 24.504 0.0785438C24.3717 0.132021 24.2512 0.211241 24.1496 0.311612C24.0481 0.411984 23.9675 0.531511 23.9124 0.663268C23.8574 0.795025 23.8291 0.936392 23.8291 1.07918V2.17097H21.6709V1.07918C21.6709 0.482497 21.1758 7.46868e-05 20.5791 7.46868e-05H16.25C15.9638 7.46868e-05 15.6893 0.113765 15.487 0.316136C15.2846 0.518507 15.1709 0.792981 15.1709 1.07918V2.17097H2.1582C1.588 2.17096 1.04097 2.3966 0.636594 2.7986C0.232215 3.2006 0.00335411 3.74629 0 4.31648L0 62.8419C0 63.4143 0.227381 63.9632 0.632123 64.368C1.03686 64.7727 1.58581 65.0001 2.1582 65.0001H62.8418C63.4142 65.0001 63.9631 64.7727 64.3679 64.368C64.7726 63.9632 65 63.4143 65 62.8419V4.31648C65 3.74409 64.7726 3.19514 64.3679 2.7904C63.9631 2.38566 63.4142 2.15828 62.8418 2.15828ZM56.3291 2.15828H58.5V5.40828H56.3418V2.18367L56.3291 2.15828ZM34.6709 2.15828H49.8291V7.57918H34.6709V2.17097V2.15828ZM26 2.15828H28.1582V5.40828H26V2.18367V2.15828ZM17.3291 2.15828H19.5V7.57918H17.3418V2.17097L17.3291 2.15828ZM62.8418 40.0919H59.5918C59.449 40.0919 59.3076 40.1202 59.1759 40.1752C59.0441 40.2302 58.9246 40.3109 58.8242 40.4124C58.7239 40.514 58.6446 40.6344 58.5912 40.7668C58.5377 40.8992 58.511 41.0409 58.5127 41.1837V46.5919H39V31.421H58.5V36.8165C58.5 37.4132 58.9824 37.9083 59.5791 37.9083H62.8418V40.0665V40.0919ZM62.8418 35.7628H60.6836V31.4337C60.6853 31.1481 60.6303 30.8651 60.5218 30.6009C60.4133 30.3368 60.2534 30.0968 60.0515 29.8949C59.8496 29.6929 59.6096 29.5331 59.3455 29.4246C59.0813 29.3161 58.7983 29.2611 58.5127 29.2628H39C38.4276 29.2628 37.8787 29.4902 37.4739 29.8949C37.0692 30.2996 36.8418 30.8486 36.8418 31.421V46.5919C36.8401 46.8764 36.8947 47.1584 37.0024 47.4217C37.1101 47.685 37.2688 47.9244 37.4694 48.1262C37.67 48.3279 37.9085 48.488 38.1712 48.5973C38.4338 48.7065 38.7155 48.7628 39 48.7628H58.5C59.0724 48.7628 59.6213 48.5354 60.0261 48.1306C60.4308 47.7259 60.6582 47.177 60.6582 46.6046V42.2628H62.8418V62.8419H2.1709V4.32918H15.1709V7.57918C15.1692 7.86366 15.2238 8.14567 15.3315 8.40898C15.4392 8.6723 15.5979 8.91172 15.7985 9.11347C15.9991 9.31522 16.2376 9.47533 16.5003 9.58459C16.7629 9.69384 17.0446 9.75008 17.3291 9.75008V11.9083C17.3291 12.1962 17.4435 12.4722 17.647 12.6758C17.8506 12.8794 18.1267 12.9937 18.4146 12.9937C18.7024 12.9937 18.9785 12.8794 19.1821 12.6758C19.3856 12.4722 19.5 12.1962 19.5 11.9083V9.75008C20.0724 9.75008 20.6213 9.52269 21.0261 9.11795C21.4308 8.71321 21.6582 8.16426 21.6582 7.59187V4.31648H23.8291V5.40828C23.8291 5.69277 23.8853 5.97445 23.9946 6.23713C24.1038 6.49981 24.264 6.73829 24.4657 6.93886C24.6675 7.13944 24.9069 7.29815 25.1702 7.40586C25.4335 7.51357 25.7155 7.56815 26 7.56648H28.1582C28.4427 7.56815 28.7247 7.51357 28.988 7.40586C29.2513 7.29815 29.4907 7.13944 29.6925 6.93886C29.8943 6.73829 30.0544 6.49981 30.1636 6.23713C30.2729 5.97445 30.3291 5.69277 30.3291 5.40828V4.31648H32.5V7.56648C32.4983 7.85097 32.5529 8.13298 32.6606 8.39629C32.7683 8.6596 32.927 8.89902 33.1276 9.10077C33.3282 9.30253 33.5667 9.46264 33.8293 9.57189C34.092 9.68114 34.3737 9.73738 34.6582 9.73738H49.8291C50.1136 9.73905 50.3956 9.68446 50.6589 9.57675C50.9222 9.46904 51.1616 9.31034 51.3634 9.10976C51.5651 8.90919 51.7253 8.6707 51.8345 8.40803C51.9438 8.14535 52 7.86367 52 7.57918V4.31648H54.1582V5.40828C54.1582 5.69277 54.2144 5.97445 54.3237 6.23713C54.4329 6.49981 54.5931 6.73829 54.7948 6.93886C54.9966 7.13944 55.236 7.29815 55.4993 7.40586C55.7626 7.51357 56.0446 7.56815 56.3291 7.56648H58.5C59.0724 7.56648 59.6213 7.3391 60.0261 6.93436C60.4308 6.52962 60.6582 5.98067 60.6582 5.40828V4.31648H62.8418V35.7374V35.7628ZM11.9209 8.67097C12.0835 8.67281 12.2444 8.63832 12.3919 8.57002C12.5395 8.50172 12.6699 8.40134 12.7737 8.2762C12.8774 8.15105 12.952 8.00432 12.9918 7.84669C13.0316 7.68907 13.0357 7.52455 13.0038 7.36513C12.972 7.20571 12.9049 7.05542 12.8075 6.92524C12.7101 6.79506 12.5849 6.68827 12.4409 6.61267C12.297 6.53707 12.138 6.49457 11.9756 6.48827C11.8131 6.48197 11.6513 6.51202 11.502 6.57625C11.3006 6.65806 11.1286 6.7988 11.0085 6.98002C10.8884 7.16125 10.8259 7.37451 10.8291 7.59187C10.8291 7.73466 10.8574 7.87602 10.9124 8.00778C10.9675 8.13954 11.0481 8.25906 11.1496 8.35944C11.2512 8.45981 11.3717 8.53903 11.504 8.5925C11.6364 8.64598 11.7781 8.67265 11.9209 8.67097ZM5.4209 8.67097C5.58346 8.67281 5.74439 8.63832 5.89192 8.57002C6.03945 8.50172 6.16987 8.40134 6.27365 8.2762C6.37743 8.15105 6.45195 8.00432 6.49178 7.84669C6.5316 7.68907 6.53572 7.52455 6.50384 7.36513C6.47196 7.20571 6.40487 7.05542 6.30749 6.92524C6.2101 6.79506 6.08487 6.68827 5.94095 6.61267C5.79702 6.53707 5.63802 6.49457 5.47557 6.48827C5.31312 6.48197 5.15131 6.51202 5.00195 6.57625C4.80055 6.65806 4.62855 6.7988 4.50849 6.98002C4.38843 7.16125 4.3259 7.37451 4.3291 7.59187C4.32909 7.73466 4.35742 7.87602 4.41244 8.00778C4.46746 8.13954 4.54809 8.25906 4.64964 8.35944C4.75119 8.45981 4.87165 8.53903 5.00404 8.5925C5.13644 8.64598 5.27812 8.67265 5.4209 8.67097ZM6.5 39.0001H8.6582C8.94269 39.0017 9.2247 38.9472 9.48801 38.8394C9.75132 38.7317 9.99074 38.573 10.1925 38.3725C10.3943 38.1719 10.5544 37.9334 10.6636 37.6707C10.7729 37.408 10.8291 37.1264 10.8291 36.8419V17.3165C10.8291 16.7441 10.6017 16.1951 10.197 15.7904C9.79224 15.3857 9.24329 15.1583 8.6709 15.1583H6.5C5.92761 15.1583 5.37866 15.3857 4.97392 15.7904C4.56918 16.1951 4.3418 16.7441 4.3418 17.3165V36.8165C4.34012 37.101 4.39471 37.383 4.50242 37.6463C4.61013 37.9096 4.76884 38.149 4.96941 38.3508C5.16999 38.5525 5.40847 38.7126 5.67115 38.8219C5.93382 38.9311 6.21551 38.9874 6.5 38.9874V39.0001ZM6.5 17.3292H8.6582V36.8292H6.5V17.3292ZM15.1709 39.0001H17.3291C17.6136 39.0017 17.8956 38.9472 18.1589 38.8394C18.4222 38.7317 18.6616 38.573 18.8634 38.3725C19.0651 38.1719 19.2253 37.9334 19.3345 37.6707C19.4438 37.408 19.5 37.1264 19.5 36.8419V17.3165C19.5 16.7441 19.2726 16.1951 18.8679 15.7904C18.4631 15.3857 17.9142 15.1583 17.3418 15.1583H15.1709C14.8864 15.1566 14.6044 15.2112 14.3411 15.3189C14.0778 15.4266 13.8384 15.5853 13.6366 15.7859C13.4349 15.9865 13.2747 16.225 13.1655 16.4876C13.0562 16.7503 13 17.032 13 17.3165V36.8165C12.9983 37.101 13.0529 37.383 13.1606 37.6463C13.2683 37.9096 13.427 38.149 13.6276 38.3508C13.8282 38.5525 14.0667 38.7126 14.3294 38.8219C14.592 38.9311 14.8737 38.9874 15.1582 38.9874L15.1709 39.0001ZM15.1709 17.3292H17.3291V36.8292H15.1709V17.3292ZM10.8291 44.421C10.8291 43.559 10.4867 42.7324 9.8772 42.1229C9.2677 41.5134 8.44106 41.171 7.5791 41.171C6.71715 41.171 5.8905 41.5134 5.281 42.1229C4.67151 42.7324 4.3291 43.559 4.3291 44.421C4.3291 45.2829 4.67151 46.1096 5.281 46.7191C5.8905 47.3286 6.71715 47.671 7.5791 47.671C8.44106 47.671 9.2677 47.3286 9.8772 46.7191C10.4867 46.1096 10.8291 45.2829 10.8291 44.421ZM7.5791 45.5001C7.29291 45.5001 7.01843 45.3864 6.81606 45.184C6.61369 44.9816 6.5 44.7072 6.5 44.421C6.5 44.1348 6.61369 43.8603 6.81606 43.6579C7.01843 43.4556 7.29291 43.3419 7.5791 43.3419C7.8653 43.3419 8.13977 43.4556 8.34214 43.6579C8.54451 43.8603 8.6582 44.1348 8.6582 44.421C8.6582 44.7072 8.54451 44.9816 8.34214 45.184C8.13977 45.3864 7.8653 45.5001 7.5791 45.5001ZM15.1709 50.9083H10.8291C10.5446 50.9083 10.2629 50.9645 10.0002 51.0738C9.73757 51.183 9.49909 51.3431 9.29852 51.5449C9.09794 51.7466 8.93923 51.9861 8.83152 52.2494C8.72381 52.5127 8.66923 52.7947 8.6709 53.0792V57.421C8.6709 57.9934 8.89828 58.5423 9.30302 58.9471C9.70776 59.3518 10.2567 59.5792 10.8291 59.5792H15.1709C15.7433 59.5792 16.2922 59.3518 16.697 58.9471C17.1017 58.5423 17.3291 57.9934 17.3291 57.421V53.0665C17.3291 52.4941 17.1017 51.9451 16.697 51.5404C16.2922 51.1357 15.7433 50.9083 15.1709 50.9083ZM10.8291 57.421V53.0665H15.1709V57.4083H10.8291V57.421ZM19.5 43.3292C19.5 42.7568 19.2726 42.2078 18.8679 41.8031C18.4631 41.3984 17.9142 41.171 17.3418 41.171H15.1709C14.8864 41.1693 14.6044 41.2239 14.3411 41.3316C14.0778 41.4393 13.8384 41.598 13.6366 41.7986C13.4349 41.9992 13.2747 42.2376 13.1655 42.5003C13.0562 42.763 13 43.0447 13 43.3292V45.5001C13 46.0725 13.2274 46.6214 13.6321 47.0262C14.0369 47.4309 14.5858 47.6583 15.1582 47.6583H17.3291C17.6136 47.66 17.8956 47.6054 18.1589 47.4977C18.4222 47.3899 18.6616 47.2312 18.8634 47.0307C19.0651 46.8301 19.2253 46.5916 19.3345 46.3289C19.4438 46.0662 19.5 45.7846 19.5 45.5001V43.3419V43.3292ZM15.1709 45.5001V43.3419H17.3291V45.5001H15.1709ZM39.3174 12.2257C38.7369 11.9506 38.0878 11.8544 37.4526 11.9494C36.8173 12.0443 36.2246 12.3261 35.75 12.7589C35.1597 12.2164 34.3872 11.9154 33.5854 11.9154C32.7837 11.9154 32.0112 12.2164 31.4209 12.7589C30.8298 12.2128 30.0547 11.9096 29.25 11.9096C28.4453 11.9096 27.6702 12.2128 27.0791 12.7589C26.7232 12.4397 26.301 12.2034 25.8429 12.0668C25.3848 11.9302 24.9022 11.8968 24.4296 11.9689C23.957 12.041 23.5063 12.2169 23.1098 12.4838C22.7133 12.7508 22.3808 13.1023 22.1363 13.5131C21.8917 13.9238 21.7412 14.3836 21.6955 14.8595C21.6497 15.3353 21.71 15.8154 21.8718 16.2652C22.0336 16.715 22.2931 17.1234 22.6315 17.461C22.9699 17.7986 23.3789 18.0571 23.8291 18.2178V24.921C23.8291 25.2055 23.8853 25.4871 23.9946 25.7498C24.1038 26.0125 24.264 26.251 24.4657 26.4516C24.6675 26.6521 24.9069 26.8108 25.1702 26.9186C25.4335 27.0263 25.7155 27.0809 26 27.0792H36.8291C37.1136 27.0809 37.3956 27.0263 37.6589 26.9186C37.9222 26.8108 38.1616 26.6521 38.3634 26.4516C38.5652 26.251 38.7253 26.0125 38.8345 25.7498C38.9438 25.4871 39 25.2055 39 24.921V18.2178C39.6093 18.0077 40.142 17.6205 40.5299 17.1058C40.9178 16.5911 41.1432 15.9723 41.1773 15.3287C41.2114 14.6851 41.0526 14.0459 40.7212 13.4931C40.3899 12.9403 39.9011 12.499 39.3174 12.2257ZM24.9209 16.2501C24.6347 16.2501 24.3602 16.1364 24.1579 15.934C23.9555 15.7316 23.8418 15.4572 23.8418 15.171C23.8418 14.8848 23.9555 14.6103 24.1579 14.4079C24.3602 14.2056 24.6347 14.0919 24.9209 14.0919C25.2071 14.0919 25.4816 14.2056 25.6839 14.4079C25.8863 14.6103 26 14.8848 26 15.171C26 15.4572 25.8863 15.7316 25.6839 15.934C25.4816 16.1364 25.2071 16.2501 24.9209 16.2501ZM28.1709 24.921H26V18.2178C26.4062 18.0782 26.7617 17.8497 27.0791 17.5831C27.3965 17.8497 27.7646 18.0782 28.1709 18.2178V24.921ZM29.25 16.2501C28.9638 16.2501 28.6893 16.1364 28.487 15.934C28.2846 15.7316 28.1709 15.4572 28.1709 15.171C28.1709 14.8848 28.2846 14.6103 28.487 14.4079C28.6893 14.2056 28.9638 14.0919 29.25 14.0919C29.5362 14.0919 29.8107 14.2056 30.013 14.4079C30.2154 14.6103 30.3291 14.8848 30.3291 15.171C30.3291 15.4572 30.2154 15.7316 30.013 15.934C29.8107 16.1364 29.5362 16.2501 29.25 16.2501ZM32.5 24.921H30.3418V18.2178C30.7227 18.0782 31.1035 17.8497 31.4209 17.5831C31.7256 17.8497 32.0938 18.0782 32.5 18.2178V24.921ZM33.5791 16.2501C33.2929 16.2501 33.0184 16.1364 32.8161 15.934C32.6137 15.7316 32.5 15.4572 32.5 15.171C32.5 14.8848 32.6137 14.6103 32.8161 14.4079C33.0184 14.2056 33.2929 14.0919 33.5791 14.0919C33.8653 14.0919 34.1398 14.2056 34.3421 14.4079C34.5445 14.6103 34.6582 14.8848 34.6582 15.171C34.6582 15.4572 34.5445 15.7316 34.3421 15.934C34.1398 16.1364 33.8653 16.2501 33.5791 16.2501ZM36.8291 24.921H34.6709V18.2178C35.0645 18.0782 35.4326 17.8497 35.75 17.5831C36.0674 17.8497 36.4355 18.0782 36.8291 18.2178V24.921ZM37.9209 16.2501C37.6347 16.2501 37.3602 16.1364 37.1579 15.934C36.9555 15.7316 36.8418 15.4572 36.8418 15.171C36.8418 14.8848 36.9555 14.6103 37.1579 14.4079C37.3602 14.2056 37.6347 14.0919 37.9209 14.0919C38.2071 14.0919 38.4816 14.2056 38.6839 14.4079C38.8863 14.6103 39 14.8848 39 15.171C39 15.4572 38.8863 15.7316 38.6839 15.934C38.4816 16.1364 38.2071 16.2501 37.9209 16.2501ZM58.5 20.7823V17.3292C58.5 16.7325 58.0176 16.2501 57.4209 16.2501H44.4209C44.2781 16.2484 44.1364 16.2751 44.004 16.3285C43.8717 16.382 43.7512 16.4612 43.6496 16.5616C43.5481 16.662 43.4675 16.7815 43.4124 16.9133C43.3574 17.045 43.3291 17.1864 43.3291 17.3292V20.7823C42.8692 20.9368 42.4498 21.1922 42.1015 21.5299C41.7533 21.8676 41.485 22.279 41.3164 22.7339C41.1479 23.1887 41.0833 23.6756 41.1274 24.1587C41.1715 24.6418 41.3232 25.1089 41.5714 25.5257C41.8195 25.9425 42.1579 26.2985 42.5615 26.5676C42.9652 26.8366 43.424 27.0118 43.9042 27.0805C44.3844 27.1491 44.8739 27.1093 45.3368 26.9641C45.7996 26.8189 46.2241 26.5719 46.5791 26.2413C47.1702 26.7873 47.9453 27.0906 48.75 27.0906C49.5547 27.0906 50.3298 26.7873 50.9209 26.2413C51.5112 26.7837 52.2837 27.0847 53.0854 27.0847C53.8872 27.0847 54.6597 26.7837 55.25 26.2413C55.6059 26.5604 56.0281 26.7968 56.4862 26.9333C56.9443 27.0699 57.4269 27.1034 57.8995 27.0313C58.3721 26.9592 58.8228 26.7833 59.2193 26.5163C59.6158 26.2493 59.9483 25.8978 60.1928 25.4871C60.4374 25.0763 60.5879 24.6165 60.6336 24.1407C60.6794 23.6648 60.6191 23.1848 60.4573 22.735C60.2955 22.2852 60.036 21.8768 59.6976 21.5392C59.3592 21.2016 58.9502 20.9431 58.5 20.7823ZM44.4082 24.921C44.1203 24.921 43.8442 24.8066 43.6407 24.6031C43.4371 24.3995 43.3228 24.1234 43.3228 23.8355C43.3228 23.5476 43.4371 23.2716 43.6407 23.068C43.8442 22.8644 44.1203 22.7501 44.4082 22.7501C44.6944 22.7501 44.9689 22.8638 45.1712 23.0661C45.3736 23.2685 45.4873 23.543 45.4873 23.8292C45.4873 24.1154 45.3736 24.3898 45.1712 24.5922C44.9689 24.7946 44.6944 24.9083 44.4082 24.9083V24.921ZM48.75 24.921C48.4621 24.921 48.186 24.8066 47.9825 24.6031C47.7789 24.3995 47.6646 24.1234 47.6646 23.8355C47.6646 23.5476 47.7789 23.2716 47.9825 23.068C48.186 22.8644 48.4621 22.7501 48.75 22.7501C49.0362 22.7501 49.3107 22.8638 49.513 23.0661C49.7154 23.2685 49.8291 23.543 49.8291 23.8292C49.8291 24.1154 49.7154 24.3898 49.513 24.5922C49.3107 24.7946 49.0362 24.9083 48.75 24.9083V24.921ZM53.0791 24.921C52.7912 24.921 52.5151 24.8066 52.3116 24.6031C52.108 24.3995 51.9937 24.1234 51.9937 23.8355C51.9937 23.5476 52.108 23.2716 52.3116 23.068C52.5151 22.8644 52.7912 22.7501 53.0791 22.7501C53.3653 22.7501 53.6398 22.8638 53.8421 23.0661C54.0445 23.2685 54.1582 23.543 54.1582 23.8292C54.1582 24.1154 54.0445 24.3898 53.8421 24.5922C53.6398 24.7946 53.3653 24.9083 53.0791 24.9083V24.921ZM50.9209 21.4298C50.3298 20.8837 49.5547 20.5805 48.75 20.5805C47.9453 20.5805 47.1702 20.8837 46.5791 21.4298C46.2744 21.1505 45.9062 20.922 45.5 20.795V18.4083H56.3291V20.7696C55.9355 20.9093 55.5674 21.1378 55.25 21.4044C54.6597 20.8619 53.8872 20.5609 53.0854 20.5609C52.2837 20.5609 51.5112 20.8619 50.9209 21.4044V21.4298ZM57.4209 24.921C57.133 24.921 56.8569 24.8066 56.6534 24.6031C56.4498 24.3995 56.3354 24.1234 56.3354 23.8355C56.3354 23.5476 56.4498 23.2716 56.6534 23.068C56.8569 22.8644 57.133 22.7501 57.4209 22.7501C57.7071 22.7501 57.9816 22.8638 58.1839 23.0661C58.3863 23.2685 58.5 23.543 58.5 23.8292C58.5 24.1154 58.3863 24.3898 58.1839 24.5922C57.9816 24.7946 57.7071 24.9083 57.4209 24.9083V24.921ZM41.2598 35.0772C41.2725 35.1534 41.3105 35.2042 41.3486 35.2677L41.4756 35.4327C41.6822 35.6358 41.9603 35.7497 42.25 35.7497C42.5397 35.7497 42.8178 35.6358 43.0244 35.4327L43.1514 35.2677L43.2529 35.0772L43.3164 34.8868L43.3291 34.671C43.3279 34.5124 43.2918 34.3561 43.2233 34.2131C43.1549 34.0701 43.0557 33.9439 42.933 33.8436C42.8102 33.7432 42.6669 33.6712 42.5131 33.6325C42.3594 33.5939 42.199 33.5896 42.0434 33.6199C41.8878 33.6503 41.7407 33.7146 41.6128 33.8082C41.4848 33.9018 41.3791 34.0225 41.3031 34.1616C41.2271 34.3008 41.1826 34.4549 41.1729 34.6132C41.1633 34.7714 41.1886 34.9299 41.2471 35.0772H41.2598ZM42.8594 42.4405C42.7959 42.3897 42.7324 42.3643 42.6562 42.3389C42.6055 42.3009 42.5293 42.2882 42.4658 42.2755C42.2528 42.2297 42.0308 42.2519 41.8311 42.3389C41.7041 42.3897 41.5771 42.4659 41.4756 42.5675C41.28 42.7728 41.1709 43.0456 41.1709 43.3292C41.1709 43.6128 41.28 43.8855 41.4756 44.0909C41.5833 44.1921 41.7079 44.2738 41.8438 44.3321C42.0403 44.4142 42.2567 44.4363 42.4658 44.3956L42.6562 44.3321L42.8594 44.2305L43.0244 44.1036C43.2238 43.8976 43.3352 43.6222 43.3352 43.3355C43.3352 43.0489 43.2238 42.7734 43.0244 42.5675L42.8594 42.4405ZM54.8438 33.668C54.7168 33.7188 54.5898 33.795 54.4756 33.8966C54.3526 34.0271 54.2621 34.1848 54.2114 34.3568C54.1606 34.5288 54.1511 34.7104 54.1836 34.8868L54.2471 35.0772C54.2725 35.1534 54.3105 35.2042 54.3486 35.2677L54.4756 35.4327C54.5843 35.5294 54.7088 35.6067 54.8438 35.6612C54.9707 35.7247 55.0977 35.7501 55.25 35.7501C55.5346 35.7429 55.8062 35.6297 56.0117 35.4327C56.0625 35.3819 56.1133 35.3311 56.1387 35.2677C56.1895 35.2169 56.2275 35.1407 56.2529 35.0772L56.3164 34.8868L56.3291 34.671C56.3253 34.3881 56.2168 34.1167 56.0244 33.9093C55.8721 33.759 55.6795 33.6563 55.4699 33.6134C55.2603 33.5706 55.0428 33.5896 54.8438 33.668ZM55.8594 42.4405C55.7959 42.3897 55.7324 42.3643 55.6562 42.3389C55.5928 42.3009 55.5293 42.2755 55.4531 42.2755C55.279 42.243 55.0995 42.2539 54.9306 42.3072C54.7617 42.3605 54.6085 42.4546 54.4845 42.5812C54.3606 42.7077 54.2697 42.8628 54.2199 43.0328C54.17 43.2028 54.1628 43.3824 54.1989 43.5558C54.2349 43.7293 54.3131 43.8912 54.4265 44.0272C54.5399 44.1633 54.6851 44.2693 54.8492 44.336C55.0133 44.4027 55.1913 44.428 55.3675 44.4096C55.5436 44.3912 55.7126 44.3297 55.8594 44.2305L56.0244 44.1036C56.2238 43.8976 56.3352 43.6222 56.3352 43.3355C56.3352 43.0489 56.2238 42.7734 56.0244 42.5675L55.8594 42.4405ZM48.75 35.7501C48.4638 35.7501 48.1893 35.8638 47.987 36.0661C47.7846 36.2685 47.6709 36.543 47.6709 36.8292V41.171C47.6709 41.3127 47.6988 41.453 47.753 41.5839C47.8073 41.7148 47.8868 41.8338 47.987 41.934C48.0872 42.0342 48.2061 42.1137 48.337 42.1679C48.468 42.2222 48.6083 42.2501 48.75 42.2501C48.8917 42.2501 49.032 42.2222 49.163 42.1679C49.2939 42.1137 49.4128 42.0342 49.513 41.934C49.6132 41.8338 49.6927 41.7148 49.747 41.5839C49.8012 41.453 49.8291 41.3127 49.8291 41.171V36.8165C49.8291 36.2198 49.3467 35.7374 48.75 35.7374V35.7501ZM44.4209 37.921H42.25C41.9638 37.921 41.6893 38.0347 41.487 38.237C41.2846 38.4394 41.1709 38.7139 41.1709 39.0001C41.1709 39.2863 41.2846 39.5607 41.487 39.7631C41.6893 39.9655 41.9638 40.0792 42.25 40.0792H44.4082C44.6944 40.0792 44.9689 39.9655 45.1712 39.7631C45.3736 39.5607 45.4873 39.2863 45.4873 39.0001C45.4873 38.7139 45.3736 38.4394 45.1712 38.237C44.9689 38.0347 44.6944 37.921 44.4082 37.921H44.4209ZM55.25 37.921H53.0918C52.8056 37.921 52.5311 38.0347 52.3288 38.237C52.1264 38.4394 52.0127 38.7139 52.0127 39.0001C52.0127 39.2863 52.1264 39.5607 52.3288 39.7631C52.5311 39.9655 52.8056 40.0792 53.0918 40.0792H55.25C55.5362 40.0792 55.8107 39.9655 56.013 39.7631C56.2154 39.5607 56.3291 39.2863 56.3291 39.0001C56.3291 38.7139 56.2154 38.4394 56.013 38.237C55.8107 38.0347 55.5362 37.921 55.25 37.921ZM23.8291 48.7501H32.5C33.0724 48.7501 33.6213 48.5227 34.0261 48.118C34.4308 47.7132 34.6582 47.1643 34.6582 46.5919V31.4083C34.6599 31.1238 34.6053 30.8418 34.4976 30.5785C34.3899 30.3152 34.2312 30.0757 34.0306 29.874C33.83 29.6722 33.5915 29.5121 33.3289 29.4029C33.0662 29.2936 32.7845 29.2374 32.5 29.2374H23.8291C23.2567 29.2374 22.7078 29.4648 22.303 29.8695C21.8983 30.2742 21.6709 30.8232 21.6709 31.3956V46.5919C21.6692 46.8764 21.7238 47.1584 21.8315 47.4217C21.9392 47.685 22.0979 47.9244 22.2985 48.1262C22.4991 48.3279 22.7376 48.488 23.0002 48.5973C23.2629 48.7065 23.5446 48.7628 23.8291 48.7628V48.7501ZM23.8291 31.421H32.5V46.5792H23.8291V31.421ZM28.7676 33.7696L28.5771 33.668L28.3867 33.6046C28.0312 33.5284 27.6504 33.6427 27.3965 33.8966C27.2735 34.0271 27.183 34.1848 27.1323 34.3568C27.0815 34.5288 27.072 34.7104 27.1045 34.8868C27.1045 34.9503 27.1426 35.0137 27.168 35.0772C27.1934 35.1534 27.2314 35.2042 27.2695 35.2677L27.3965 35.4327C27.527 35.5557 27.6847 35.6462 27.8567 35.6969C28.0288 35.7476 28.2103 35.7571 28.3867 35.7247C28.4502 35.7247 28.5137 35.6993 28.5771 35.6612C28.6533 35.6358 28.7041 35.6104 28.7676 35.5596L28.9326 35.4327L29.0596 35.2677C29.1104 35.2169 29.1357 35.1407 29.1611 35.0772C29.1992 35.0137 29.2119 34.9503 29.2246 34.8868L29.25 34.671C29.2428 34.3864 29.1296 34.1148 28.9326 33.9093C28.8805 33.8594 28.8254 33.8128 28.7676 33.7696ZM28.9453 38.2257L28.7676 38.0987L28.5771 37.9971L28.3867 37.9337C28.1737 37.8879 27.9517 37.9101 27.752 37.9971C27.6166 38.0473 27.494 38.1268 27.3931 38.23C27.2921 38.3332 27.2152 38.4574 27.168 38.5938C27.0859 38.7904 27.0638 39.0068 27.1045 39.2159C27.1045 39.2794 27.1426 39.3428 27.168 39.4063L27.2695 39.6094L27.3965 39.7745C27.5014 39.87 27.6215 39.9472 27.752 40.003C27.9523 40.0877 28.1736 40.1098 28.3867 40.0665L28.5771 39.9903C28.6533 39.9776 28.7041 39.9395 28.7676 39.9014L28.9326 39.7745L29.0596 39.6094C29.1104 39.546 29.1357 39.4825 29.1611 39.4063C29.1992 39.3555 29.2119 39.2794 29.2246 39.2159L29.25 39.0001C29.25 38.8604 29.2246 38.7208 29.1611 38.5938C29.1104 38.4669 29.0342 38.3399 28.9326 38.2257H28.9453ZM28.7676 42.4405C28.7168 42.3897 28.6406 42.3643 28.5771 42.3389C28.4469 42.2827 28.3065 42.2537 28.1646 42.2537C28.0226 42.2537 27.8822 42.2827 27.752 42.3389C27.625 42.3897 27.498 42.4659 27.3965 42.5675C27.2009 42.7728 27.0918 43.0456 27.0918 43.3292C27.0918 43.6128 27.2009 43.8855 27.3965 44.0909C27.5004 44.1909 27.6206 44.2725 27.752 44.3321C27.9523 44.4168 28.1736 44.4389 28.3867 44.3956L28.5771 44.3321C28.6533 44.3067 28.7041 44.2686 28.7676 44.2305L28.9326 44.1036C29.132 43.8976 29.2434 43.6222 29.2434 43.3355C29.2434 43.0489 29.132 42.7734 28.9326 42.5675L28.7676 42.4405ZM19.5 53.0792V57.421C19.5 57.9934 19.7274 58.5423 20.1321 58.9471C20.5369 59.3518 21.0858 59.5792 21.6582 59.5792H58.5C59.0724 59.5792 59.6213 59.3518 60.0261 58.9471C60.4308 58.5423 60.6582 57.9934 60.6582 57.421V53.0665C60.6582 52.4941 60.4308 51.9451 60.0261 51.5404C59.6213 51.1357 59.0724 50.9083 58.5 50.9083H21.6709C21.3864 50.9066 21.1044 50.9612 20.8411 51.0689C20.5778 51.1766 20.3384 51.3353 20.1366 51.5359C19.9349 51.7365 19.7747 51.975 19.6655 52.2376C19.5562 52.5003 19.5 52.782 19.5 53.0665V53.0792ZM58.5 57.421H56.3418V56.3292C56.3418 56.0413 56.2274 55.7652 56.0239 55.5616C55.8203 55.3581 55.5442 55.2437 55.2563 55.2437C54.9685 55.2437 54.6924 55.3581 54.4888 55.5616C54.2853 55.7652 54.1709 56.0413 54.1709 56.3292V57.421H52V56.3292C52 56.043 51.8863 55.7685 51.6839 55.5661C51.4816 55.3638 51.2071 55.2501 50.9209 55.2501C50.6347 55.2501 50.3602 55.3638 50.1579 55.5661C49.9555 55.7685 49.8418 56.043 49.8418 56.3292V57.421H47.6709V56.3292C47.6709 56.0413 47.5565 55.7652 47.353 55.5616C47.1494 55.3581 46.8733 55.2437 46.5854 55.2437C46.2976 55.2437 46.0215 55.3581 45.8179 55.5616C45.6144 55.7652 45.5 56.0413 45.5 56.3292V57.421H43.3418V56.3292C43.3418 56.0413 43.2274 55.7652 43.0239 55.5616C42.8203 55.3581 42.5442 55.2437 42.2563 55.2437C41.9685 55.2437 41.6924 55.3581 41.4888 55.5616C41.2853 55.7652 41.1709 56.0413 41.1709 56.3292V57.421H39V56.3292C39 56.043 38.8863 55.7685 38.6839 55.5661C38.4816 55.3638 38.2071 55.2501 37.9209 55.2501C37.6347 55.2501 37.3602 55.3638 37.1579 55.5661C36.9555 55.7685 36.8418 56.043 36.8418 56.3292V57.421H34.6582V56.3292C34.6582 56.0413 34.5438 55.7652 34.3403 55.5616C34.1367 55.3581 33.8606 55.2437 33.5728 55.2437C33.2849 55.2437 33.0088 55.3581 32.8052 55.5616C32.6017 55.7652 32.4873 56.0413 32.4873 56.3292V57.421H30.3291V56.3292C30.3291 56.0413 30.2147 55.7652 30.0112 55.5616C29.8076 55.3581 29.5315 55.2437 29.2437 55.2437C28.9558 55.2437 28.6797 55.3581 28.4761 55.5616C28.2726 55.7652 28.1582 56.0413 28.1582 56.3292V57.421H25.9873V56.3292C25.9873 56.043 25.8736 55.7685 25.6712 55.5661C25.4689 55.3638 25.1944 55.2501 24.9082 55.2501C24.622 55.2501 24.3475 55.3638 24.1452 55.5661C23.9428 55.7685 23.8291 56.043 23.8291 56.3292V57.421H21.6582V53.0665H58.4873V57.4083L58.5 57.421ZM5.83984 58.5889C5.56055 58.4747 5.26855 58.4747 5.00195 58.5889C4.875 58.6397 4.74805 58.7159 4.64648 58.8175C4.49169 58.9677 4.38545 59.1608 4.34148 59.372C4.29752 59.5831 4.31784 59.8026 4.39982 60.0021C4.48181 60.2016 4.6217 60.372 4.80144 60.4912C4.98118 60.6104 5.19252 60.673 5.4082 60.671C5.69719 60.6669 5.97391 60.5535 6.18262 60.3536C6.27811 60.2487 6.35535 60.1285 6.41113 59.9981C6.47461 59.8712 6.5 59.7188 6.5 59.5792C6.49279 59.2946 6.37961 59.023 6.18262 58.8175C6.07955 58.7196 5.95895 58.6421 5.82715 58.5889H5.83984Z" fill="black"/>
</svg>
