<svg width="65" height="65" viewBox="0 0 65 65" fill="none" xmlns="http://www.w3.org/2000/svg">
<path d="M64.997 4.37724C64.997 4.08525 64.8827 3.81865 64.6796 3.61552L61.3788 0.314743C61.1765 0.113179 60.9026 0 60.6171 0C60.3315 0 60.0576 0.113179 59.8554 0.314743L50.7147 9.45537L50.6513 9.39189C50.449 9.19033 50.1751 9.07715 49.8895 9.07715C49.604 9.07715 49.3301 9.19033 49.1278 9.39189L45.2684 13.2386L44.5829 12.5403C43.5281 11.4854 42.2589 10.6696 40.8612 10.148C39.4636 9.6264 37.9702 9.41129 36.4822 9.51723C34.9942 9.62318 33.5463 10.0477 32.2367 10.762C30.927 11.4764 29.7862 12.4638 28.8915 13.6575L25.1337 18.6722C23.6991 20.5765 22.3026 22.5188 20.9188 24.4739C17.8386 26.1961 14.6965 27.8052 11.4989 29.2981C10.7372 29.6282 9.97547 29.9075 9.21375 30.1487C8.14735 30.4788 7.10633 30.8851 6.1161 31.3802C1.87586 33.6653 0.58094 40.4446 0.225471 43.2503C-0.0570775 45.3132 -0.0741436 47.4038 0.17469 49.471C0.339729 51.6673 1.06336 53.7874 2.29481 55.6282C2.59949 56.0091 2.92957 56.3772 3.29774 56.72L8.21082 61.6458C8.59168 62.052 9.01063 62.4202 9.45496 62.763C9.82313 63.0169 10.2167 63.2327 10.5975 63.4104C13.0097 64.5149 15.6376 65.0608 18.2782 64.9974C19.4335 64.9974 20.5888 64.9212 21.744 64.7688C24.537 64.4134 31.3163 63.1185 33.6141 58.8655C34.1093 57.8753 34.5155 56.8343 34.8456 55.7806C35.0868 55.0061 35.3661 54.2317 35.6962 53.4954C37.1825 50.3051 38.7875 47.1714 40.5077 44.1009C42.4628 42.7044 44.4052 41.2952 46.3222 39.8606L51.3368 36.1028C52.5305 35.2081 53.518 34.0673 54.2323 32.7577C54.9466 31.448 55.3711 30.0001 55.4771 28.5121C55.583 27.0241 55.3679 25.5307 54.8463 24.1331C54.3248 22.7354 53.5089 21.4662 52.454 20.4114L51.7557 19.7132L55.6024 15.8665C55.804 15.6642 55.9172 15.3903 55.9172 15.1048C55.9172 14.8192 55.804 14.5453 55.6024 14.3431L55.5389 14.2796L64.6796 5.13896C64.8821 4.93713 64.9963 4.66317 64.997 4.37724ZM30.6307 14.9651C31.6116 13.6578 32.9596 12.6722 34.5028 12.1341L35.4423 13.0735C35.6741 13.3087 35.804 13.6256 35.804 13.9559C35.804 14.2861 35.6741 14.603 35.4423 14.8382L32.9032 17.3645L30.58 15.0286L30.6307 14.9651ZM26.8602 19.9798L29.2723 16.7806L31.3798 18.9007L28.8407 21.427C28.3583 21.8968 27.5712 21.8968 27.0888 21.427L26.3524 20.6907L26.8602 19.9798ZM7.14442 33.2972C8.03309 32.8528 8.94715 32.4974 9.8993 32.2054L10.6229 31.9515L9.73426 33.6399C7.91608 37.0839 5.46048 40.1512 2.49793 42.679C2.90418 40.1653 4.08485 34.9349 7.14442 33.2845V33.2972ZM32.7889 55.095C32.5037 56.0408 32.1429 56.962 31.7098 57.8499C30.0595 60.8968 24.829 62.0901 22.3026 62.4964C24.8417 59.5257 27.9013 57.0755 31.3544 55.26L33.0302 54.3714L32.7763 55.095H32.7889ZM36.0897 47.7317C35.455 48.9759 34.871 50.1311 34.3632 51.2229L30.3388 53.3431C25.9974 55.6319 22.2235 58.8636 19.2938 62.8011C16.6278 62.9915 13.9618 62.5472 11.5497 61.4554C11.2539 61.3222 10.9694 61.1651 10.6991 60.9856C10.3563 60.7317 10.0389 60.427 9.73426 60.1097L4.82117 55.1839C4.53634 54.9091 4.2692 54.6165 4.02137 54.3079C3.03404 52.7722 2.44902 51.0128 2.3202 49.1917C2.19324 48.0364 2.14246 46.8685 2.19324 45.7005C6.12879 42.7679 9.3534 38.9974 11.6386 34.6556L13.7714 30.6311C15.2796 29.9242 16.7696 29.1791 18.2401 28.3968C14.4789 33.9266 10.9425 39.606 7.63953 45.4212C6.69935 47.0877 6.33067 49.0162 6.58985 50.912C6.84903 52.8077 7.7218 54.5665 9.07479 55.9195C10.4278 57.2725 12.1866 58.1453 14.0823 58.4045C15.9781 58.6636 17.9066 58.295 19.5731 57.3548C25.3495 54.0794 31.037 50.5501 36.5722 46.8177C36.4142 47.1174 36.2576 47.4179 36.1024 47.719L36.0897 47.7317ZM45.0145 38.1341L44.3036 38.6419L43.5673 37.9056C43.3355 37.6704 43.2055 37.3534 43.2055 37.0232C43.2055 36.693 43.3355 36.3761 43.5673 36.1409L46.1063 33.6019L48.2137 35.7347L45.0145 38.1341ZM50.0292 34.3636L49.9657 34.4144L47.6298 32.0784L50.1688 29.5393C50.6513 29.0823 51.4384 29.0823 51.9208 29.5393L52.8602 30.4788C52.3244 32.0267 51.3386 33.3794 50.0292 34.3636ZM53.3173 27.9017C52.6577 27.3371 51.812 27.0376 50.9442 27.061C50.0764 27.0845 49.2481 27.4293 48.62 28.0286L42.0311 34.6048C41.3954 35.2466 41.0388 36.1135 41.0388 37.0169C41.0388 37.9203 41.3954 38.7871 42.0311 39.429L42.5389 39.9368C34.8354 45.573 26.8112 50.7571 18.5067 55.4632C17.2531 56.1755 15.8004 56.4569 14.3715 56.2642C12.9426 56.0716 11.6163 55.4156 10.596 54.3968C9.57578 53.3779 8.91788 52.0526 8.72323 50.6239C8.52858 49.1953 8.80793 47.7422 9.51844 46.4876C14.2157 38.1849 19.4208 30.1614 25.0448 22.4681L25.5526 22.9632C26.1945 23.5989 27.0613 23.9555 27.9647 23.9555C28.8681 23.9555 29.735 23.5989 30.3768 22.9632L36.9657 16.3616C37.5805 15.7404 37.9337 14.9071 37.9526 14.0332C37.9715 13.1594 37.6547 12.3116 37.0673 11.6644H37.2069C39.3905 11.6644 41.4852 12.5276 43.0341 14.0765L44.494 15.5364L46.2079 17.2503L41.1298 22.303L41.0282 22.1888C40.8274 21.9853 40.5883 21.8238 40.3246 21.7135C40.0609 21.6033 39.7779 21.5465 39.4921 21.5465C39.2063 21.5465 38.9233 21.6033 38.6596 21.7135C38.3959 21.8238 38.1567 21.9853 37.9559 22.1888L34.5536 25.6038C34.3521 25.8043 34.1922 26.0427 34.083 26.3053C33.9739 26.5678 33.9178 26.8493 33.9178 27.1336C33.9178 27.4179 33.9739 27.6994 34.083 27.9619C34.1922 28.2244 34.3521 28.4628 34.5536 28.6634L34.6679 28.7903L23.8895 39.556C23.7796 39.6536 23.6908 39.7728 23.6286 39.906C23.5664 40.0393 23.5321 40.1838 23.5277 40.3308C23.5234 40.4778 23.5492 40.6241 23.6034 40.7608C23.6577 40.8975 23.7393 41.0216 23.8433 41.1256C23.9473 41.2296 24.0715 41.3112 24.2081 41.3655C24.3448 41.4198 24.4911 41.4455 24.6381 41.4412C24.7851 41.4369 24.9297 41.4025 25.0629 41.3403C25.1962 41.2781 25.3153 41.1893 25.413 41.0794L36.204 30.3138L36.3182 30.4407C36.7228 30.8438 37.2706 31.0702 37.8417 31.0702C38.4128 31.0702 38.9606 30.8438 39.3651 30.4407L42.7929 27.013C43.196 26.6085 43.4223 26.0606 43.4223 25.4895C43.4223 24.9184 43.196 24.3706 42.7929 23.9661L42.6659 23.8392L47.744 18.7737L49.4452 20.4876L50.9052 21.9476C51.6853 22.73 52.2999 23.6616 52.7121 24.6868C53.1243 25.7119 53.3258 26.8096 53.3046 27.9143L53.3173 27.9017ZM41.2694 25.4895L37.8544 28.9046L36.0897 27.1272L39.5175 23.7249L41.2694 25.4895ZM50.2196 18.1897L46.8046 14.7747L49.8895 11.6897L51.5907 13.4036L53.2411 15.054L53.3046 15.1048L50.2196 18.1897ZM54.0028 12.7561L53.1141 11.8675L52.2382 10.9788L60.6171 2.61259L62.3817 4.37724L54.0028 12.7561Z" fill="black"/>
</svg>
