<svg width="65" height="65" viewBox="0 0 65 65" fill="none" xmlns="http://www.w3.org/2000/svg">
<path d="M26.2847 5.54741C-0.203362 9.03794 2.89793 8.61908 1.14392 8.88562C0.495698 8.98717 0 9.54565 0 10.2184V30.9331C0 31.682 0.6228 32.2785 1.35999 32.2785C9.62163 32.2785 17.9722 32.0627 26.4372 32.05C27.1871 32.05 27.7972 31.4408 27.7972 30.7046V6.88016C27.7972 6.06782 27.0727 5.43317 26.272 5.54741H26.2847ZM25.9034 30.1715C17.7943 30.1715 9.8377 30.3746 1.93195 30.3873V10.7007C3.05045 10.523 0.279624 10.8911 25.9034 7.5148V30.1588V30.1715ZM26.4118 32.9385C19.078 33.1289 1.2456 32.9385 1.3727 32.9385C0.63551 32.9385 0.0254204 33.5351 0.0254204 34.2713V54.9733C0.0254204 55.646 0.533829 56.2299 1.19476 56.3187C1.32186 56.3314 26.1195 59.6823 26.4499 59.6823C27.1998 59.6823 27.8099 59.0731 27.8099 58.3369V34.2967C27.8099 33.5224 27.1744 32.9258 26.4118 32.9385ZM25.9034 57.715C17.6672 56.6361 9.67247 55.5572 1.93195 54.5037V34.8425C9.81228 34.8552 17.7816 35.0329 25.9034 34.8425V57.715ZM63.4621 0.0133345L47.8793 2.24727C47.7489 2.25732 47.6219 2.29408 47.5063 2.35527C47.3907 2.41645 47.2889 2.50076 47.2073 2.60293C47.1257 2.70509 47.0661 2.82294 47.0321 2.94913C46.9981 3.07531 46.9905 3.20714 47.0097 3.33639C47.029 3.46564 47.0747 3.58955 47.1439 3.70041C47.2132 3.81127 47.3046 3.90669 47.4124 3.98075C47.5202 4.0548 47.6421 4.1059 47.7706 4.13086C47.899 4.15581 48.0312 4.1541 48.159 4.12581C53.0651 3.40232 57.9331 2.7296 63.0935 1.98072V29.9303C52.4169 29.943 41.4861 30.1461 30.8095 30.1588V6.79131C32.7034 6.49937 35.7157 5.97897 43.7231 4.77315C43.8536 4.7631 43.9806 4.72634 44.0962 4.66515C44.2118 4.60397 44.3136 4.51966 44.3952 4.41749C44.4767 4.31533 44.5364 4.19748 44.5704 4.07129C44.6044 3.94511 44.612 3.81328 44.5927 3.68403C44.5735 3.55478 44.5278 3.43087 44.4585 3.32001C44.3893 3.20915 44.2979 3.11373 44.1901 3.03967C44.0823 2.96562 43.9603 2.91452 43.8319 2.88956C43.7034 2.86461 43.5712 2.86632 43.4435 2.89461C35.4233 4.10043 32.5763 4.59545 30.0596 4.97623C29.3987 5.07778 28.9157 5.64895 28.9157 6.30898V30.7173C28.9157 31.4535 29.5131 32.0627 30.2503 32.0627C40.7362 32.0627 52.6203 31.8343 63.6527 31.8343C64.3899 31.8343 65 31.225 65 30.4888V1.34608C65 0.533741 64.2755 -0.100901 63.4621 0.0133345ZM64.0467 48.9569C64.5806 48.9569 65 48.5253 65 48.0049V34.5252C65 33.7763 64.3899 33.1797 63.6527 33.1797H30.2503C29.5131 33.1797 28.903 33.7763 28.903 34.5252V58.9335C28.903 59.5935 29.4114 60.1647 30.0724 60.2662C41.0667 61.8274 52.4169 63.1983 63.4366 64.9879C64.2501 65.1149 65 64.4802 65 63.6552V52.4601C65 52.2076 64.8996 51.9655 64.7208 51.787C64.542 51.6085 64.2996 51.5082 64.0467 51.5082C63.7939 51.5082 63.5514 51.6085 63.3727 51.787C63.1939 51.9655 63.0935 52.2076 63.0935 52.4601V62.9952C52.4169 61.2943 41.4607 59.9489 30.8095 58.4511V35.0583H63.0935V48.0049C63.0935 48.5253 63.5256 48.9569 64.0467 48.9569Z" fill="black"/>
</svg>
