<svg width="65" height="65" viewBox="0 0 65 65" fill="none" xmlns="http://www.w3.org/2000/svg">
<path d="M6.40988 35.8008L6.32103 36.0547C5.26328 38.9649 5.12838 42.1306 5.93472 45.1203C6.74106 48.11 8.44941 50.7784 10.827 52.7617C13.2061 54.7751 16.15 56.0025 19.2545 56.2752C22.359 56.548 25.4718 55.8528 28.1654 54.2852C30.8485 52.7615 32.9957 50.4462 34.3134 47.6557C35.6311 44.8653 36.0551 41.7359 35.5272 38.6953L35.5145 38.6318C34.9635 35.3474 33.3454 32.3362 30.9107 30.0643C28.4761 27.7925 25.3606 26.3865 22.0466 26.0642C18.7325 25.7418 15.4046 26.521 12.5779 28.2811C9.75123 30.0412 7.58338 32.6841 6.40988 35.8008ZM10.8524 49.7529C9.36523 48.0794 8.33781 46.0485 7.87059 43.8588C7.40337 41.6692 7.51235 39.3957 8.18688 37.2607C8.94845 37.0957 9.7354 37.0703 10.5224 37.1846C9.83916 38.891 9.60527 40.7442 9.84306 42.5669C10.0809 44.3896 10.7824 46.1208 11.8805 47.5947C11.4362 48.2549 11.0935 48.9912 10.8397 49.7529H10.8524ZM16.7799 43.2148C15.4896 43.9038 14.309 44.7809 13.2767 45.8174C12.5169 44.6323 12.0584 43.2794 11.9412 41.8765C11.8239 40.4736 12.0515 39.0633 12.604 37.7686C13.9882 38.3875 15.2517 39.2472 16.3357 40.3076C16.1411 41.2989 16.2982 42.327 16.7799 43.2148ZM18.3285 44.8525C19.174 45.409 20.2013 45.6181 21.197 45.4365C21.4087 46.887 21.8321 48.2985 22.4536 49.626C19.6612 50.2607 16.7418 49.4482 14.6602 47.4678C15.7193 46.3809 16.9664 45.4948 18.3411 44.8525H18.3285ZM12.6674 51.4541C12.7817 50.6924 13.0228 49.9307 13.3909 49.2451C14.7577 50.4751 16.4173 51.3335 18.2109 51.7381C20.0044 52.1426 21.8718 52.0798 23.6341 51.5557C24.1164 52.1904 24.6876 52.7617 25.3095 53.2568C23.2284 54.0829 20.9681 54.3523 18.7512 54.0384C16.5343 53.7245 14.4375 52.8382 12.6674 51.4668V51.4541ZM23.266 44.5352C24.0612 43.9138 24.6137 43.0334 24.8272 42.0469C26.2508 42.3348 27.7079 42.4203 29.1554 42.3008C28.9712 43.6945 28.4509 45.0224 27.6394 46.1703C26.8279 47.3181 25.7495 48.2514 24.4972 48.8896C23.8311 47.5229 23.4142 46.0483 23.266 44.5352ZM33.5725 41.1709C33.5725 45.6143 31.2878 49.7402 27.5561 52.1143C26.869 51.75 26.2505 51.2688 25.7284 50.6924C27.3403 49.8177 28.7039 48.5483 29.6918 47.003C30.6796 45.4576 31.2594 43.6869 31.3767 41.8564C32.1383 41.6152 32.8744 41.2852 33.5599 40.8408L33.5725 41.1709ZM33.2552 38.3398C32.6775 38.8668 32.0115 39.2879 31.2878 39.584C30.9734 37.4508 30.0301 35.4598 28.5786 33.8655C27.1271 32.2712 25.2332 31.146 23.139 30.6338C23.0402 29.8357 22.8353 29.0544 22.5298 28.3105C25.1193 28.7078 27.5285 29.8778 29.4422 31.6673C31.3559 33.4568 32.6849 35.7824 33.2552 38.3398ZM23.2025 32.8936C24.7834 33.401 26.1856 34.3513 27.2429 35.6316C28.3003 36.9119 28.9684 38.4686 29.1681 40.1172C27.6704 40.2695 26.1345 40.1553 24.6622 39.7744C24.4632 39.1804 24.1377 38.6367 23.7082 38.1808C23.2787 37.7249 22.7554 37.3677 22.1744 37.1338C22.7202 35.7754 23.0629 34.3408 23.1898 32.8936H23.2025ZM22.7456 41.1455C22.7456 41.7196 22.5176 42.2701 22.1117 42.6761C21.7058 43.082 21.1554 43.3101 20.5814 43.3101C20.0075 43.3101 19.457 43.082 19.0512 42.6761C18.6453 42.2701 18.4173 41.7196 18.4173 41.1455C18.4173 40.5714 18.6453 40.0209 19.0512 39.6149C19.457 39.209 20.0075 38.981 20.5814 38.981C21.1554 38.981 21.7058 39.209 22.1117 39.6149C22.5176 40.0209 22.7456 40.5714 22.7456 41.1455ZM19.9151 36.8926C18.925 37.0449 18.0111 37.5273 17.3511 38.2891C16.2722 37.3115 15.041 36.5117 13.721 35.877C14.527 34.824 15.5644 33.9707 16.7529 33.3829C17.9414 32.7951 19.2492 32.4887 20.5751 32.4873L21.032 32.5127C20.9305 34.0234 20.5497 35.5088 19.9151 36.8926ZM20.0166 28.1836C20.4297 28.8463 20.7219 29.577 20.8797 30.3418L20.5751 30.3164C18.7908 30.3175 17.0344 30.7596 15.4621 31.6035C13.8899 32.4473 12.5505 33.6668 11.5632 35.1533C10.7762 34.9756 9.97657 34.8994 9.17692 34.9375C10.2498 32.9738 11.8112 31.3203 13.7102 30.1371C15.6092 28.9539 17.7814 28.281 20.0166 28.1836ZM43.4095 41.1201C44.0187 41.8311 44.9199 42.25 45.8719 42.25H53.7795C54.7315 42.25 55.6327 41.8311 56.242 41.1074L58.7805 38.1494C59.2882 37.5527 59.5675 36.8037 59.5675 36.0293V29.25C59.5675 28.8232 59.4834 28.4006 59.3201 28.0063C59.1568 27.612 58.9175 27.2537 58.6158 26.9519C58.314 26.6501 57.9558 26.4107 57.5616 26.2474C57.1674 26.0841 56.7448 26 56.3181 26H43.3206C42.4589 26 41.6324 26.3424 41.023 26.9519C40.4136 27.5614 40.0713 28.388 40.0713 29.25V36.0293C40.0713 36.8037 40.3505 37.5527 40.8582 38.1494L43.3968 41.1201H43.4095ZM42.2418 29.25C42.2418 28.6533 42.7241 28.1709 43.3206 28.1709H56.3181C56.9147 28.1709 57.4097 28.6533 57.4097 29.25V36.0293C57.4097 36.2832 57.3081 36.5371 57.1558 36.7402L54.6046 39.7109C54.3888 39.9395 54.0969 40.0918 53.7795 40.0918H45.8719C45.5546 40.0918 45.25 39.9395 45.0469 39.7109L42.5083 36.7402C42.3373 36.5428 42.2427 36.2905 42.2418 36.0293V29.25ZM45.4911 36.8291C45.7773 36.8291 46.0517 36.7154 46.254 36.513C46.4563 36.3107 46.57 36.0362 46.57 35.75V34.6709C46.57 34.3847 46.4563 34.1102 46.254 33.9079C46.0517 33.7055 45.7773 33.5918 45.4911 33.5918C45.205 33.5918 44.9306 33.7055 44.7282 33.9079C44.5259 34.1102 44.4122 34.3847 44.4122 34.6709V35.75C44.4122 36.0362 44.5259 36.3107 44.7282 36.513C44.9306 36.7154 45.205 36.8291 45.4911 36.8291ZM49.8194 33.5791C49.9621 33.5808 50.1038 33.5541 50.2361 33.5006C50.3685 33.4472 50.489 33.3679 50.5905 33.2676C50.692 33.1672 50.7726 33.0477 50.8276 32.9159C50.8826 32.7841 50.911 32.6428 50.911 32.5V31.4209C50.911 31.133 50.7966 30.8569 50.5931 30.6534C50.3896 30.4498 50.1135 30.3354 49.8257 30.3354C49.5379 30.3354 49.2619 30.4498 49.0583 30.6534C48.8548 30.8569 48.7405 31.133 48.7405 31.4209V32.5C48.7405 32.7862 48.8542 33.0607 49.0565 33.263C49.2588 33.4654 49.5332 33.5791 49.8194 33.5791ZM54.1603 36.8291C54.4465 36.8291 54.7209 36.7154 54.9232 36.513C55.1255 36.3107 55.2392 36.0362 55.2392 35.75V34.6709C55.2392 34.3847 55.1255 34.1102 54.9232 33.9079C54.7209 33.7055 54.4465 33.5918 54.1603 33.5918C53.8742 33.5918 53.5998 33.7055 53.3974 33.9079C53.1951 34.1102 53.0814 34.3847 53.0814 34.6709V35.75C53.0814 36.0362 53.1951 36.3107 53.3974 36.513C53.5998 36.7154 53.8742 36.8291 54.1603 36.8291ZM43.3206 57.4209H56.3181C57.1799 57.4209 58.0064 57.0785 58.6158 56.469C59.2251 55.8595 59.5675 55.0329 59.5675 54.1709V47.6709C59.5675 46.8089 59.2251 45.9823 58.6158 45.3728C58.0064 44.7633 57.1799 44.4209 56.3181 44.4209H43.3206C42.4589 44.4209 41.6324 44.7633 41.023 45.3728C40.4136 45.9823 40.0713 46.8089 40.0713 47.6709V54.1709C40.0713 55.0329 40.4136 55.8595 41.023 56.469C41.6324 57.0785 42.4589 57.4209 43.3206 57.4209ZM50.911 46.5791H56.3181C56.9147 46.5791 57.4097 47.0742 57.4097 47.6709V54.1709C57.4097 54.7676 56.9147 55.25 56.3181 55.25H50.911V46.5791ZM42.2418 47.6709C42.2418 47.0742 42.7241 46.5791 43.3206 46.5791H48.7405V55.25H43.3206C43.0345 55.25 42.7601 55.1363 42.5578 54.9339C42.3554 54.7316 42.2418 54.4571 42.2418 54.1709V47.6709ZM45.4911 53.0791C45.7773 53.0791 46.0517 52.9654 46.254 52.763C46.4563 52.5607 46.57 52.2862 46.57 52V49.8418C46.57 49.5556 46.4563 49.2811 46.254 49.0788C46.0517 48.8764 45.7773 48.7627 45.4911 48.7627C45.205 48.7627 44.9306 48.8764 44.7282 49.0788C44.5259 49.2811 44.4122 49.5556 44.4122 49.8418V52C44.4122 52.2862 44.5259 52.5607 44.7282 52.763C44.9306 52.9654 45.205 53.0791 45.4911 53.0791ZM54.7569 50.0195L54.5665 49.918L54.3761 49.8545C54.1635 49.8031 53.9397 49.8255 53.7415 49.918L53.5511 50.0195L53.3861 50.1465C53.1891 50.352 53.076 50.6236 53.0687 50.9082C53.0687 51.0605 53.0941 51.2002 53.1576 51.3271C53.2084 51.4541 53.2845 51.5811 53.3861 51.6826C53.592 51.882 53.8674 51.9934 54.154 51.9934C54.4406 51.9934 54.7159 51.882 54.9219 51.6826C55.0234 51.5811 55.0996 51.4541 55.1504 51.3271C55.2138 51.2002 55.2392 51.0605 55.2392 50.9209C55.232 50.6363 55.1188 50.3647 54.9219 50.1592C54.8711 50.0957 54.8204 50.0576 54.7569 50.0195ZM7.57762 60.6709C8.43941 60.6709 9.2659 60.3285 9.87527 59.719C10.4846 59.1095 10.827 58.2829 10.827 57.4209C10.827 56.5589 10.4846 55.7323 9.87527 55.1228C9.2659 54.5133 8.43941 54.1709 7.57762 54.1709C6.71584 54.1709 5.88935 54.5133 5.27997 55.1228C4.6706 55.7323 4.32826 56.5589 4.32826 57.4209C4.32826 58.2829 4.6706 59.1095 5.27997 59.719C5.88935 60.3285 6.71584 60.6709 7.57762 60.6709ZM7.57762 56.3291C7.86545 56.3291 8.14148 56.4435 8.345 56.647C8.54852 56.8506 8.66286 57.1267 8.66286 57.4146C8.66286 57.7024 8.54852 57.9785 8.345 58.1821C8.14148 58.3856 7.86545 58.5 7.57762 58.5C7.29148 58.5 7.01706 58.3863 6.81473 58.1839C6.6124 57.9816 6.49873 57.7071 6.49873 57.4209C6.49873 57.1347 6.6124 56.8602 6.81473 56.6579C7.01706 56.4555 7.29148 56.3418 7.57762 56.3418V56.3291ZM7.57762 28.1709C8.00434 28.1709 8.42687 28.0868 8.8211 27.9235C9.21533 27.7602 9.57354 27.5208 9.87527 27.219C10.177 26.9172 10.4163 26.5589 10.5796 26.1646C10.7429 25.7703 10.827 25.3477 10.827 24.9209C10.827 24.4941 10.7429 24.0715 10.5796 23.6772C10.4163 23.2829 10.177 22.9246 9.87527 22.6228C9.57354 22.321 9.21533 22.0816 8.8211 21.9183C8.42687 21.755 8.00434 21.6709 7.57762 21.6709C6.71584 21.6709 5.88935 22.0133 5.27997 22.6228C4.6706 23.2323 4.32826 24.0589 4.32826 24.9209C4.32826 25.7829 4.6706 26.6095 5.27997 27.219C5.88935 27.8285 6.71584 28.1709 7.57762 28.1709ZM7.57762 23.8291C7.86545 23.8291 8.14148 23.9435 8.345 24.147C8.54852 24.3506 8.66286 24.6267 8.66286 24.9146C8.66286 25.2024 8.54852 25.4785 8.345 25.6821C8.14148 25.8856 7.86545 26 7.57762 26C7.29148 26 7.01706 25.8863 6.81473 25.6839C6.6124 25.4816 6.49873 25.2071 6.49873 24.9209C6.49873 24.6347 6.6124 24.3602 6.81473 24.1579C7.01706 23.9555 7.29148 23.8418 7.57762 23.8418V23.8291ZM33.5725 28.1709C33.9993 28.1709 34.4218 28.0868 34.816 27.9235C35.2103 27.7602 35.5685 27.5208 35.8702 27.219C36.1719 26.9172 36.4113 26.5589 36.5746 26.1646C36.7379 25.7703 36.8219 25.3477 36.8219 24.9209C36.8219 24.4941 36.7379 24.0715 36.5746 23.6772C36.4113 23.2829 36.1719 22.9246 35.8702 22.6228C35.5685 22.321 35.2103 22.0816 34.816 21.9183C34.4218 21.755 33.9993 21.6709 33.5725 21.6709C32.7108 21.6709 31.8843 22.0133 31.2749 22.6228C30.6655 23.2323 30.3232 24.0589 30.3232 24.9209C30.3232 25.7829 30.6655 26.6095 31.2749 27.219C31.8843 27.8285 32.7108 28.1709 33.5725 28.1709ZM33.5725 23.8291C33.8604 23.8291 34.1364 23.9435 34.3399 24.147C34.5434 24.3506 34.6578 24.6267 34.6578 24.9146C34.6578 25.2024 34.5434 25.4785 34.3399 25.6821C34.1364 25.8856 33.8604 26 33.5725 26C33.2864 26 33.012 25.8863 32.8097 25.6839C32.6073 25.4816 32.4937 25.2071 32.4937 24.9209C32.4937 24.6347 32.6073 24.3602 32.8097 24.1579C33.012 23.9555 33.2864 23.8418 33.5725 23.8418V23.8291ZM33.5725 54.1709C32.7108 54.1709 31.8843 54.5133 31.2749 55.1228C30.6655 55.7323 30.3232 56.5589 30.3232 57.4209C30.3232 58.2829 30.6655 59.1095 31.2749 59.719C31.8843 60.3285 32.7108 60.6709 33.5725 60.6709C34.4343 60.6709 35.2608 60.3285 35.8702 59.719C36.4796 59.1095 36.8219 58.2829 36.8219 57.4209C36.8219 56.5589 36.4796 55.7323 35.8702 55.1228C35.2608 54.5133 34.4343 54.1709 33.5725 54.1709ZM33.5725 58.5C33.2864 58.5 33.012 58.3863 32.8097 58.1839C32.6073 57.9816 32.4937 57.7071 32.4937 57.4209C32.4937 57.1347 32.6073 56.8602 32.8097 56.6579C33.012 56.4555 33.2864 56.3418 33.5725 56.3418C33.8587 56.3418 34.1331 56.4555 34.3354 56.6579C34.5378 56.8602 34.6514 57.1347 34.6514 57.4209C34.6514 57.7071 34.5378 57.9816 34.3354 58.1839C34.1331 58.3863 33.8587 58.5 33.5725 58.5ZM64.9619 18.2812V18.1543L61.4333 4.10059C61.1418 2.93032 60.4675 1.89111 59.5177 1.14813C58.5679 0.405141 57.397 0.00102105 56.1912 0L8.79613 0C7.59033 0.00102105 6.41946 0.405141 5.46963 1.14813C4.51981 1.89111 3.84554 2.93032 3.55399 4.10059L0.0380785 18.1543V18.2812L0 18.4082V60.6836C0.00668938 61.8285 0.46525 62.9244 1.27587 63.7328C2.08649 64.5412 3.18355 64.9967 4.32826 65H60.6717C61.8186 64.9967 62.9176 64.5395 63.7286 63.7283C64.5396 62.9172 64.9967 61.818 65 60.6709V18.4082L64.9746 18.2812H64.9619ZM5.64831 4.63379C5.82124 3.92882 6.22515 3.30204 6.79565 2.85337C7.36615 2.40471 8.0704 2.15998 8.79613 2.1582H56.1912C57.6762 2.1582 58.9836 3.17383 59.339 4.62109L62.5122 17.3164H2.4751L5.64831 4.62109V4.63379ZM62.8168 60.6709C62.8168 61.2433 62.5895 61.7922 62.1848 62.197C61.7802 62.6017 61.2313 62.8291 60.6591 62.8291H4.31556C3.74328 62.8291 3.19444 62.6017 2.78978 62.197C2.38512 61.7922 2.15778 61.2433 2.15778 60.6709V19.5H62.8041V60.6709H62.8168ZM32.4937 5.4209C28.1781 5.4209 24.916 7.27441 24.916 9.75C24.916 12.2256 28.1654 14.0791 32.4937 14.0791C36.8092 14.0791 40.0713 12.2256 40.0713 9.75C40.0713 7.27441 36.8219 5.4209 32.4937 5.4209ZM32.4937 11.9209C29.1935 11.9209 27.0738 10.6387 27.0738 9.75C27.0738 8.86133 29.1935 7.5918 32.4937 7.5918C35.7938 7.5918 37.9135 8.86133 37.9135 9.75C37.9135 10.6387 35.7938 11.9082 32.4937 11.9082V11.9209Z" fill="black"/>
</svg>
