<svg width="56" height="56" viewBox="0 0 56 56" fill="none" xmlns="http://www.w3.org/2000/svg">
<path d="M54.2661 11.5548C54.5543 11.5548 54.8307 11.4403 55.0345 11.2365C55.2383 11.0327 55.3528 10.7563 55.3528 10.4681C55.3528 10.1799 55.2383 9.90346 55.0345 9.69966C54.8307 9.49586 54.5543 9.38137 54.2661 9.38137H50.9932V7.18235C50.9949 6.89585 50.9399 6.61185 50.8314 6.34668C50.7229 6.0815 50.5631 5.84039 50.3611 5.63721C50.1591 5.43403 49.919 5.2728 49.6544 5.16277C49.3899 5.05275 49.1062 4.99611 48.8197 4.99611H46.6207V1.73594C46.6207 1.44603 46.5055 1.16799 46.3005 0.962988C46.0955 0.757989 45.8175 0.642822 45.5276 0.642822C45.2377 0.642822 44.9596 0.757989 44.7546 0.962988C44.5496 1.16799 44.4345 1.44603 44.4345 1.73594V5.0089H42.261V1.73594C42.261 1.44603 42.1458 1.16799 41.9408 0.962988C41.7358 0.757989 41.4578 0.642822 41.1679 0.642822C40.878 0.642822 40.5999 0.757989 40.3949 0.962988C40.1899 1.16799 40.0748 1.44603 40.0748 1.73594V5.0089H37.8885V1.73594C37.8885 1.44772 37.7741 1.17131 37.5703 0.967509C37.3665 0.763708 37.09 0.649215 36.8018 0.649215C36.5136 0.649215 36.2372 0.763708 36.0334 0.967509C35.8296 1.17131 35.7151 1.44772 35.7151 1.73594V5.0089H33.5289V1.73594C33.5289 1.44603 33.4137 1.16799 33.2087 0.962988C33.0037 0.757989 32.7257 0.642822 32.4357 0.642822C32.1458 0.642822 31.8678 0.757989 31.6628 0.962988C31.4578 1.16799 31.3426 1.44603 31.3426 1.73594V5.0089H29.1692V1.73594C29.1692 1.44603 29.054 1.16799 28.849 0.962988C28.644 0.757989 28.366 0.642822 28.0761 0.642822C27.7861 0.642822 27.5081 0.757989 27.3031 0.962988C27.0981 1.16799 26.9829 1.44603 26.9829 1.73594V5.0089H24.7967V1.73594C24.7967 1.44772 24.6822 1.17131 24.4784 0.967509C24.2746 0.763708 23.9982 0.649215 23.71 0.649215C23.4218 0.649215 23.1454 0.763708 22.9416 0.967509C22.7378 1.17131 22.6233 1.44772 22.6233 1.73594V5.0089H20.437V1.73594C20.437 1.44603 20.3219 1.16799 20.1169 0.962988C19.9119 0.757989 19.6338 0.642822 19.3439 0.642822C19.054 0.642822 18.776 0.757989 18.571 0.962988C18.366 1.16799 18.2508 1.44603 18.2508 1.73594V5.0089H16.0773V1.73594C16.0773 1.44603 15.9622 1.16799 15.7572 0.962988C15.5522 0.757989 15.2741 0.642822 14.9842 0.642822C14.6943 0.642822 14.4163 0.757989 14.2113 0.962988C14.0063 1.16799 13.8911 1.44603 13.8911 1.73594V5.0089H11.7177V1.73594C11.7177 1.44772 11.6032 1.17131 11.3994 0.967509C11.1956 0.763708 10.9192 0.649215 10.6309 0.649215C10.3427 0.649215 10.0663 0.763708 9.8625 0.967509C9.6587 1.17131 9.54421 1.44772 9.54421 1.73594V5.0089H7.34519C7.05869 5.00721 6.77469 5.06219 6.50952 5.17066C6.24435 5.27913 6.00324 5.43896 5.80006 5.64095C5.59688 5.84294 5.43564 6.08311 5.32561 6.34764C5.21559 6.61217 5.15895 6.89585 5.15895 7.18235V9.38137H1.89878C1.60887 9.38137 1.33083 9.49653 1.12583 9.70153C0.920831 9.90653 0.805664 10.1846 0.805664 10.4745C0.805664 10.7644 0.920831 11.0424 1.12583 11.2474C1.33083 11.4524 1.60887 11.5676 1.89878 11.5676H5.17174V13.7411H1.89878C1.60887 13.7411 1.33083 13.8562 1.12583 14.0612C0.920831 14.2662 0.805664 14.5443 0.805664 14.8342C0.805664 15.1241 0.920831 15.4021 1.12583 15.6071C1.33083 15.8121 1.60887 15.9273 1.89878 15.9273H5.17174V18.1135H1.89878C1.61056 18.1135 1.33415 18.228 1.13035 18.4318C0.92655 18.6356 0.812056 18.912 0.812056 19.2002C0.812056 19.4885 0.92655 19.7649 1.13035 19.9687C1.33415 20.1725 1.61056 20.287 1.89878 20.287H5.17174V22.4732H1.89878C1.60887 22.4732 1.33083 22.5884 1.12583 22.7934C0.920831 22.9984 0.805664 23.2764 0.805664 23.5663C0.805664 23.8562 0.920831 24.1343 1.12583 24.3393C1.33083 24.5443 1.60887 24.6594 1.89878 24.6594H5.17174V26.8329H1.89878C1.60887 26.8329 1.33083 26.9481 1.12583 27.1531C0.920831 27.3581 0.805664 27.6361 0.805664 27.926C0.805664 28.2159 0.920831 28.494 1.12583 28.699C1.33083 28.904 1.60887 29.0191 1.89878 29.0191H5.17174V31.2054H1.89878C1.61056 31.2054 1.33415 31.3198 1.13035 31.5236C0.92655 31.7274 0.812056 32.0039 0.812056 32.2921C0.812056 32.5803 0.92655 32.8567 1.13035 33.0605C1.33415 33.2643 1.61056 33.3788 1.89878 33.3788H5.17174V35.565H1.89878C1.60887 35.565 1.33083 35.6802 1.12583 35.8852C0.920831 36.0902 0.805664 36.3682 0.805664 36.6582C0.805664 36.9481 0.920831 37.2261 1.12583 37.4311C1.33083 37.6361 1.60887 37.7513 1.89878 37.7513H5.17174V39.9247H1.89878C1.60887 39.9247 1.33083 40.0399 1.12583 40.2449C0.920831 40.4499 0.805664 40.7279 0.805664 41.0178C0.805664 41.3078 0.920831 41.5858 1.12583 41.7908C1.33083 41.9958 1.60887 42.111 1.89878 42.111H5.17174V44.2844H1.89878C1.61056 44.2844 1.33415 44.3989 1.13035 44.6027C0.92655 44.8065 0.812056 45.0829 0.812056 45.3711C0.812056 45.6593 0.92655 45.9358 1.13035 46.1396C1.33415 46.3434 1.61056 46.4579 1.89878 46.4579H5.17174V48.6441C5.17005 48.9306 5.22503 49.2146 5.3335 49.4798C5.44197 49.7449 5.6018 49.986 5.80379 50.1892C6.00578 50.3924 6.24595 50.5536 6.51048 50.6637C6.77501 50.7737 7.05869 50.8303 7.34519 50.8303H9.54421V54.1033C9.54421 54.3932 9.65938 54.6712 9.86437 54.8762C10.0694 55.0812 10.3474 55.1964 10.6373 55.1964C10.9272 55.1964 11.2053 55.0812 11.4103 54.8762C11.6153 54.6712 11.7304 54.3932 11.7304 54.1033V50.8303H13.9039V54.1033C13.9039 54.3932 14.0191 54.6712 14.2241 54.8762C14.4291 55.0812 14.7071 55.1964 14.997 55.1964C15.2869 55.1964 15.565 55.0812 15.77 54.8762C15.975 54.6712 16.0901 54.3932 16.0901 54.1033V50.8303H18.2764V54.1033C18.2764 54.3915 18.3909 54.6679 18.5947 54.8717C18.7985 55.0755 19.0749 55.19 19.3631 55.19C19.6513 55.19 19.9277 55.0755 20.1315 54.8717C20.3353 54.6679 20.4498 54.3915 20.4498 54.1033V50.8303H22.636V54.1033C22.636 54.3932 22.7512 54.6712 22.9562 54.8762C23.1612 55.0812 23.4392 55.1964 23.7292 55.1964C24.0191 55.1964 24.2971 55.0812 24.5021 54.8762C24.7071 54.6712 24.8223 54.3932 24.8223 54.1033V50.8303H26.9957V54.1033C26.9957 54.3932 27.1109 54.6712 27.3159 54.8762C27.5209 55.0812 27.7989 55.1964 28.0888 55.1964C28.3788 55.1964 28.6568 55.0812 28.8618 54.8762C29.0668 54.6712 29.182 54.3932 29.182 54.1033V50.8303H31.3682V54.1033C31.3682 54.3915 31.4827 54.6679 31.6865 54.8717C31.8903 55.0755 32.1667 55.19 32.4549 55.19C32.7431 55.19 33.0196 55.0755 33.2234 54.8717C33.4272 54.6679 33.5416 54.3915 33.5416 54.1033V50.8303H35.7279V54.1033C35.7279 54.3932 35.843 54.6712 36.048 54.8762C36.253 55.0812 36.5311 55.1964 36.821 55.1964C37.1109 55.1964 37.3889 55.0812 37.5939 54.8762C37.7989 54.6712 37.9141 54.3932 37.9141 54.1033V50.8303H40.0876V54.1033C40.0876 54.3932 40.2027 54.6712 40.4077 54.8762C40.6127 55.0812 40.8908 55.1964 41.1807 55.1964C41.4706 55.1964 41.7486 55.0812 41.9536 54.8762C42.1586 54.6712 42.2738 54.3932 42.2738 54.1033V50.8303H44.4472V54.1033C44.4472 54.3915 44.5617 54.6679 44.7655 54.8717C44.9693 55.0755 45.2458 55.19 45.534 55.19C45.8222 55.19 46.0986 55.0755 46.3024 54.8717C46.5062 54.6679 46.6207 54.3915 46.6207 54.1033V50.8303H48.8069C49.0934 50.832 49.3774 50.777 49.6426 50.6686C49.9078 50.5601 50.1489 50.4003 50.3521 50.1983C50.5552 49.9963 50.7165 49.7561 50.8265 49.4916C50.9365 49.227 50.9932 48.9434 50.9932 48.6569V46.4579H54.2661C54.556 46.4579 54.8341 46.3427 55.0391 46.1377C55.2441 45.9327 55.3592 45.6547 55.3592 45.3647C55.3592 45.0748 55.2441 44.7968 55.0391 44.5918C54.8341 44.3868 54.556 44.2716 54.2661 44.2716H50.9932V42.0982H54.2661C54.556 42.0982 54.8341 41.983 55.0391 41.778C55.2441 41.573 55.3592 41.295 55.3592 41.0051C55.3592 40.7151 55.2441 40.4371 55.0391 40.2321C54.8341 40.0271 54.556 39.9119 54.2661 39.9119H50.9932V37.7257H54.2661C54.5543 37.7257 54.8307 37.6112 55.0345 37.4074C55.2383 37.2036 55.3528 36.9272 55.3528 36.639C55.3528 36.3508 55.2383 36.0743 55.0345 35.8705C54.8307 35.6667 54.5543 35.5523 54.2661 35.5523H50.9932V33.366H54.2661C54.556 33.366 54.8341 33.2509 55.0391 33.0459C55.2441 32.8409 55.3592 32.5628 55.3592 32.2729C55.3592 31.983 55.2441 31.705 55.0391 31.5C54.8341 31.295 54.556 31.1798 54.2661 31.1798H50.9932V29.0063H54.2661C54.556 29.0063 54.8341 28.8912 55.0391 28.6862C55.2441 28.4812 55.3592 28.2031 55.3592 27.9132C55.3592 27.6233 55.2441 27.3453 55.0391 27.1403C54.8341 26.9353 54.556 26.8201 54.2661 26.8201H50.9932V24.6339H54.2661C54.5543 24.6339 54.8307 24.5194 55.0345 24.3156C55.2383 24.1118 55.3528 23.8354 55.3528 23.5471C55.3528 23.2589 55.2383 22.9825 55.0345 22.7787C54.8307 22.5749 54.5543 22.4604 54.2661 22.4604H50.9932V20.2742H54.2661C54.556 20.2742 54.8341 20.159 55.0391 19.954C55.2441 19.749 55.3592 19.471 55.3592 19.1811C55.3592 18.8912 55.2441 18.6131 55.0391 18.4081C54.8341 18.2031 54.556 18.0879 54.2661 18.0879H50.9932V15.9145H54.2661C54.556 15.9145 54.8341 15.7993 55.0391 15.5943C55.2441 15.3893 55.3592 15.1113 55.3592 14.8214C55.3592 14.5315 55.2441 14.2534 55.0391 14.0484C54.8341 13.8434 54.556 13.7283 54.2661 13.7283H50.9932V11.5548H54.2661ZM48.8069 48.6441H7.37076V7.20792H48.7941V48.6313L48.8069 48.6441Z" fill="black"/>
</svg>
