<svg width="65" height="65" viewBox="0 0 65 65" fill="none" xmlns="http://www.w3.org/2000/svg">
<path d="M64.6799 20.2567L61.607 17.1965L59.3214 14.8856C59.2208 14.7819 59.1004 14.6995 58.9674 14.6432C58.8343 14.5869 58.6913 14.5579 58.5469 14.5579C58.4024 14.5579 58.2594 14.5869 58.1264 14.6432C57.9933 14.6995 57.8729 14.7819 57.7723 14.8856C57.5666 15.0684 57.2987 15.1657 57.0236 15.1576C56.7484 15.1495 56.4868 15.0366 56.2922 14.842C56.0975 14.6473 55.9846 14.3857 55.9765 14.1105C55.9684 13.8354 56.0657 13.5676 56.2486 13.3618C56.4502 13.1595 56.5634 12.8856 56.5634 12.5999C56.5634 12.3143 56.4502 12.0404 56.2486 11.8381L53.1757 8.76522C52.9734 8.56361 52.6995 8.45041 52.4138 8.45041C52.1282 8.45041 51.8543 8.56361 51.652 8.76522C51.4445 8.96169 51.1695 9.07118 50.8838 9.07118C50.598 9.07118 50.3231 8.96169 50.1155 8.76522C50.0138 8.66481 49.933 8.5452 49.8779 8.41333C49.8228 8.28145 49.7944 8.13994 49.7944 7.997C49.7944 7.85406 49.8228 7.71255 49.8779 7.58067C49.933 7.4488 50.0138 7.32919 50.1155 7.22878C50.3172 7.02648 50.4304 6.75252 50.4304 6.46692C50.4304 6.18131 50.3172 5.90735 50.1155 5.70505L44.7571 0.321184C44.6567 0.219446 44.5371 0.138664 44.4052 0.0835281C44.2733 0.0283921 44.1318 0 43.9889 0C43.8459 0 43.7044 0.0283921 43.5725 0.0835281C43.4407 0.138664 43.321 0.219446 43.2206 0.321184L0.314804 43.2397C0.113201 43.442 0 43.716 0 44.0016C0 44.2872 0.113201 44.5612 0.314804 44.7635L5.67327 50.1346C5.77367 50.2364 5.89328 50.3171 6.02516 50.3723C6.15704 50.4274 6.29855 50.4558 6.44149 50.4558C6.58443 50.4558 6.72594 50.4274 6.85782 50.3723C6.98969 50.3171 7.1093 50.2364 7.2097 50.1346C7.41546 49.9518 7.6833 49.8544 7.95844 49.8625C8.23358 49.8706 8.49523 49.9836 8.68987 50.1782C8.88451 50.3728 8.99742 50.6345 9.00552 50.9096C9.01362 51.1848 8.91629 51.4526 8.73344 51.6584C8.6317 51.7588 8.55092 51.8784 8.49578 52.0102C8.44065 52.1421 8.41226 52.2836 8.41226 52.4266C8.41226 52.5695 8.44065 52.711 8.49578 52.8429C8.55092 52.9748 8.6317 53.0944 8.73344 53.1948L11.8063 56.2677C12.0086 56.4693 12.2826 56.5825 12.5682 56.5825C12.8538 56.5825 13.1277 56.4693 13.33 56.2677C13.5376 56.0712 13.8125 55.9617 14.0983 55.9617C14.384 55.9617 14.6589 56.0712 14.8665 56.2677C15.0681 56.47 15.1813 56.7439 15.1813 57.0295C15.1813 57.3151 15.0681 57.5891 14.8665 57.7914C14.7647 57.8918 14.684 58.0114 14.6288 58.1433C14.5737 58.2752 14.5453 58.4167 14.5453 58.5596C14.5453 58.7025 14.5737 58.8441 14.6288 58.9759C14.684 59.1078 14.7647 59.2274 14.8665 59.3278L17.1648 61.6261L20.2376 64.6863C20.4399 64.8879 20.7139 65.0011 20.9995 65.0011C21.2851 65.0011 21.5591 64.8879 21.7614 64.6863L64.6799 21.7805C64.8815 21.5781 64.9947 21.3042 64.9947 21.0186C64.9947 20.733 64.8815 20.459 64.6799 20.2567ZM17.0378 58.4263C17.3208 57.8207 17.4103 57.1427 17.2941 56.4844C17.1778 55.8262 16.8615 55.2198 16.3882 54.7479C15.9148 54.2759 15.3075 53.9614 14.6489 53.847C13.9904 53.7327 13.3125 53.8242 12.7078 54.109L10.9048 52.3059C11.1965 51.6995 11.2929 51.0174 11.1805 50.3539C11.0681 49.6904 10.7526 49.0781 10.2774 48.6015C9.80223 48.1249 9.19086 47.8076 8.52765 47.6933C7.86445 47.579 7.18212 47.6733 6.57482 47.9633L2.6131 44.0016L43.9825 2.63218L47.9442 6.59389C47.6542 7.20119 47.5599 7.88353 47.6742 8.54673C47.7885 9.20994 48.1059 9.82131 48.5824 10.2965C49.059 10.7717 49.6713 11.0872 50.3348 11.1996C50.9984 11.3119 51.6804 11.2156 52.2869 10.9238L54.0773 12.7269C53.7899 13.3329 53.697 14.013 53.8113 14.6739C53.9256 15.3347 54.2416 15.9441 54.7158 16.4183C55.1901 16.8926 55.7994 17.2085 56.4603 17.3228C57.1212 17.4371 57.8012 17.3442 58.4072 17.0569L59.3088 17.9457L17.9393 59.3405L17.0505 58.4263H17.0378ZM20.9995 62.4007L19.4758 60.8643L20.9995 59.3405L22.5232 60.8643L20.9995 62.388V62.4007ZM24.0724 59.3278L22.5359 57.8041L57.7723 22.5423L59.3088 24.0661L24.0724 59.3151V59.3278ZM60.8452 22.555L59.3214 21.0313L60.8452 19.4822L62.3689 21.0186L60.8452 22.5423V22.555ZM7.97157 43.2397C7.87226 43.1384 7.75372 43.0578 7.6229 43.0029C7.49208 42.9479 7.35161 42.9196 7.2097 42.9196C7.0678 42.9196 6.92733 42.9479 6.79651 43.0029C6.66569 43.0578 6.54715 43.1384 6.44784 43.2397C6.34697 43.3393 6.26694 43.4579 6.21244 43.5887C6.15793 43.7195 6.13004 43.8599 6.13039 44.0016C6.13039 44.2936 6.24467 44.573 6.44784 44.7635C6.54624 44.8664 6.66448 44.9483 6.79542 45.0043C6.92637 45.0603 7.0673 45.0892 7.2097 45.0892C7.35211 45.0892 7.49304 45.0603 7.62399 45.0043C7.75493 44.9483 7.87317 44.8664 7.97157 44.7635C8.07315 44.6746 8.16204 44.5476 8.21283 44.4206C8.26362 44.2936 8.30171 44.154 8.30171 44.0143C8.30171 43.8619 8.26362 43.7222 8.21283 43.5826C8.16204 43.4556 8.08585 43.3286 7.97157 43.2397ZM43.9952 8.32079C44.2806 8.31113 44.5514 8.19259 44.7521 7.98952C44.9528 7.78644 45.0682 7.51424 45.0745 7.22878C45.0745 6.94943 44.9475 6.67008 44.7444 6.46692C44.539 6.27129 44.2662 6.16217 43.9825 6.16217C43.6988 6.16217 43.4261 6.27129 43.2206 6.46692C43.1198 6.56645 43.0397 6.68509 42.9852 6.8159C42.9307 6.94671 42.9028 7.08707 42.9032 7.22878C42.9032 7.52083 43.0175 7.78749 43.2206 7.99065C43.3195 8.09325 43.4378 8.17525 43.5686 8.23192C43.6993 8.28858 43.84 8.31879 43.9825 8.32079H43.9952ZM16.4029 40.9414C16.2023 40.7399 15.9639 40.5799 15.7013 40.4708C15.4387 40.3616 15.1572 40.3055 14.8728 40.3055C14.5885 40.3055 14.3069 40.3616 14.0443 40.4708C13.7817 40.5799 13.5433 40.7399 13.3427 40.9414L11.0444 43.2397C10.8429 43.4403 10.6829 43.6787 10.5738 43.9413C10.4647 44.2039 10.4085 44.4855 10.4085 44.7698C10.4085 45.0542 10.4647 45.3357 10.5738 45.5983C10.6829 45.8609 10.8429 46.0993 11.0444 46.2999L17.1648 52.4329C17.3656 52.6364 17.6048 52.798 17.8685 52.9082C18.1323 53.0185 18.4153 53.0753 18.7012 53.0753C18.9871 53.0753 19.2701 53.0185 19.5339 52.9082C19.7976 52.798 20.0368 52.6364 20.2376 52.4329L22.5232 50.1473C22.7267 49.9465 22.8883 49.7073 22.9986 49.4435C23.1088 49.1798 23.1656 48.8968 23.1656 48.6109C23.1656 48.325 23.1088 48.042 22.9986 47.7782C22.8883 47.5145 22.7267 47.2753 22.5232 47.0745L16.4029 40.9414ZM20.9995 48.5982L18.7139 50.8965L12.5682 44.7762L14.8665 42.4779L20.9995 48.5982ZM23.2978 34.0465C23.0972 33.845 22.8588 33.685 22.5962 33.5759C22.3336 33.4667 22.0521 33.4106 21.7677 33.4106C21.4834 33.4106 21.2018 33.4667 20.9392 33.5759C20.6767 33.685 20.4382 33.845 20.2376 34.0465L17.9393 36.3321C17.7378 36.5327 17.5778 36.7711 17.4687 37.0337C17.3596 37.2963 17.3034 37.5778 17.3034 37.8622C17.3034 38.1466 17.3596 38.4281 17.4687 38.6907C17.5778 38.9533 17.7378 39.1917 17.9393 39.3923L24.0724 45.5253C24.477 45.9285 25.0249 46.1549 25.5961 46.1549C26.1673 46.1549 26.7152 45.9285 27.1198 45.5253L29.4308 43.227C29.6324 43.0264 29.7923 42.788 29.9015 42.5254C30.0106 42.2629 30.0668 41.9813 30.0668 41.6969C30.0668 41.4126 30.0106 41.131 29.9015 40.8685C29.7923 40.6059 29.6324 40.3674 29.4308 40.1669L23.2978 34.0465ZM25.5961 44.0016L19.4631 37.8813L21.7614 35.583L27.8944 41.7033L25.6088 44.0016H25.5961ZM30.1927 27.1516C29.7798 26.7595 29.2321 26.5409 28.6626 26.5409C28.0932 26.5409 27.5455 26.7595 27.1325 27.1516L24.8342 29.4372C24.6308 29.638 24.4692 29.8772 24.3589 30.141C24.2487 30.4047 24.1919 30.6878 24.1919 30.9737C24.1919 31.2595 24.2487 31.5426 24.3589 31.8063C24.4692 32.0701 24.6308 32.3093 24.8342 32.5101L30.9673 38.6431C31.3719 39.0463 31.9198 39.2727 32.491 39.2727C33.0622 39.2727 33.6101 39.0463 34.0147 38.6431L36.3257 36.3448C36.5273 36.1442 36.6872 35.9058 36.7964 35.6432C36.9055 35.3806 36.9617 35.0991 36.9617 34.8147C36.9617 34.5304 36.9055 34.2488 36.7964 33.9862C36.6872 33.7237 36.5273 33.4852 36.3257 33.2847L30.1927 27.1516ZM32.5037 37.094L26.3707 30.999L28.6563 28.7007L34.7893 34.8084L32.5037 37.1067V37.094ZM46.2808 11.0635C46.0802 10.862 45.8418 10.702 45.5792 10.5929C45.3166 10.4837 45.0351 10.4276 44.7507 10.4276C44.4664 10.4276 44.1848 10.4837 43.9222 10.5929C43.6597 10.702 43.4212 10.862 43.2206 11.0635L31.7291 22.555C31.5276 22.7556 31.3676 22.994 31.2585 23.2566C31.1494 23.5192 31.0932 23.8007 31.0932 24.0851C31.0932 24.3695 31.1494 24.651 31.2585 24.9136C31.3676 25.1762 31.5276 25.4146 31.7291 25.6152L37.8622 31.7482C38.2689 32.1522 38.819 32.3789 39.3923 32.3789C39.9656 32.3789 40.5156 32.1522 40.9223 31.7482L52.4138 20.2567C52.6173 20.0559 52.7789 19.8167 52.8892 19.5529C52.9994 19.2892 53.0562 19.0062 53.0562 18.7203C53.0562 18.4344 52.9994 18.1514 52.8892 17.8876C52.7789 17.6239 52.6173 17.3847 52.4138 17.1839L46.2808 11.0635ZM50.8774 18.7203L49.3537 20.244L48.5918 19.4822C48.3881 19.2784 48.1117 19.1639 47.8236 19.1639C47.5355 19.1639 47.2591 19.2784 47.0554 19.4822C46.8516 19.6859 46.7372 19.9622 46.7372 20.2504C46.7372 20.5385 46.8516 20.8148 47.0554 21.0186L47.8172 21.7805L46.2935 23.3169L45.5189 22.555C45.4212 22.4451 45.3021 22.3563 45.1688 22.294C45.0355 22.2318 44.891 22.1975 44.7439 22.1931C44.5969 22.1888 44.4506 22.2146 44.3139 22.2689C44.1772 22.3231 44.053 22.4048 43.949 22.5088C43.845 22.6128 43.7633 22.737 43.7091 22.8737C43.6548 23.0104 43.629 23.1567 43.6333 23.3037C43.6377 23.4508 43.672 23.5954 43.7342 23.7286C43.7965 23.8619 43.8853 23.981 43.9952 24.0788L44.7571 24.8406L43.2206 26.3897L42.4588 25.6279C42.3587 25.527 42.2398 25.4468 42.1087 25.3919C41.9777 25.337 41.8371 25.3084 41.695 25.3078C41.4081 25.3066 41.1324 25.4195 40.9287 25.6215C40.725 25.8236 40.6098 26.0983 40.6086 26.3853C40.6074 26.6722 40.7203 26.9479 40.9223 27.1516L41.6842 27.9135L39.3986 30.2118L33.2656 24.0914L44.7571 12.5873L50.8774 18.7203ZM40.9223 19.4822L37.8622 22.555C37.7522 22.6527 37.6634 22.7719 37.6012 22.9051C37.539 23.0384 37.5046 23.183 37.5003 23.33C37.496 23.477 37.5217 23.6234 37.576 23.7601C37.6303 23.8968 37.712 24.021 37.816 24.125C37.92 24.229 38.0441 24.3106 38.1808 24.3649C38.3175 24.4192 38.4639 24.445 38.6109 24.4406C38.7579 24.4363 38.9025 24.402 39.0358 24.3397C39.1691 24.2775 39.2882 24.1887 39.3859 24.0788L42.4588 21.0313C42.6642 20.8275 42.7803 20.5505 42.7815 20.2612C42.7827 19.9719 42.6689 19.6939 42.4651 19.4885C42.2614 19.2831 41.9844 19.167 41.695 19.1658C41.4057 19.1646 41.1278 19.2784 40.9223 19.4822ZM43.6651 17.1965C43.669 17.4096 43.7352 17.6168 43.8554 17.7926C43.9757 17.9685 44.1448 18.1053 44.3418 18.1863C44.5389 18.2673 44.7553 18.2889 44.9644 18.2484C45.1736 18.2079 45.3664 18.1071 45.5189 17.9584C45.7204 17.7558 45.8343 17.4823 45.8364 17.1965C45.8364 17.0442 45.811 16.9045 45.7602 16.7648C45.6901 16.6004 45.5807 16.4557 45.4416 16.3434C45.3025 16.2311 45.138 16.1547 44.9625 16.1209C44.787 16.087 44.6058 16.0968 44.435 16.1493C44.2641 16.2018 44.1087 16.2954 43.9825 16.422C43.7822 16.6254 43.6685 16.8984 43.6651 17.1839V17.1965Z" fill="black"/>
</svg>
