<svg width="65" height="65" viewBox="0 0 65 65" fill="none" xmlns="http://www.w3.org/2000/svg">
<path d="M62.1911 48.7514L56.6084 43.1676L41.2561 31.8732L47.2194 25.9087C49.7018 26.7911 52.39 26.9175 54.9442 26.272C57.4984 25.6265 59.8039 24.2381 61.5693 22.2822C63.3347 20.3263 64.4806 17.8909 64.8623 15.2837C65.244 12.6765 64.8442 10.0146 63.7136 7.63462C63.0792 6.36558 61.5567 6.11177 60.6685 7.127L55.7203 11.9493C55.3538 12.2243 54.9004 12.3577 54.4434 12.3253C53.9865 12.2928 53.5565 12.0965 53.2326 11.7725C52.9086 11.4485 52.7124 11.0185 52.68 10.5614C52.6475 10.1044 52.7809 9.65094 53.0558 9.28436L57.8772 4.33513C58.8922 3.4468 58.6385 1.92396 57.3697 1.28944C54.9901 0.158596 52.3288 -0.241221 49.7221 0.140534C47.1154 0.522289 44.6804 1.66848 42.7249 3.43419C40.7695 5.19991 39.3813 7.50588 38.7359 10.0606C38.0905 12.6153 38.2169 15.304 39.0991 17.7869L32.2477 24.7666C30.852 23.6245 32.6283 25.528 19.4329 11.4417L20.8286 10.0458C21.7167 9.15746 21.5899 7.76152 20.4479 7.127L10.2976 1.03563C9.0085 0.23334 7.48583 -0.108983 5.97743 0.0643683C4.46902 0.23772 3.06367 0.916541 1.99004 1.99037C0.916423 3.0642 0.237734 4.46983 0.0644168 5.97853C-0.108901 7.48723 0.233356 9.01019 1.03549 10.2996L7.12567 20.4519C7.76007 21.594 9.15574 21.7209 10.0439 20.8326L11.4396 19.5636L23.8737 32.8884V33.0153L17.7835 39.1067C15.3011 38.2243 12.6129 38.0979 10.0587 38.7434C7.50448 39.3889 5.19896 40.7773 3.43359 42.7332C1.66821 44.6891 0.522248 47.1246 0.140568 49.7318C-0.241113 52.339 0.158626 55.0008 1.28925 57.3808C1.92364 58.6498 3.44619 58.9036 4.33434 57.8884L9.28261 53.0661C9.64911 52.7912 10.1025 52.6577 10.5594 52.6902C11.0164 52.7226 11.4463 52.9189 11.7703 53.2429C12.0942 53.5669 12.2904 53.9969 12.3229 54.454C12.3554 54.911 12.2219 55.3645 11.9471 55.7311L7.12567 60.6803C6.11064 61.5686 6.3644 63.0915 7.63319 63.726C10.1179 64.8912 12.9017 65.2606 15.6042 64.7836C18.3067 64.3066 20.7959 63.0065 22.7318 61.061C26.4113 57.3808 27.5532 52.0509 25.9037 47.2285L31.1058 42.0255L43.2861 56.7463L48.4882 61.9493C50.3913 63.9798 53.0558 64.995 55.5934 64.995C57.4966 64.995 59.3997 64.3605 61.0492 63.3453C65.7437 59.792 66.3781 52.9392 62.1911 48.7514ZM12.8352 15.5026C12.0739 14.7412 10.8052 14.7412 10.0439 15.5026L9.15574 16.391L4.20746 8.39604C3.65223 7.8407 3.34031 7.0875 3.34031 6.30213C3.34031 5.51676 3.65223 4.76356 4.20746 4.20822C4.76269 3.65288 5.51575 3.3409 6.30096 3.3409C7.08618 3.3409 7.83923 3.65288 8.39446 4.20822L16.3878 9.15746L15.4997 10.0458C14.7384 10.8072 14.7384 11.9493 15.3728 12.7108C30.5983 28.8275 28.1876 26.4163 29.4563 27.4316L26.665 30.3504C25.65 29.0813 27.9338 31.4925 12.8352 15.5026ZM22.3511 45.4519C21.7167 45.9595 21.5899 46.8478 21.9705 47.6092C22.7008 49.1681 22.9948 50.896 22.821 52.6087C22.6472 54.3215 22.0122 55.955 20.9837 57.3354C19.9551 58.7158 18.5715 59.7913 16.9802 60.4473C15.3888 61.1034 13.6494 61.3155 11.9471 61.061L14.7384 58.396C15.2716 57.8627 15.6945 57.2296 15.9831 56.5329C16.2716 55.8361 16.4202 55.0893 16.4202 54.3351C16.4202 53.5809 16.2716 52.8341 15.9831 52.1374C15.6945 51.4406 15.2716 50.8075 14.7384 50.2742C14.2052 49.7409 13.5722 49.3179 12.8756 49.0293C12.179 48.7407 11.4323 48.5921 10.6783 48.5921C9.92425 48.5921 9.1776 48.7407 8.48096 49.0293C7.78432 49.3179 7.15134 49.7409 6.61816 50.2742L3.9537 53.0661C3.69927 51.3634 3.91132 49.6237 4.56727 48.032C5.22321 46.4404 6.29849 45.0565 7.67859 44.0277C9.05868 42.9989 10.6919 42.3638 12.4043 42.19C14.1168 42.0162 15.8443 42.3102 17.4029 43.0407C18.1641 43.4214 19.0523 43.2945 19.5598 42.66L42.6517 19.5636C43.2861 19.0559 43.413 18.1676 43.0324 17.4062C42.302 15.8473 42.0081 14.1195 42.1819 12.4067C42.3556 10.6939 42.9906 9.06039 44.0192 7.68003C45.0477 6.29966 46.4314 5.22417 48.0227 4.5681C49.614 3.91202 51.3535 3.69993 53.0558 3.95441L50.2645 6.61939C49.7274 7.15049 49.301 7.78289 49.01 8.47996C48.719 9.17702 48.5692 9.92491 48.5692 10.6803C48.5692 11.4357 48.719 12.1836 49.01 12.8807C49.301 13.5777 49.7274 14.2101 50.2645 14.7412C52.5483 16.8986 56.1009 16.8986 58.3847 14.7412L61.0492 11.9493C61.3036 13.652 61.0915 15.3918 60.4356 16.9834C59.7797 18.5751 58.7044 19.959 57.3243 20.9877C55.9442 22.0165 54.311 22.6516 52.5985 22.8254C50.8861 22.9992 49.1586 22.7052 47.6 21.9747C46.8387 21.594 45.9506 21.7209 45.4431 22.3554L22.3511 45.4519ZM33.7702 39.2336L38.4647 34.5382L43.2861 38.0915L37.5766 43.8021L33.7702 39.2336ZM58.7653 60.1727C56.4815 61.8224 53.3096 61.4417 51.1526 59.2844L46.0775 54.2082L39.9873 46.8478L46.3312 40.3757L54.1977 46.2133L59.5266 51.5432C61.9373 53.9544 61.8104 58.0153 58.7653 60.1727ZM56.7353 53.8275L49.1226 46.2133C48.959 45.9951 48.7504 45.8146 48.511 45.6841C48.2716 45.5536 48.0069 45.476 47.7349 45.4567C47.4629 45.4373 47.19 45.4767 46.9345 45.572C46.6791 45.6674 46.4471 45.8166 46.2543 46.0094C46.0614 46.2023 45.9123 46.4343 45.817 46.6898C45.7216 46.9453 45.6823 47.2183 45.7016 47.4904C45.7209 47.7624 45.7985 48.0271 45.929 48.2666C46.0595 48.506 46.24 48.7146 46.4581 48.8783L54.0708 56.4925C54.4373 56.7674 54.8907 56.9009 55.3476 56.8684C55.8046 56.8359 56.2345 56.6397 56.5585 56.3157C56.8824 55.9916 57.0787 55.5616 57.1111 55.1046C57.1436 54.6475 57.0102 54.1941 56.7353 53.8275Z" fill="black"/>
</svg>
