<svg width="65" height="65" viewBox="0 0 65 65" fill="none" xmlns="http://www.w3.org/2000/svg">
<path d="M61.75 4.3291H53.0791V3.25C53.0791 2.38805 52.7367 1.5614 52.1272 0.951903C51.5177 0.34241 50.6911 0 49.8291 0L15.1709 0C14.3089 0 13.4823 0.34241 12.8728 0.951903C12.2633 1.5614 11.9209 2.38805 11.9209 3.25V4.3291H3.25C2.38805 4.3291 1.5614 4.67151 0.951903 5.281C0.34241 5.8905 0 6.71715 0 7.5791L0 63.9209C0 64.2071 0.113691 64.4816 0.316062 64.6839C0.518432 64.8863 0.792906 65 1.0791 65H63.9209C64.2071 65 64.4816 64.8863 64.6839 64.6839C64.8863 64.4816 65 64.2071 65 63.9209V7.5791C65 6.71715 64.6576 5.8905 64.0481 5.281C63.4386 4.67151 62.612 4.3291 61.75 4.3291ZM11.9209 62.8418H2.1582V7.5791C2.1582 6.98242 2.64062 6.5 3.2373 6.5H11.9082V62.8291L11.9209 62.8418ZM50.9209 62.8418H14.0791V3.25C14.0791 2.65332 14.5742 2.1709 15.1709 2.1709H49.8291C50.4258 2.1709 50.9209 2.65332 50.9209 3.25V62.8291V62.8418ZM62.8291 62.8418H53.0791V6.5H61.75C62.3467 6.5 62.8291 6.98242 62.8291 7.5791V62.8418ZM32.5 31.4209C31.3342 31.3763 30.1715 31.5673 29.0813 31.9827C27.9911 32.398 26.996 33.029 26.1555 33.838C25.3149 34.647 24.6463 35.6173 24.1895 36.6908C23.7328 37.7642 23.4974 38.9188 23.4974 40.0854C23.4974 41.2521 23.7328 42.4067 24.1895 43.4801C24.6463 44.5536 25.3149 45.5239 26.1555 46.3329C26.996 47.1419 27.9911 47.7729 29.0813 48.1882C30.1715 48.6036 31.3342 48.7946 32.5 48.75C34.7406 48.6642 36.8608 47.7138 38.4157 46.0983C39.9706 44.4827 40.8392 42.3277 40.8392 40.0854C40.8392 37.8432 39.9706 35.6882 38.4157 34.0726C36.8608 32.4571 34.7406 31.5067 32.5 31.4209ZM32.5 46.5791C30.7761 46.5791 29.1228 45.8943 27.9038 44.6753C26.6848 43.4563 26 41.803 26 40.0791C26 38.3552 26.6848 36.7019 27.9038 35.4829C29.1228 34.2639 30.7761 33.5791 32.5 33.5791C34.2239 33.5791 35.8772 34.2639 37.0962 35.4829C38.3152 36.7019 39 38.3552 39 40.0791C39 41.803 38.3152 43.4563 37.0962 44.6753C35.8772 45.8943 34.2239 46.5791 32.5 46.5791ZM35.3945 36.8672C35.2895 36.7713 35.1666 36.6971 35.0329 36.6487C34.8992 36.6003 34.7572 36.5788 34.6152 36.5853C34.4731 36.5918 34.3337 36.6262 34.205 36.6865C34.0762 36.7469 33.9606 36.832 33.8647 36.937C33.7689 37.042 33.6946 37.1649 33.6463 37.2986C33.5979 37.4324 33.5763 37.5743 33.5828 37.7164C33.5893 37.8584 33.6237 37.9978 33.6841 38.1266C33.7444 38.2553 33.8295 38.3709 33.9346 38.4668C34.2598 38.7585 34.4889 39.1419 34.5915 39.5666C34.6941 39.9912 34.6654 40.437 34.5093 40.845C34.3531 41.2529 34.0769 41.6039 33.717 41.8516C33.3571 42.0992 32.9305 42.2317 32.4937 42.2317C32.0568 42.2317 31.6302 42.0992 31.2703 41.8516C30.9104 41.6039 30.6342 41.2529 30.478 40.845C30.3219 40.437 30.2932 39.9912 30.3958 39.5666C30.4985 39.1419 30.7275 38.7585 31.0527 38.4668C31.1629 38.3732 31.2531 38.2584 31.318 38.1293C31.383 38.0002 31.4213 37.8593 31.4308 37.7151C31.4403 37.5709 31.4207 37.4262 31.3731 37.2897C31.3256 37.1532 31.2512 37.0277 31.1542 36.9205C31.0572 36.8133 30.9397 36.7267 30.8086 36.6658C30.6775 36.6049 30.5356 36.571 30.3911 36.566C30.2467 36.561 30.1027 36.5851 29.9677 36.6369C29.8328 36.6886 29.7096 36.7669 29.6055 36.8672C28.9542 37.4528 28.4959 38.2221 28.291 39.0736C28.0861 39.925 28.1443 40.8186 28.4579 41.6363C28.7715 42.4541 29.3257 43.1575 30.0474 43.6536C30.769 44.1498 31.6242 44.4154 32.5 44.4154C33.3758 44.4154 34.231 44.1498 34.9526 43.6536C35.6743 43.1575 36.2285 42.4541 36.5421 41.6363C36.8557 40.8186 36.9139 39.925 36.709 39.0736C36.5041 38.2221 36.0458 37.4528 35.3945 36.8672ZM41.1709 22.75H23.8291C23.5429 22.75 23.2684 22.8637 23.0661 23.0661C22.8637 23.2684 22.75 23.5429 22.75 23.8291V26C22.75 26.862 23.0924 27.6886 23.7019 28.2981C24.3114 28.9076 25.138 29.25 26 29.25H39C39.4268 29.25 39.8494 29.1659 40.2437 29.0026C40.638 28.8393 40.9963 28.5999 41.2981 28.2981C41.5999 27.9963 41.8393 27.638 42.0026 27.2437C42.1659 26.8494 42.25 26.4268 42.25 26V23.8418C42.2517 23.699 42.225 23.5573 42.1715 23.4249C42.1181 23.2926 42.0388 23.1721 41.9385 23.0705C41.8381 22.969 41.7186 22.8884 41.5868 22.8333C41.4551 22.7783 41.3137 22.75 41.1709 22.75ZM40.0791 26C40.0791 26.5967 39.5967 27.0791 39 27.0791H26C25.7138 27.0791 25.4393 26.9654 25.237 26.763C25.0346 26.5607 24.9209 26.2862 24.9209 26V24.9209H40.0791V26ZM41.1709 14.0918H23.8291C23.5429 14.0918 23.2684 14.2055 23.0661 14.4079C22.8637 14.6102 22.75 14.8847 22.75 15.1709V17.3291C22.75 18.1911 23.0924 19.0177 23.7019 19.6272C24.3114 20.2367 25.138 20.5791 26 20.5791H39C39.862 20.5791 40.6886 20.2367 41.2981 19.6272C41.9076 19.0177 42.25 18.1911 42.25 17.3291V15.1709C42.2517 15.0281 42.225 14.8864 42.1715 14.754C42.1181 14.6217 42.0388 14.5012 41.9385 14.3996C41.8381 14.2981 41.7186 14.2175 41.5868 14.1624C41.4551 14.1074 41.3137 14.0791 41.1709 14.0791V14.0918ZM40.0791 17.3291C40.0791 17.9258 39.5967 18.4209 39 18.4209H26C25.8572 18.4209 25.7158 18.3926 25.5841 18.3376C25.4523 18.2825 25.3328 18.2019 25.2324 18.1004C25.1321 17.9988 25.0528 17.8783 24.9994 17.746C24.9459 17.6136 24.9192 17.4719 24.9209 17.3291V16.25H40.0791V17.3291ZM41.1709 5.4209H23.8291C23.5429 5.4209 23.2684 5.53459 23.0661 5.73696C22.8637 5.93933 22.75 6.2138 22.75 6.5V8.6582C22.7466 9.08713 22.8282 9.51248 22.9901 9.90972C23.1519 10.307 23.3908 10.6682 23.6929 10.9727C23.995 11.2772 24.3544 11.5189 24.7504 11.6838C25.1464 11.8487 25.5711 11.9336 26 11.9336H39C39.4268 11.9336 39.8494 11.8495 40.2437 11.6862C40.638 11.5229 40.9963 11.2835 41.2981 10.9817C41.5999 10.6799 41.8393 10.3216 42.0026 9.92731C42.1659 9.53301 42.25 9.11039 42.25 8.68359V6.5C42.25 6.2138 42.1363 5.93933 41.9339 5.73696C41.7316 5.53459 41.4571 5.4209 41.1709 5.4209ZM40.0791 8.6709C40.0791 9.26758 39.5967 9.75 39 9.75H26C25.7138 9.75 25.4393 9.63631 25.237 9.43394C25.0346 9.23157 24.9209 8.95709 24.9209 8.6709V7.5791H40.0791V8.6709ZM34.6582 52H24.9209C24.6347 52 24.3602 52.1137 24.1579 52.3161C23.9555 52.5184 23.8418 52.7929 23.8418 53.0791C23.8418 53.3653 23.9555 53.6398 24.1579 53.8421C24.3602 54.0445 24.6347 54.1582 24.9209 54.1582H34.6582C34.9444 54.1582 35.2189 54.0445 35.4212 53.8421C35.6236 53.6398 35.7373 53.3653 35.7373 53.0791C35.7373 52.7929 35.6236 52.5184 35.4212 52.3161C35.2189 52.1137 34.9444 52 34.6582 52ZM40.0791 52H39C38.7138 52 38.4393 52.1137 38.237 52.3161C38.0346 52.5184 37.9209 52.7929 37.9209 53.0791C37.9209 53.3653 38.0346 53.6398 38.237 53.8421C38.4393 54.0445 38.7138 54.1582 39 54.1582H40.0791C40.3653 54.1582 40.6398 54.0445 40.8421 53.8421C41.0445 53.6398 41.1582 53.3653 41.1582 53.0791C41.1582 52.7929 41.0445 52.5184 40.8421 52.3161C40.6398 52.1137 40.3653 52 40.0791 52Z" fill="black"/>
</svg>
