<svg width="74" height="74" viewBox="0 0 74 74" fill="none" xmlns="http://www.w3.org/2000/svg">
<g clip-path="url(#clip0_481_2563)">
<path d="M33.9932 11.3798L17.3559 47.8508C16.8281 49.0082 17.3426 50.3865 18.5 50.9143L34.4516 58.1912C35.609 58.719 36.9873 58.2045 37.5151 57.0471L54.153 20.5766C54.6808 19.4192 54.1663 18.041 53.0089 17.5131L37.0572 10.2357C35.8998 9.70787 34.5216 10.223 33.9932 11.3798Z" fill="#016938"/>
<path d="M25.6734 12.7624L23.5355 52.7918C23.4679 54.0619 24.4513 55.1563 25.7214 55.2245L43.2293 56.1594C44.4995 56.227 45.5939 55.2436 45.6621 53.9735L47.8 13.9441C47.8676 12.674 46.8843 11.5796 45.6141 11.5114L28.1062 10.5765C26.836 10.5089 25.7416 11.4929 25.6734 12.7624Z" fill="#027B38"/>
<path d="M18.9135 18.0044L32.8752 55.5814C33.3181 56.7735 34.6559 57.3869 35.8485 56.9435L52.2841 50.8373C53.4762 50.3945 54.0895 49.0567 53.6461 47.864L39.6844 10.2876C39.2416 9.09552 37.9038 8.48213 36.7111 8.92555L20.2762 15.0317C19.0841 15.4746 18.4707 16.8123 18.9135 18.0044Z" fill="#89BC49"/>
<path d="M18.9135 18.0044L32.8752 55.5814C33.3181 56.7735 34.6559 57.3869 35.8485 56.9435L52.2841 50.8373C53.4762 50.3945 54.0895 49.0567 53.6461 47.864L39.6844 10.2876C39.2416 9.09552 37.9038 8.48213 36.7111 8.92555L20.2762 15.0317C19.0841 15.4746 18.4707 16.8123 18.9135 18.0044Z" fill="#92C142"/>
<mask id="mask0_481_2563" style="mask-type:luminance" maskUnits="userSpaceOnUse" x="18" y="8" width="36" height="50">
<path d="M18.9135 18.0044L32.8752 55.5814C33.3181 56.7735 34.6559 57.3869 35.8485 56.9435L52.2841 50.8373C53.4762 50.3945 54.0895 49.0567 53.6461 47.864L39.6844 10.2876C39.2416 9.09552 37.9038 8.48213 36.7111 8.92555L20.2762 15.0317C19.0841 15.4746 18.4707 16.8123 18.9135 18.0044Z" fill="white"/>
</mask>
<g mask="url(#mask0_481_2563)">
<path d="M23.8545 13.1945C23.9204 13.3379 23.9864 13.4813 24.0424 13.631V13.6316L32.945 10.3253C32.945 10.3247 32.9444 10.3241 32.9444 10.3236C32.8883 10.1732 32.8455 10.0218 32.8016 9.8703L39.2992 7.45605L41.6562 13.8004C41.4908 13.8808 41.3232 13.9582 41.1486 14.0253L52.3133 44.0751C52.4897 44.0121 52.6666 43.9606 52.8446 43.9138L55.5323 51.1484L49.1683 53.513C48.9099 53.1198 48.6867 52.6955 48.5156 52.2359L39.6131 55.5416C39.6131 55.5422 39.6137 55.5428 39.6137 55.5433C39.7848 56.0029 39.8929 56.4701 39.9536 56.9366L33.7966 59.2243L31.1025 51.9734C31.2256 51.9185 31.3465 51.8613 31.4742 51.8139L20.3129 21.771C20.1852 21.8184 20.0557 21.8537 19.9273 21.8924L17.564 15.5319L23.8545 13.1945ZM22.056 20.7824L33.441 51.4254C35.4431 51.3496 37.3746 52.2341 38.6245 53.7997L48.1271 50.2708C48.0508 48.2434 48.9573 46.2858 50.5605 45.0376L39.1934 14.4433C37.1647 14.5444 35.2002 13.6541 33.9342 12.0689L24.4321 15.5978C24.5078 17.6004 23.6227 19.5325 22.056 20.7824Z" fill="#3C9C36"/>
</g>
<path d="M42.6773 30.5563C41.6497 27.7908 37.9522 26.6132 34.4186 27.9261C30.8851 29.2391 28.8536 32.5453 29.8811 35.3109C30.9087 38.0764 34.6062 39.254 38.1398 37.9411C41.6733 36.6282 43.7048 33.3219 42.6773 30.5563Z" fill="#3C9C36"/>
<path d="M28.2778 19.8709L29.7219 23.7583C30.2318 25.1301 31.7569 25.8291 33.1288 25.3192L33.3901 25.2221C34.762 24.7122 35.461 23.1871 34.9511 21.8152L33.5069 17.9279C32.997 16.556 31.4719 15.857 30.1 16.3669L29.8387 16.464C28.4674 16.9734 27.7684 18.499 28.2778 19.8709Z" fill="#3C9C36"/>
<path d="M37.2905 44.1288L38.7346 48.0161C39.2445 49.388 40.7696 50.0869 42.1415 49.577L42.4028 49.4799C43.7747 48.97 44.4737 47.4449 43.9637 46.073L42.5196 42.1857C42.0097 40.8138 40.4846 40.1148 39.1127 40.6247L38.8514 40.7219C37.4801 41.2312 36.7811 42.7569 37.2905 44.1288Z" fill="#3C9C36"/>
<path d="M55.3479 60.848H18.5913C17.3142 60.848 16.2788 59.8125 16.2788 58.5355V31.5156C16.2788 30.2385 17.3142 29.2031 18.5913 29.2031H55.3479C56.625 29.2031 57.6604 30.2385 57.6604 31.5156V58.5355C57.6604 59.8125 56.625 60.848 55.3479 60.848Z" fill="#F49C0B"/>
<path opacity="0.67" d="M55.226 29.2031H53.4003C54.7444 29.2031 55.8348 30.2929 55.8348 31.6376V49.2565L42.9443 48.1165L55.0352 60.2074C54.6028 60.6022 54.0322 60.8491 53.4009 60.8491H55.2266C56.5707 60.8491 57.6611 59.7593 57.6611 58.4146V31.6376C57.6605 30.2929 56.5707 29.2031 55.226 29.2031Z" fill="#E48316"/>
<path d="M50.4656 58.4666H49.244C49.0758 58.4666 48.9399 58.3308 48.9399 58.1625C48.9399 57.9943 49.0758 57.8584 49.244 57.8584H50.4656C50.6338 57.8584 50.7697 57.9943 50.7697 58.1625C50.7703 58.3308 50.6338 58.4666 50.4656 58.4666ZM46.1886 58.4666H44.9671C44.7988 58.4666 44.663 58.3308 44.663 58.1625C44.663 57.9943 44.7988 57.8584 44.9671 57.8584H46.1886C46.3569 57.8584 46.4927 57.9943 46.4927 58.1625C46.4927 58.3308 46.3569 58.4666 46.1886 58.4666ZM41.9123 58.4666H40.6907C40.5224 58.4666 40.3866 58.3308 40.3866 58.1625C40.3866 57.9943 40.5224 57.8584 40.6907 57.8584H41.9123C42.0805 57.8584 42.2163 57.9943 42.2163 58.1625C42.2163 58.3308 42.0805 58.4666 41.9123 58.4666ZM37.6359 58.4666H36.4143C36.246 58.4666 36.1102 58.3308 36.1102 58.1625C36.1102 57.9943 36.246 57.8584 36.4143 57.8584H37.6359C37.8041 57.8584 37.94 57.9943 37.94 58.1625C37.94 58.3308 37.8041 58.4666 37.6359 58.4666ZM33.3595 58.4666H32.1367C31.9685 58.4666 31.8326 58.3308 31.8326 58.1625C31.8326 57.9943 31.9685 57.8584 32.1367 57.8584H33.3595C33.5277 57.8584 33.6636 57.9943 33.6636 58.1625C33.6636 58.3308 33.5271 58.4666 33.3595 58.4666ZM29.0819 58.4666H27.8603C27.6921 58.4666 27.5563 58.3308 27.5563 58.1625C27.5563 57.9943 27.6921 57.8584 27.8603 57.8584H29.0819C29.2502 57.8584 29.386 57.9943 29.386 58.1625C29.3866 58.3308 29.2502 58.4666 29.0819 58.4666ZM24.8055 58.4666H23.584C23.4157 58.4666 23.2799 58.3308 23.2799 58.1625C23.2799 57.9943 23.4157 57.8584 23.584 57.8584H24.8055C24.9738 57.8584 25.1096 57.9943 25.1096 58.1625C25.1096 58.3308 24.9738 58.4666 24.8055 58.4666ZM20.5291 58.4666H20.513C20.0094 58.4666 19.6001 58.0573 19.6001 57.5538V57.2878C19.6001 57.1196 19.736 56.9837 19.9042 56.9837C20.0724 56.9837 20.2083 57.1196 20.2083 57.2878V57.5538C20.2083 57.7214 20.3447 57.8579 20.5124 57.8579C20.6806 57.8579 20.8246 57.9937 20.8246 58.1619C20.8251 58.3308 20.6974 58.4666 20.5291 58.4666ZM53.5193 58.4597C53.3724 58.4597 53.2429 58.3527 53.2192 58.2024C53.1932 58.0365 53.3065 57.881 53.473 57.855C53.6199 57.8318 53.7303 57.7029 53.7303 57.5543V57.1942C53.7303 57.0259 53.8661 56.8901 54.0344 56.8901C54.2026 56.8901 54.3385 57.0259 54.3385 57.1942V57.5543C54.3385 58.0064 54.0141 58.3863 53.5667 58.4562C53.5516 58.4585 53.5355 58.4597 53.5193 58.4597ZM19.9048 54.5377C19.7365 54.5377 19.6007 54.4018 19.6007 54.2336V53.0109C19.6007 52.8426 19.7365 52.7068 19.9048 52.7068C20.073 52.7068 20.2089 52.8426 20.2089 53.0109V54.2336C20.2089 54.4018 20.0724 54.5377 19.9048 54.5377ZM54.0344 54.4434C53.8661 54.4434 53.7303 54.3076 53.7303 54.1394V52.9166C53.7303 52.7484 53.8661 52.6125 54.0344 52.6125C54.2026 52.6125 54.3385 52.7484 54.3385 52.9166V54.1394C54.3391 54.307 54.2026 54.4434 54.0344 54.4434ZM19.9048 50.2607C19.7365 50.2607 19.6007 50.1249 19.6007 49.9566V48.735C19.6007 48.5668 19.7365 48.4309 19.9048 48.4309C20.073 48.4309 20.2089 48.5668 20.2089 48.735V49.9566C20.2089 50.1249 20.0724 50.2607 19.9048 50.2607ZM19.9048 45.9843C19.7365 45.9843 19.6007 45.8485 19.6007 45.6802V44.4581C19.6007 44.2898 19.7365 44.154 19.9048 44.154C20.073 44.154 20.2089 44.2898 20.2089 44.4581V45.6796C20.2089 45.8479 20.0724 45.9843 19.9048 45.9843ZM19.9048 41.7079C19.7365 41.7079 19.6007 41.5721 19.6007 41.4038V40.1823C19.6007 40.014 19.7365 39.8782 19.9048 39.8782C20.073 39.8782 20.2089 40.014 20.2089 40.1823V41.4038C20.2089 41.5715 20.0724 41.7079 19.9048 41.7079ZM19.9048 37.4304C19.7365 37.4304 19.6007 37.2945 19.6007 37.1263V35.9047C19.6007 35.7365 19.7365 35.6006 19.9048 35.6006C20.073 35.6006 20.2089 35.7365 20.2089 35.9047V37.1263C20.2089 37.2945 20.0724 37.4304 19.9048 37.4304ZM54.0344 37.3361C53.8661 37.3361 53.7303 37.2003 53.7303 37.0321V35.8105C53.7303 35.6422 53.8661 35.5064 54.0344 35.5064C54.2026 35.5064 54.3385 35.6422 54.3385 35.8105V37.0321C54.3391 37.1997 54.2026 37.3361 54.0344 37.3361ZM19.9048 33.154C19.7365 33.154 19.6007 33.0181 19.6007 32.8499V32.4972C19.6007 32.0457 19.9377 31.6572 20.3846 31.5931C20.5476 31.5734 20.7049 31.6844 20.7286 31.8515C20.7523 32.018 20.6367 32.1718 20.4702 32.1955C20.3216 32.2169 20.2094 32.3464 20.2094 32.4967V32.8493C20.2089 33.0181 20.0724 33.154 19.9048 33.154ZM54.0344 33.0598C53.8661 33.0598 53.7303 32.9239 53.7303 32.7557V32.4978C53.7303 32.3302 53.5938 32.1937 53.4262 32.1937C53.258 32.1937 53.1175 32.0579 53.1175 31.8896C53.1175 31.7214 53.2499 31.5855 53.4181 31.5855H53.4256C53.9292 31.5855 54.3385 31.9949 54.3385 32.4984V32.7562C54.3391 32.9233 54.2026 33.0598 54.0344 33.0598ZM50.3633 32.1931H49.1417C48.9735 32.1931 48.8376 32.0573 48.8376 31.8891C48.8376 31.7208 48.9735 31.585 49.1417 31.585H50.3633C50.5315 31.585 50.6674 31.7208 50.6674 31.8891C50.6674 32.0573 50.5309 32.1931 50.3633 32.1931ZM46.0863 32.1931H44.8647C44.6965 32.1931 44.5606 32.0573 44.5606 31.8891C44.5606 31.7208 44.6965 31.585 44.8647 31.585H46.0863C46.2546 31.585 46.3904 31.7208 46.3904 31.8891C46.3904 32.0573 46.2546 32.1931 46.0863 32.1931ZM41.8099 32.1931H40.5883C40.4201 32.1931 40.2843 32.0573 40.2843 31.8891C40.2843 31.7208 40.4201 31.585 40.5883 31.585H41.8099C41.9782 31.585 42.114 31.7208 42.114 31.8891C42.114 32.0573 41.9782 32.1931 41.8099 32.1931ZM37.5335 32.1931H36.3108C36.1426 32.1931 36.0067 32.0573 36.0067 31.8891C36.0067 31.7208 36.1426 31.585 36.3108 31.585H37.5335C37.7018 31.585 37.8376 31.7208 37.8376 31.8891C37.8376 32.0573 37.7018 32.1931 37.5335 32.1931ZM33.2566 32.1931H32.035C31.8668 32.1931 31.7309 32.0573 31.7309 31.8891C31.7309 31.7208 31.8668 31.585 32.035 31.585H33.2566C33.4248 31.585 33.5607 31.7208 33.5607 31.8891C33.5607 32.0573 33.4248 32.1931 33.2566 32.1931ZM28.9796 32.1931H27.758C27.5898 32.1931 27.4539 32.0573 27.4539 31.8891C27.4539 31.7208 27.5898 31.585 27.758 31.585H28.9796C29.1478 31.585 29.2837 31.7208 29.2837 31.8891C29.2837 32.0573 29.1478 32.1931 28.9796 32.1931ZM24.7032 32.1931H23.4805C23.3122 32.1931 23.1764 32.0573 23.1764 31.8891C23.1764 31.7208 23.3122 31.585 23.4805 31.585H24.7032C24.8714 31.585 25.0073 31.7208 25.0073 31.8891C25.0073 32.0573 24.8714 32.1931 24.7032 32.1931Z" fill="#FBCA76"/>
<path opacity="0.5" d="M18.1045 58.4135V31.6376C18.1045 30.2935 19.1943 29.2031 20.539 29.2031H18.7133C17.3692 29.2031 16.2788 30.2929 16.2788 31.6376V58.414C16.2788 59.7582 17.3686 60.8485 18.7133 60.8485H20.539C19.1943 60.848 18.1045 59.7582 18.1045 58.4135Z" fill="#F9C187"/>
<path d="M57.7213 49.894H46.4629C43.9087 49.894 41.8379 47.8232 41.8379 45.269V44.7822C41.8379 42.2281 43.9087 40.1572 46.4629 40.1572H57.7213C58.3601 40.1572 58.8776 40.6746 58.8776 41.3135V48.7378C58.8776 49.376 58.3601 49.894 57.7213 49.894Z" fill="#D17311"/>
<mask id="mask1_481_2563" style="mask-type:luminance" maskUnits="userSpaceOnUse" x="54" y="40" width="5" height="10">
<path d="M57.6607 40.1572H54.7354V49.894H57.6607C58.333 49.894 58.8776 49.3488 58.8776 48.6771V41.3742C58.8776 40.7018 58.333 40.1572 57.6607 40.1572Z" fill="white"/>
</mask>
<g mask="url(#mask1_481_2563)">
<path d="M58.8775 37.9424H57.0518V52.7852H58.8775V37.9424Z" fill="#CA6213"/>
</g>
<mask id="mask2_481_2563" style="mask-type:luminance" maskUnits="userSpaceOnUse" x="41" y="40" width="18" height="10">
<path d="M57.7213 49.894H46.4629C43.9087 49.894 41.8379 47.8232 41.8379 45.269V44.7822C41.8379 42.2281 43.9087 40.1572 46.4629 40.1572H57.7213C58.3601 40.1572 58.8776 40.6746 58.8776 41.3135V48.7378C58.8776 49.376 58.3601 49.894 57.7213 49.894Z" fill="white"/>
</mask>
<g mask="url(#mask2_481_2563)">
<path d="M44.9746 46.6506L48.5468 50.165H54.827L48.1768 43.5137L44.9746 46.6506Z" fill="#C56415"/>
</g>
<path d="M46.5197 47.2738C47.7611 47.2738 48.7675 46.2675 48.7675 45.0261C48.7675 43.7847 47.7611 42.7783 46.5197 42.7783C45.2783 42.7783 44.272 43.7847 44.272 45.0261C44.272 46.2675 45.2783 47.2738 46.5197 47.2738Z" fill="#D8B997"/>
<path d="M45.4889 45.0263C45.4889 44.1528 45.7612 43.3694 46.1925 42.8115C45.1074 42.9711 44.272 43.8967 44.272 45.0263C44.272 46.1554 45.1079 47.0816 46.1925 47.2411C45.7612 46.6832 45.4889 45.8999 45.4889 45.0263Z" fill="#F1D2AE"/>
<path d="M47.5498 45.0263C47.5498 45.8999 47.2775 46.6832 46.8462 47.2411C47.9313 47.0816 48.7667 46.156 48.7667 45.0263C48.7667 43.8972 47.9308 42.9711 46.8462 42.8115C47.2775 43.3688 47.5498 44.1522 47.5498 45.0263Z" fill="#C8A57E"/>
</g>
<defs>
<clipPath id="clip0_481_2563">
<rect width="74" height="74" fill="white"/>
</clipPath>
</defs>
</svg>
