<svg width="65" height="65" viewBox="0 0 65 65" fill="none" xmlns="http://www.w3.org/2000/svg">
<path d="M37.7343 48.2258H27.2526V50.3226H37.7343V52.4194H27.2526V54.5161H37.7343V58.7097H2.09635V54.5161H12.5781V52.4194H2.09635V50.3226H12.5781V48.2258H2.09635V16.7742H37.7343V23.0645H39.8307V0H0V60.8064H2.09635V65H10.4818V60.8064H29.3489V65H37.7343V60.8064H39.8307V39.8387H37.7343V48.2258ZM2.09635 2.09677H37.7343V6.29032H2.09635V2.09677ZM2.09635 8.3871H4.1927V10.4839H6.28905V8.3871H8.38541V10.4839H10.4818V8.3871H12.5781V10.4839H14.6745V8.3871H16.7708V10.4839H18.8672V8.3871H20.9635V10.4839H23.0599V8.3871H25.1562V10.4839H27.2526V8.3871H29.3489V10.4839H31.4453V8.3871H33.5416V10.4839H35.638V8.3871H37.7343V14.6774H35.638V12.5806H33.5416V14.6774H31.4453V12.5806H29.3489V14.6774H27.2526V12.5806H25.1562V14.6774H23.0599V12.5806H20.9635V14.6774H18.8672V12.5806H16.7708V14.6774H14.6745V12.5806H12.5781V14.6774H10.4818V12.5806H8.38541V14.6774H6.28905V12.5806H4.1927V14.6774H2.09635V8.3871ZM8.38541 62.9032H4.1927V60.8064H8.38541V62.9032ZM35.638 62.9032H31.4453V60.8064H35.638V62.9032ZM25.1562 51.371C25.1562 49.9807 24.6041 48.6474 23.6212 47.6644C22.6383 46.6813 21.3053 46.129 19.9153 46.129C18.5254 46.129 17.1923 46.6813 16.2095 47.6644C15.2266 48.6474 14.6745 49.9807 14.6745 51.371C14.6745 52.7612 15.2266 54.0945 16.2095 55.0776C17.1923 56.0606 18.5254 56.6129 19.9153 56.6129C21.3053 56.6129 22.6383 56.0606 23.6212 55.0776C24.6041 54.0945 25.1562 52.7612 25.1562 51.371ZM16.7708 51.371C16.7708 50.5368 17.1021 49.7368 17.6918 49.147C18.2815 48.5572 19.0814 48.2258 19.9153 48.2258C20.7493 48.2258 21.5491 48.5572 22.1389 49.147C22.7286 49.7368 23.0599 50.5368 23.0599 51.371C23.0599 52.2051 22.7286 53.0051 22.1389 53.5949C21.5491 54.1848 20.7493 54.5161 19.9153 54.5161C19.0814 54.5161 18.2815 54.1848 17.6918 53.5949C17.1021 53.0051 16.7708 52.2051 16.7708 51.371ZM58.6978 28.3064C57.8639 28.3064 57.064 28.6378 56.4743 29.2276C55.8846 29.8175 55.5533 30.6175 55.5533 31.4516C55.5533 32.2858 55.8846 33.0857 56.4743 33.6756C57.064 34.2654 57.8639 34.5968 58.6978 34.5968C59.5318 34.5968 60.3316 34.2654 60.9214 33.6756C61.5111 33.0857 61.8424 32.2858 61.8424 31.4516C61.8424 30.6175 61.5111 29.8175 60.9214 29.2276C60.3316 28.6378 59.5318 28.3064 58.6978 28.3064ZM58.6978 32.5C58.4199 32.5 58.1532 32.3895 57.9567 32.1929C57.7601 31.9963 57.6497 31.7297 57.6497 31.4516C57.6497 31.1736 57.7601 30.9069 57.9567 30.7103C58.1532 30.5137 58.4199 30.4032 58.6978 30.4032C58.9758 30.4032 59.2424 30.5137 59.439 30.7103C59.6356 30.9069 59.746 31.1736 59.746 31.4516C59.746 31.7297 59.6356 31.9963 59.439 32.1929C59.2424 32.3895 58.9758 32.5 58.6978 32.5ZM20.9635 34.5968H25.1562V36.6935H20.9635V34.5968ZM20.9635 30.4032H25.1562V32.5H20.9635V30.4032ZM20.9635 26.2097H25.1562V28.3064H20.9635V26.2097ZM63.4146 27.2581C62.1044 25.9476 60.4011 25.1613 58.6978 25.1613H29.742C28.7709 23.4757 27.4222 22.0383 25.8019 20.9621C24.1816 19.8859 22.3339 19.2003 20.4039 18.959C18.4739 18.7177 16.5142 18.9273 14.6789 19.5715C12.8436 20.2156 11.1827 21.2767 9.82665 22.6714L8.77847 23.8508L16.7708 26.996V32.3689C16.7708 33.1552 15.9847 33.8105 15.1985 33.4173L6.28905 29.879V31.4516C6.29592 34.2153 7.21243 36.8998 8.89702 39.0904C10.5816 41.281 12.9405 42.8559 15.6093 43.5717C18.2781 44.2875 21.1084 44.1044 23.6628 43.0507C26.2171 41.997 28.3536 40.1314 29.742 37.7419H58.4358C61.8424 37.7419 64.5938 35.252 64.9869 32.1069C65.1179 30.2722 64.5938 28.5685 63.4146 27.2581ZM62.8905 31.8448C62.6285 33.9415 60.7942 35.6452 58.4358 35.6452H28.4318L28.1697 36.1694C27.1557 38.1268 25.5505 39.7147 23.5825 40.7073C21.6144 41.6999 19.3835 42.0467 17.207 41.6984C15.0306 41.3501 13.0193 40.3244 11.4591 38.7672C9.89889 37.2099 8.86921 35.2004 8.51643 33.0242L14.4124 35.3831L15.5916 35.6452C17.4259 35.6452 18.8672 34.2036 18.8672 32.3689V25.4234L12.5781 23.0645C13.8028 22.1554 15.2111 21.5245 16.7047 21.2159C18.1983 20.9073 19.7412 20.9284 21.2258 21.2778C22.7104 21.6272 24.1009 22.2964 25.3002 23.2388C26.4996 24.1811 27.4788 25.3739 28.1697 26.7339L28.4318 27.2581H58.6978C59.2831 27.2555 59.8625 27.3755 60.3986 27.6104C60.9347 27.8453 61.4157 28.1898 61.8106 28.6219C62.2056 29.0539 62.5057 29.5639 62.6917 30.119C62.8777 30.6741 62.9454 31.2619 62.8905 31.8448Z" fill="black"/>
</svg>
