<svg width="77" height="49" viewBox="0 0 77 49" fill="none" xmlns="http://www.w3.org/2000/svg">
<path d="M76.6798 4.99023H0.319824V43.0596H76.6798V4.99023Z" fill="#F6F6F6"/>
<path fill-rule="evenodd" clip-rule="evenodd" d="M70.9528 0.707032C67.1348 0.707032 26.7121 0.70703 4.13782 0.707032C2.22882 0.707032 0.319824 2.6105 0.319824 4.51396V10.2244H76.6798C76.6798 10.2244 76.6798 19.0621 76.6798 6.41743C76.6798 2.6105 74.7708 0.707032 70.9528 0.707032Z" fill="#265697"/>
<path fill-rule="evenodd" clip-rule="evenodd" d="M0.319824 38.7764C0.319824 38.7764 0.319825 38.7764 0.319824 42.5833C0.319824 46.3902 2.22882 48.2937 6.04682 48.2937C27.3433 48.2937 67.1348 48.2937 70.9528 48.2937C74.7708 48.2937 76.6798 46.3902 76.6798 42.5833V38.7764H0.319824Z" fill="#D97B16"/>
<path fill-rule="evenodd" clip-rule="evenodd" d="M53.5877 14.8793C52.5175 14.4702 50.8406 14.0312 48.7464 14.0312C43.4089 14.0312 39.6491 16.7699 39.617 20.6947C39.5869 23.5961 42.3011 25.2145 44.3501 26.1804C46.4528 27.1701 47.1596 27.8013 47.1495 28.6851C47.1362 30.0385 45.4704 30.6569 43.9179 30.6569C41.7558 30.6569 40.6072 30.3508 38.8331 29.5969L38.1371 29.2761L37.3789 33.7961C38.6405 34.3597 40.9737 34.8481 43.3961 34.8734C49.0743 34.8734 52.7604 32.1661 52.8023 27.9749C52.8227 25.6779 51.3834 23.9299 48.2671 22.4889C46.379 21.5548 45.2227 20.9316 45.2349 19.9857C45.2349 19.1464 46.2137 18.249 48.3284 18.249C50.0948 18.221 51.3743 18.6135 52.3714 19.0226L52.8554 19.2556L53.5877 14.8793Z" fill="#265697"/>
<path fill-rule="evenodd" clip-rule="evenodd" d="M67.4395 14.4014H63.2655C61.9725 14.4014 61.0048 14.7609 60.437 16.0758L52.4146 34.5801H58.0868C58.0868 34.5801 59.0143 32.092 59.224 31.5458C59.8439 31.5458 65.3543 31.5544 66.142 31.5544C66.3037 32.2613 66.7992 34.5801 66.7992 34.5801H71.8116L67.4395 14.4014ZM60.7786 27.4158C61.2253 26.2525 62.9307 21.7714 62.9307 21.7714C62.8988 21.8251 63.3741 20.6024 63.647 19.8443L64.012 21.5851C64.012 21.5851 65.0463 26.4049 65.2626 27.4156L60.7786 27.4158Z" fill="#265697"/>
<path fill-rule="evenodd" clip-rule="evenodd" d="M28.5967 34.5734L31.974 14.3818H37.3758L33.9961 34.5734H28.5967Z" fill="#265697"/>
<path fill-rule="evenodd" clip-rule="evenodd" d="M24.066 14.3965L18.7775 28.1656L18.2141 25.3674C17.2296 22.1418 14.1621 18.647 10.7329 16.8974L15.5686 34.5559L21.2838 34.5493L29.7879 14.3965H24.066Z" fill="#265697"/>
<path fill-rule="evenodd" clip-rule="evenodd" d="M13.8716 14.3848H5.16123L5.09229 14.8049C11.8688 16.4762 16.3528 20.5152 18.2141 25.3682L16.3201 16.0894C15.9932 14.8109 15.0448 14.4293 13.8716 14.3848Z" fill="#D97B16"/>
</svg>
