<svg width="37" height="65" viewBox="0 0 37 65" fill="none" xmlns="http://www.w3.org/2000/svg">
<path d="M18.3246 51.8984C18.0711 51.8984 17.828 51.9988 17.6488 52.1773C17.4695 52.3559 17.3688 52.5981 17.3688 52.8506C17.3688 53.1031 17.4695 53.3453 17.6488 53.5239C17.828 53.7024 18.0711 53.8027 18.3246 53.8027C18.578 53.8027 18.8211 53.7024 19.0004 53.5239C19.1796 53.3453 19.2803 53.1031 19.2803 52.8506C19.2803 52.5981 19.1796 52.3559 19.0004 52.1773C18.8211 51.9988 18.578 51.8984 18.3246 51.8984ZM27.9711 38.3779C25.0745 36.5809 21.7305 35.6284 18.3182 35.6284C14.9059 35.6284 11.5619 36.5809 8.6653 38.3779C8.45069 38.5126 8.29857 38.7267 8.24241 38.9731C8.18625 39.2195 8.23065 39.4781 8.36583 39.6919C8.50102 39.9057 8.71592 40.0572 8.96327 40.1132C9.21061 40.1691 9.47013 40.1249 9.68474 39.9902C12.2775 38.3824 15.2705 37.5302 18.3246 37.5302C21.3786 37.5302 24.3716 38.3824 26.9644 39.9902C27.1792 40.1225 27.4378 40.1647 27.6837 40.1076C27.9296 40.0505 28.1429 39.8988 28.2769 39.6855C28.4097 39.4715 28.452 39.2139 28.3947 38.9689C28.3374 38.7239 28.1851 38.5114 27.9711 38.3779ZM25.1294 42.6055C23.0756 41.3715 20.7228 40.7194 18.3246 40.7194C15.9263 40.7194 13.5735 41.3715 11.5197 42.6055C11.4001 42.6631 11.2939 42.7449 11.2078 42.8457C11.1217 42.9465 11.0577 43.0641 11.0197 43.1909C10.9818 43.3178 10.9708 43.4511 10.9875 43.5824C11.0042 43.7137 11.0482 43.8401 11.1167 43.9535C11.1852 44.0669 11.2767 44.1649 11.3853 44.2411C11.4939 44.3173 11.6173 44.3702 11.7475 44.3962C11.8778 44.4223 12.0121 44.421 12.1418 44.3925C12.2715 44.3639 12.3938 44.3088 12.501 44.2305C14.2566 43.1757 16.268 42.6183 18.3182 42.6183C20.3684 42.6183 22.3797 43.1757 24.1354 44.2305C24.2426 44.3012 24.363 44.3496 24.4893 44.3729C24.6157 44.3962 24.7456 44.3939 24.871 44.366C24.9965 44.3382 25.115 44.2854 25.2195 44.2108C25.3241 44.1363 25.4124 44.0415 25.4793 43.9321C25.5462 43.8228 25.5902 43.7011 25.6088 43.5744C25.6274 43.4477 25.6202 43.3185 25.5875 43.1947C25.5548 43.0708 25.4974 42.9548 25.4187 42.8535C25.34 42.7523 25.2416 42.6679 25.1294 42.6055ZM22.2622 46.8457C21.0617 46.1669 19.7049 45.81 18.3246 45.81C16.9442 45.81 15.5874 46.1669 14.3869 46.8457C14.2633 46.898 14.1521 46.9758 14.0606 47.0738C13.9691 47.1718 13.8994 47.288 13.8561 47.4147C13.8127 47.5414 13.7966 47.6757 13.8089 47.809C13.8211 47.9423 13.8615 48.0715 13.9273 48.1883C13.9931 48.305 14.0828 48.4065 14.1907 48.4864C14.2985 48.5662 14.422 48.6225 14.5532 48.6515C14.6844 48.6806 14.8202 48.6817 14.9518 48.655C15.0835 48.6282 15.208 48.574 15.3172 48.4961C16.2325 47.9798 17.2664 47.7085 18.3182 47.7085C19.37 47.7085 20.4039 47.9798 21.3192 48.4961C21.4293 48.5589 21.551 48.5992 21.677 48.6147C21.8029 48.6302 21.9308 48.6205 22.0529 48.5862C22.1751 48.552 22.2892 48.4938 22.3886 48.4151C22.488 48.3364 22.5706 48.2388 22.6317 48.1279C22.8866 47.6709 22.7209 47.0869 22.2494 46.833L22.2622 46.8457ZM33.7055 26.457H32.5586V2.9834C32.5586 1.33301 31.2078 0 29.5512 0H7.08515C5.42855 0 4.09053 1.3457 4.09053 2.9834V26.4697H2.94365C1.32528 26.4697 0 27.7773 0 29.3896V62.0674C0 63.6797 1.32528 65 2.93091 65H33.7055C35.3238 65 36.6364 63.6797 36.6364 62.0801V29.377C36.6364 27.7646 35.3238 26.457 33.7055 26.457ZM33.7055 63.0957H2.93091C2.79596 63.0974 2.66203 63.0724 2.53687 63.0221C2.41171 62.9718 2.29782 62.8972 2.2018 62.8028C2.10578 62.7083 2.02955 62.5958 1.97752 62.4717C1.92549 62.3476 1.89871 62.2145 1.89872 62.0801V56.8623H2.98188C3.23536 56.8623 3.47845 56.762 3.65769 56.5834C3.83692 56.4049 3.93761 56.1627 3.93761 55.9102C3.93761 55.6576 3.83692 55.4155 3.65769 55.2369C3.47845 55.0583 3.23536 54.958 2.98188 54.958H1.91146V51.7715H2.99462C3.2481 51.7715 3.49119 51.6712 3.67043 51.4926C3.84966 51.314 3.95036 51.0719 3.95036 50.8193C3.95036 50.5668 3.84966 50.3246 3.67043 50.1461C3.49119 49.9675 3.2481 49.8672 2.99462 49.8672H1.91146V46.6934H2.99462C3.2481 46.6934 3.49119 46.593 3.67043 46.4145C3.84966 46.2359 3.95036 45.9937 3.95036 45.7412C3.95036 45.4887 3.84966 45.2465 3.67043 45.0679C3.49119 44.8894 3.2481 44.7891 2.99462 44.7891H1.91146V41.5898H2.99462C3.2481 41.5898 3.49119 41.4895 3.67043 41.311C3.84966 41.1324 3.95036 40.8902 3.95036 40.6377C3.95036 40.3852 3.84966 40.143 3.67043 39.9644C3.49119 39.7859 3.2481 39.6855 2.99462 39.6855H1.91146V36.5117H2.99462C3.2481 36.5117 3.49119 36.4114 3.67043 36.2328C3.84966 36.0543 3.95036 35.8121 3.95036 35.5596C3.95036 35.307 3.84966 35.0649 3.67043 34.8863C3.49119 34.7077 3.2481 34.6074 2.99462 34.6074H1.91146V29.3896C1.91146 29.1203 2.01887 28.862 2.21005 28.6715C2.40123 28.481 2.66053 28.374 2.93091 28.374H25.4862C25.7396 28.374 25.9827 28.2737 26.162 28.0951C26.3412 27.9166 26.4419 27.6744 26.4419 27.4219C26.4419 27.1693 26.3412 26.9272 26.162 26.7486C25.9827 26.57 25.7396 26.4697 25.4862 26.4697H19.293V20.2871C19.293 20.0346 19.1923 19.7924 19.0131 19.6138C18.8339 19.4353 18.5908 19.335 18.3373 19.335C18.0838 19.335 17.8407 19.4353 17.6615 19.6138C17.4823 19.7924 17.3816 20.0346 17.3816 20.2871V26.457H5.98925V2.9834C5.98925 2.38672 6.47349 1.9043 7.07241 1.9043H17.3561V9.08984C17.3561 9.34237 17.4568 9.58455 17.636 9.76311C17.8152 9.94168 18.0583 10.042 18.3118 10.042C18.5653 10.042 18.8084 9.94168 18.9876 9.76311C19.1668 9.58455 19.2675 9.34237 19.2675 9.08984V1.9043H29.5385C30.1501 1.9043 30.6344 2.38672 30.6344 2.9834V26.4697H29.564C29.3105 26.4697 29.0674 26.57 28.8881 26.7486C28.7089 26.9272 28.6082 27.1693 28.6082 27.4219C28.6082 27.6744 28.7089 27.9166 28.8881 28.0951C29.0674 28.2737 29.3105 28.374 29.564 28.374H33.7055C33.9758 28.374 34.2351 28.481 34.4263 28.6715C34.6175 28.862 34.7249 29.1203 34.7249 29.3896V34.5947H33.6417C33.3883 34.5947 33.1452 34.695 32.9659 34.8736C32.7867 35.0522 32.686 35.2943 32.686 35.5469C32.686 35.7994 32.7867 36.0416 32.9659 36.2201C33.1452 36.3987 33.3883 36.499 33.6417 36.499H34.7376V39.6855H33.6417C33.3883 39.6855 33.1452 39.7859 32.9659 39.9644C32.7867 40.143 32.686 40.3852 32.686 40.6377C32.686 40.8902 32.7867 41.1324 32.9659 41.311C33.1452 41.4895 33.3883 41.5898 33.6417 41.5898H34.7376V44.7764H33.6417C33.3883 44.7764 33.1452 44.8767 32.9659 45.0552C32.7867 45.2338 32.686 45.476 32.686 45.7285C32.686 45.981 32.7867 46.2232 32.9659 46.4018C33.1452 46.5803 33.3883 46.6807 33.6417 46.6807H34.7376V49.8545H33.6417C33.3883 49.8545 33.1452 49.9548 32.9659 50.1334C32.7867 50.3119 32.686 50.5541 32.686 50.8066C32.686 51.0592 32.7867 51.3013 32.9659 51.4799C33.1452 51.6585 33.3883 51.7588 33.6417 51.7588H34.7376V54.9707H33.6417C33.3883 54.9707 33.1452 55.071 32.9659 55.2496C32.7867 55.4281 32.686 55.6703 32.686 55.9229C32.686 56.1754 32.7867 56.4176 32.9659 56.5961C33.1452 56.7747 33.3883 56.875 33.6417 56.875H34.7376V62.0801C34.7394 62.2156 34.7138 62.3501 34.6626 62.4756C34.6113 62.6011 34.5353 62.7152 34.4391 62.811C34.3429 62.9068 34.2285 62.9825 34.1025 63.0336C33.9765 63.0847 33.8415 63.1101 33.7055 63.1084V63.0957ZM15.2535 11.1973H10.1562C9.06033 11.1973 8.16832 12.0859 8.16832 13.165V16.2119C8.16832 17.3037 9.06033 18.1924 10.1435 18.1924H15.2535C16.3494 18.1924 17.2286 17.3037 17.2286 16.2119V13.165C17.2286 12.0732 16.3366 11.1973 15.2535 11.1973ZM15.3172 16.2119C15.3172 16.25 15.2917 16.2881 15.2535 16.2881H10.1562C10.1457 16.2905 10.1347 16.2902 10.1243 16.2873C10.1139 16.2843 10.1044 16.2788 10.0968 16.2711C10.0891 16.2635 10.0836 16.2541 10.0806 16.2437C10.0776 16.2334 10.0773 16.2224 10.0798 16.2119V13.165C10.0798 13.127 10.118 13.1016 10.1435 13.1016H15.2535C15.2917 13.1016 15.3172 13.127 15.3172 13.165V16.2119ZM26.4929 11.1973H21.3956C20.2997 11.1973 19.4077 12.0859 19.4077 13.165V16.2119C19.4077 17.3037 20.2997 18.1924 21.3829 18.1924H26.5056C27.6015 18.1924 28.4808 17.3037 28.4808 16.2119V13.165C28.4808 12.0732 27.5888 11.1973 26.5056 11.1973H26.4929ZM26.5566 16.2119C26.5566 16.25 26.5311 16.2881 26.4929 16.2881H21.3956C21.3851 16.2905 21.3741 16.2902 21.3637 16.2873C21.3533 16.2843 21.3438 16.2788 21.3362 16.2711C21.3285 16.2635 21.323 16.2541 21.32 16.2437C21.317 16.2334 21.3167 16.2224 21.3192 16.2119V13.165C21.3192 13.127 21.3447 13.1016 21.3829 13.1016H26.5056C26.5438 13.1016 26.5693 13.127 26.5693 13.165L26.5566 16.2119Z" fill="black"/>
</svg>
